<mxfile host="app.diagrams.net" modified="2024-05-24T06:29:43.042Z" agent="Mozilla/5.0 (Macintosh; Intel Mac OS X 10_15_7) AppleWebKit/537.36 (KHTML, like Gecko) Chrome/125.0.0.0 Safari/537.36" etag="eO-0B5OuoWltUIMcSExv" version="24.4.7" type="github">
  <diagram name="Page-1" id="AX_LEsxRzsq6VhchF0KD">
    <mxGraphModel dx="737" dy="1684" grid="1" gridSize="10" guides="1" tooltips="1" connect="1" arrows="1" fold="1" page="1" pageScale="1" pageWidth="827" pageHeight="1169" math="0" shadow="0">
      <root>
        <mxCell id="0" />
        <mxCell id="1" parent="0" />
        <mxCell id="Wg8RFO9psuNznAwOXjFQ-13" value="" style="ellipse;shape=cloud;whiteSpace=wrap;html=1;" parent="1" vertex="1">
          <mxGeometry x="244" y="8" width="140" height="105" as="geometry" />
        </mxCell>
        <mxCell id="Wg8RFO9psuNznAwOXjFQ-12" value="" style="shape=image;verticalLabelPosition=bottom;verticalAlign=top;imageAspect=0;aspect=fixed;image=data:image/png,iVBORw0KGgoAAAANSUhEUgAAAgYAAAJYCAYAAAAZuy4nAAAACXBIWXMAAAsTAAALEwEAmpwYAAAgAElEQVR4nOzdeZhU1Z0+8O/33KrqFRU1CigqRlY1ahQ1cYujcbe7Acu4xMFIBpeomeSX2N1opqYiAq0zmaiTqMQlJG6BEWhQMTOOSyKTREXBhU1FHVRwBaGququr7nl/f4AOMSxd1ffWqep+P8+TJ49a595Xoem3zz33HBEiIiIiIiIiIiIiIiIiIiIiIiIiIiIiIiIiIiIiIiIiomCo6wBERERbam1tHSUiw3xf9lG1+4rIPiKyD6D1qlBAjIjmVOUDEawFdI0xstQY88K+++776qWXXppz/K9Q0VgMiIjIqUQiMaCzs/NkQE8RwTdFZECx11LVLhE8q6oPA9GH29qufzXAqH0CiwEREZVcIpGIdXZ2nieiVwIYHeKtXjNGf6Wqd0+dOvXjEO/Ta7AYEBFRybS2tn7JWns5IJdLD2YGipBV1d9Fo5HJkydPfq2E9604LAZERBS6RCJR39GR/akIrhCRKlc5VDUPyN01NVXJZDL5nqsc5YzFgIiIQtXa2tqQz+PfVTHYdZbPqGpGBJOqq6tvTSaT1nWecsJiQEREobj22mv3yufztwAy1nWWbVGVZ6LR6CV8vPB/WAyIiChwzc3N3xDR2QD6u86yI6qaMkYvmjp16lzXWcqBcR2AiIh6l2uuaR0PyH9WQikQEQFQn8/7s6+5puUnAPr8D8ye6wBERNQ7ANBsNjsZwM+kwr6/qKqKyIn//d//ve/JJ580/+mnn4brTK5U1C8cERGVJwDa3Nw6A8CVrrP00KG+7w85+eST5vXVcsBiQEREPdbZ2XmTiFzuOkdADvH9/H4LFy7sk2sOWAyIiKhHmpubLwfkBtc5Anboscce6y9cuPAProOUGosBEREVrbW19Qxr8VvphYvZAZx4/PHHvfTMM88sd52llPr86ksiIirOddddNzyXyz8PoN51lrCoaioajRw6efLkN1xnKZVe1/CIiCh8ALSrK/+r3lwKRDa9ytjVlb+nL73GyEcJRERUsGw2OxHA91znKJF9H3/8ifULFz7zZ9dBSqHPNCAiIgrGpEmTBvq+vwyQnV1nKRVVzXieOWDKlClrXGcJGx8lEBFRQXzfv6UvlQIREQC1+bz9J9c5SoEzBkRE1G3Nzc2HALLYdQ4XVDUfjUZG9fYDlzhjQEREBdAfuk7gCoBILpef5DpH2DhjQERE3bJpbYF9C0DMdRZXVLWzurpqr2Qy+YnrLGHhjAEREXWL7+PKvlwKREQAVHd2dl3iOkeYWAyIiGiHbrnllioRXOo6R3nAP7hOECYWAyIi2qH33nvvOAC7uc5RDgAMa21tHeE6R1hYDIiIaIcAnOo6QzmxVhpcZwgLiwEREXUHi8FfsWe7ThAWvpVARETblUgkBnV0dL7rOkc52fx2Qr9kMpl3nSVonDEgIqLt6uzsPNl1hnIDoDqXy41ynSMMLAZERLRdgPbKb4A9Za09wnWGMLAYEBHRdqliX9cZyhGA4a4zhIHFgIiIdmQ/1wHKEaADXWcIA4sBERFtF8BisDWqwmJARER9yy233FIFYE/XOcoRIHu4zhAGFgMiItqmd999t1pV+Wp7H8JiQERE21RdXZ11naF8odftYSDCYkBERNvX5TpAuVJV33WGMLAYEBHRNiWTSSsivfIbYM+hV/53YTEgIqId4azBVgCac50hDCwGRES0XaryoesM5UhV3nadIQwsBkREtF2AvuI6QzkCZKnrDGFgMSAioh152XWAcuR5usx1hjCwGBAR0XapgjMGW8cZAyIi6pM4Y/AFqtp12GGHveE6RxhYDIiIaLuqq6uXichG1znKzB/OPfdcvq5IRER9TzKZ7FKV+a5zlBfMdp0gLCwGRES0Q8aYWa4zlAsAqK6ubnedIywsBkREtEOxWOwxVU25zlEezJ+TyeR7rlOEhcWAiIh2KJlMdorgYdc5yoHnyRzXGcIUcR2AiHoGgMo/H9WvM5/Z2Ud+Z0+xk0V+Z0h0Z7WyE9SvFnhRRT4q4kVgJCpAVCBRVY1asVEj8AVeDmpzoianvp8X9XKiNgfVnFjJqZiNanIbrMqnKtFPPeN9WuVHN0is61NNLuWWuX0A4P1axD/PdQ7H0lVVVfe4DhEmnrFNVIYwM+51LFk8QMQfCOsNENGBAhkA6EBRDBBgoKoZAMGuYtEPqk6/lo2iEyKfipj3RbBWYNeI6lqBWSOKtR68NcZ0ro3Fat7T5FJOR1ew5ubmPwFytOsc7uhNN9447RrXKcLEGQMiR5A4cqdMLrW/Irc/IF+G6P4CfFlE9s+8sGRfC4387ZcoRCAiogJg099y2wlERMRCq0WkWgR7ishXRMzmnJvy5sUXsVHp6sxLqnn4RypYJYo3ILpKRVcZ9d8QU72qOjLuXd10mh+VKVVNAPi96xyOdEQi5l9dhwib+z9RiHo5JEbt2tmJg6C5gyy8g0RwsIiOgGB319nKjRHJQmQVVF8x8F9Rjb7sRbKvxLyL3mBhKB/XXNPyjAiOcZ2j9PDzG2+88QeuU4SNMwZEAUEiYdJ25kjtsqNF5GAoDhLoQanO/KBNHzCy+cfoLf6ftmRFqkRkpAAjrZi4wBc/F5F87v6OVMuwpQL7ihjvFVG8WOf3e17bFn3qOnNfFImYRD7vP+46R4mla2pqbnIdohQ4Y0BUpMy1Q/cSK0dZyJEqehREjgCk3nWuvkIBiDErBP5fjMqzkMhfaofUvaSXLsq5ztYXNDc33wfIBa5zlIoxeum0adOmu85RChVZDGbOnOn96U9/imWzWS+fz3sikps+fXrGdS7qvTYtBnz1cFj/G/DxNVE9EoJBrnPRXzOKTkAWq5q/qOgfa6o+fVqTaz5ynas3am5u3llEXgJkH9dZwqeP3njjtDNdpyiVsi8GEydOrM0Bp4q1RykwEiIjRWR/EfG2/ByAD8SYVUbkDYgsUuDRu+++e4Wb1FTpNhWBRYdZG/2GACcK9DgI+rnORYVRAKrmFVE8qeo/WROr+oMml37iOldv0dzcfLyIPgmg1+6Jo6ofV1dXHZRMJte6zlIqZVkMEolE9ep33z0X1o4FcIqq1hRzHRVZBeBhY8ztd911V688N5uCk/rJyAMl75+6qQjIcRDd2XUmCpZRWFh5SY15UtQ+URvb6QlNLuJsYw+0tLRMsRatrnOEx8RvvHHqf7hOUUplVQwmTpxY29XVdZl63o8EGBjUdbHpWeTDEdWb7rzzzj8GdV2qbPjZ0TWZDz850QJnGuiZVmRf15motDbtv2CeEtFHIhH7SPXklW+6zlRp7rjjjuiqVavmA3Kq6yxBsxb//C//cmPSdY5SK5ticMkll1wmqtcDIb/CpfqYEbnsrrvuejvU+1BZ6rh25L7I2zOs+Geq6N9ZKW42inonFVkmIo9A9JH66gHPaPLpvOtMleBnP/tZzfvvf/AYgONdZwmKqt7c1jbtH13ncMF5Mbjsssv26srl7gZwSsluqpoyIq133nnnL1SV7431ctnWfUfkbfRcEe8cKzjYdR6qDCr4VNXMV/Vn1Qwc+nu9ekHWdaZy1tbW1u+TT9b9F4CjXGfpKVX99bRpUy/pq98fnBaD7373u42+tb8WkV2cBFB9rKaqKv7LX/6SW7T2Mtnr9huez8fOFWicZYB6SlU2iKDdwMyqqfZ+z7Mhtq6lpaW/tfYJET3UdZbi6awjjvjq+eeee67vOokrzorBJZdcMgEid8gX3i4oNVV9MeJ5Z06fPn2NyxzUc9nWIcPyNnYuVOIAvuI6D/VOKvhUVNtVMas2Fv1PloS/lkgkdunszP4GwNmusxQCADzPTK6qqvrnZB/fZdNJMbjkkkt+DJEbXdx7a1T17YjnnTR9+vQ3XGehwqDl4P4d6DoPKt+xwGjXeahvUZFP1OgDAr2nbtryRa7zlAsA2tLS0iqi11fGq4y6QRV/39bW1u46STkoeTGYMGHCFRb4Ranvu0OqK6tjsaNvu+22da6j0PYhkTCZ3IPfFIvvCKRp8za6RE4ZlVegco/E8vfWJ1d94DpPOZg0adJJvm8fAPAl11m2RVWXR6ORpsmTJ3Pfm81KWgwmTJhwPEQeBxAt5X27S1WfjHjeqdOnT+eWqmUo2zpkWA7Ri1Xk7y1kL9d5iLbGqOQh+qjR/D01++3ySF/fovnaa6/dK5fzbwLseer4ePAv6LAWbYMGDbjxhz/8YYfrMOWkZL9Il19++eCOzs7nVXWPUt2zGCryi7vvvvtK1zloEyROiKRza8aKlSsBOc51HqKCqHyoInd6Xuy2mhteWe06jkutra1HWWt/BsjXXWdRlQcjkcg1N9xwQ5/+NdmWkhWDSyZM+H1JX0ksEgDA2uNmzJix0HWWviydGDVAOrsmQrxLeSYBVToj8KE6T0T+vX7ayidc53GppaUlDshkAMNKfW9VfcoYvW7q1Kn88307SlIMJkyY0GSBOaW4VxCg+mrM8w7jI4XS62gdfoy1/pUiZpwVKctHTkQ9oljqCX5RUxX7jSaX9slXpQHopEmTjrfWfgeQc0SkLsTbfaAqv45Go3dOnjz5tRDv02uEXgwSiUT16nfeWQpgSNj3ChTQfM8995TNmxO9GRKjYpmurgvh69XQSn7/maj7VGWDip3hRapurp78ap99I6qtra3fhx+uP9fzcK4IjgKkx2eUALpaVZ4xRh4aMmTIvEsvvZQ/5BUg9GJwyXe/+4+w9t/Cvk/QAHzQr75+n1tvvZW7nYUEbbv1S6/70kQV+wMuJqS+ygh8Uf0PEa+tbtqyF13ncWnzTMJIAEdv+p8cpqq7i6C/tdhpy8WLqmoBfKKqH8mmWYGXALMwEtGFXDvQM+EXgwkTlgMYHvZ9wmBUL77rrrtmuM7R26QS++8h2cjVYvE9qLrZ9ZKoDKnKf4rxp9VPeeNJ11nKzcyZM70XX3xxF8/zdvI8b6OIfNLXNyIKS6jFYMKECd+wQMX+BlfVF+++666vus7RW3ReN2xILo8fGch3eHgR0bYZ1edU7bSa2AVzld/8qMRCLQaXTJjwAIDzwrxH2DQaPfTuO+5Y4jpHJdu0VXE0IYJvWVGnW2ATVRJVWSmQ6+uqz7+fBYFKJbStKhOJhAFwWljXLxXN57/pOkOl6rxu2JBUy9B78jay1IpcwFJAVBhAhkHkt+nOB17Z2DI8DqCcNgiiXiq0YrB67dqDxdWpiQGy1p7sOkOlySQO3jvVPOx2PycrAL2YhYCoZyAyUoCZ6dbhL2ZaD2hwnYd6t/AOt8jljg/t2iUEkeMTiUTMdY5KkJo0ZM90y7Cb0Zl9HSKXch8ComABcohvTXu6Zfiz6UnDT3Wdh3qnSFgXhurRAoR1+ZJR1ZrVq1cPEREesLENSBy5U7rz01a1uNpCal3nIertLDBafHks1TzsGc/419RMfeNPrjNR7xHajIECvea9dGPMPq4zlCPMjHuZlgMuS2XXvw5BC0sBUWlB5Ni89f4n3TLswY7m4fu5zkO9Q2jFAMCeYV271AAMdp2h3KRbhp+WWbR4iQ9zm0DK9khVor7AQr5lBctTzcOnInHkTq7zUGULb42Bau8pBqq9Zvajp1I/GXlgqnnYYxZYYEUPdJ2HiDaxIlUQtGQ6172WaR1+KWbGueiXihLeowTV+rCuTaWH1kO/lGoedrt25ZdAhIueiMqUFd3Dt7g9s2jxknTLiLI/0ZbKT5iPEjaEdW0H+uwBHAA03TJiYhqZFZveNOCrh0SVwIoeaGF/n2oeNitz7VDOelK3hTlj0GuKgfauktNt6eZhh6Rbhv2Phb0DkP6u8xBR4SByjvV1earlgB/w8QJ1R5gzBp+Gde1Ss8b8r+sMpYS23fqlW4b/TASLIHq06zxE1DOA1APmZ+kXlizKXDuSX9O0XWEuPlwV2rVLTH3/LdcZSiXTesA5mXW7LbPAD/jYgKh3AeQQm8v/T6rlgDvQcjBnAWmrwnyU8FxY1y4lAB2DBw9e7jpH2DqaR+2Tah76qG/NLAvh80iiXgqqCpiJKcmuSF1zwIWu81D5CXODo15RDFT1+WQymXedI0zp1mH/4Iv/CkRPd52FiEoE8iWouTfVMnxuOjFqgOs4VD5CKwb19fWLRMQP6/qlYlSfdJ0hLB3XHjQ41TLs99bKdAj6uc5DRKUHoBGd+VdTzcMvcJ2FykNoxeDmm29eL8DjYV2/VFT1IdcZwpBu+fJ3fb/rFUD4njNRHweRXSG4L3XNsDmpSUN6zeZ0VJzwFh+KiKr+Nszrhw5Yfuedd77kOkaQNh+J/JiF9ytAuHUqEX0OKk1iY6+mWkac7zoLuRNqMYhEInNENRXmPcKkqm2uMwQp3Tp0vM1mX+XOhUS0LQB2A+z9qeYDHkLroN1c56HSC7UYTJ8+PSMivw7zHmFRkVWDBw++13WOICBx5E7plqH3W6u/5iwBEXUHxIzNoH5JatKXT3SdhUor1GIgIlIVjV5fobMGU3rD2wiZ1pFHZTo/XWyhnBokooJYyF5qzeOplmGTkTgh4joPlUboxeD222//QERuCvs+QVLVtyORyG9c5+gJJBIm3TKiFfCfsYIhrvMQUWWyUAPItensmj90NA/fz3UeCl/oxUBEZLf+/f9VVd8pxb16CgAE+N706dMr9uCkTGLwoEz2wf+ysFMshC2fiHoMkK/5YhenJo04z3UWCpeW6kbjx48/xnjeUyJl/o1Kdeo9d901yXWMYqVbh54Fa+6BYHfXWYiod1KRe+qq+12pyUUZ11koeCWZMRARmTFjxkIVua5U9ysGVJ86/dRTf+I6RzGQSJhUy7DJ8GUeSwERhQki38l0pv7c2TLqANdZKHglmzEQEQGgl0yYMEdEGkt5325aW1Ndfdgvf/nLta6DFAqJUbumO/P38zVEIiolBdarJxfVTX3tYddZKDglmzEQEVFV7DN48LkqUm6/idYa1TMqsRSkJ434aibrL2IpIKJSg+ou8GVeqmXoT5FIlPT7CYWnpDMGn0kkErHVq1fPgkiDi/tvSVWXqcjpd91119uusxQq3Tz8YlF7m4VWu85CRH2bChbUafWFOu3lda6zUM84KQYiIhMnTozmfP/nAlzhKoOI/LG6qqrxtttuq6jfyEiMiqWz+ZsBucx1FiKizxjRN8XzxtZNWbrYdRYqnrNi8JkJEyaMtcCdItK/VPcEAKP6q7q6uqtvvfXWbKnuG4RUYv89JBuZC8jXXGchIvoiI+iA6nfqp638nessVBznxUBEZOLEifvk8/lfQOSssO+lqn8S4Oq77777+bDvFbTUT0YeqF3+I1ZkX9dZiIi2RQGo0UTdtJXXu85ChSuLYvCZzXsdTBWR44K+tqq+B9Xmu3/1q/tUFUFfP2zpScNPhcVMnnVARJXCqN5bO2j/7+rVCypqZravK6ti8JmLL77474wx40V1DIB+PbhUp6g+akQe3GmnnR7+t3/7t47AQpZQpuWAKwC9xYp6rrMQERVCRZ6pq944RpNrPnKdhbqnLIvBZ37wgx/UbNiw4SwrcooAXxWRg0Qktt1BqmsUeE6MeaiupmburbfeuqEkYUOAmXEv88KSn1nI1a6zEBEVS1VWRTV7ZtXUt5e7zkI7VtbF4IsSiURs9dq1I2Htl4y19Va1Xq2tUtWPc7nc+7W1tW9sPrSp4qFtt37pdbs9CMgZrrMQEfWUAusloufUT1n5366z0PZVVDHoK1KThuwpNrIA0MNcZyEiCooRyQH2O/U3vn6f6yy0bdypqsx0XjdsiNjIMywFRNTbWJGoiP421Tz8+66z0LaxGJSR1KRhX8nnZSGgPJiEiHolqCoEP0+1DJvsOgttHR8llImO5v2P9eHNh+ourrMQEZWCqp1eV3Xh5ZpMWtdZ6P+wGJSBdOvQs8TKTCta4zoLEVEpqcpDdYO+fCH3OigfLAaOpVuHjhfonRYScZ2FiMgFI/pk7a4fNWrzxxtdZyEWA6cyLQdcYa3+O1T560BEfZoReba2uuZUTS5Z7zpLX8dvSI6kmodfBcEtrnMQEZULI/p8rcZO4dHNbvGtBAdSzcO/z1JARPTXrOCINLKPIzFqV9dZ+jIWgxJLtQ77IQQ/d52DiKgcQeSr6Y7cf6N10G6us/RVfJRQQumWoT+20Btd56C+Y9PxtyYnQA4qXQrkRKQLql0CzalIFxRdYuHBSExFYgqNQiUmojERRFUQE5GYhfIHCSoZVX2prmrDSTx8qfRYDEok3XxAixUz1XUOKm9GJSMi60RkHUTWieg6gb9O1ftEBOsgZp3Y/Dr1zDoj/jpfoxujyHbBi+Ys0GUjfq5O+nWJRLpkkOT00kW5oLIhkTAiT8VEOmLS9U40ozvFjGpMfY2qSiwPWwMju4rY/gbaH9bvD/H6i9pdRbS/ivaH2P4qpj9g+wtkJy68pe0xoi/XmpqTdOriD11n6Uv4RVkC6dbh11iLNtc5yA0F1qvRdwCsFsVqFfOOQFeL6IcmgnVGI+tyNvNJXbRmnSaXdrnOWyqYGffkxYW7ZLFLfysd/SFV/SGym4q/twgGw5rBqro31A4WK3uwRPRNRuWVWk19Q6e+97HrLH0Fv9BClmk54DIf5jbXOSgcKroRalcrdLUI3lFgtRhvtYi+E4l4q2MeVmtyacp1zkqHxKhYNuvtDe0Y7Puyt6oMtqqDVXSwWAwWNXtDsLvrnBQOo/pcbf+PTuI+B6XBYhCiVMuI81X8e/lstrIpsF5UlovoMjW6XK0sszGzqs70W63JZze4zkeb4GdH13R98sHeORvbT3yMEJGRKjICgpEQGeA6H/WMUXmqtmrg6Zp8utN1lt6OxSAk6dahZwl0Dnc0rAybFunJO4AsV9VlCl3uiywz1d7yuuTSta7zUc+g+fCdOyKZkbC5kbDeCFGMFMgIFexvRT3X+ah7VPFwXdWgMZp8Ou86S2/GYhCCjc3Dv2HULrDQatdZ6K8ZhQV0hagsFZHlYu0yNZHltbutW64/fj/tOh+VFhKjYmmLoSafGwmYkQIZAcVIhY6yIlWu89HfMooHaqsu+DYPXgoPi0HAMtfuf4TNR5+AoJ/rLH2dAhAjbyjwPIx5zhPvuepdP3mBBYB2BIlRsY5851fEN0dY8UYrZLSIHcXZhfKgKrfXT1t5uescvRWLQYCyraNG5eD/AQA35nDAKFYDeE418jzEf66uqvZ57rtOQUHi8NrOrtRhvmC0Qo+AYLRYDOXbEm6o6LT6thWtrnP0RvwNHZD0pBEDxbd/tiL7uM7SFxjBBxA8B/GeN6LPobrrufrkqg9c56K+Bc2H75zWjYeryGiIjFbIEVZkX9e5+goVubK+beUvXOfobVgMAoCb9qxLf7TzHyDyVddZeiuj+haAJ8X4T3q26umatqX/6zoT0dakEvvvYbKx46A40cKeKNBRrjP1Vkbgq5gxtW0r5rvO0puwGPQQZsa99KIX2yHmTNdZehOj8q6IPikiT3oRPFk9eeWbrjMRFSM1acieYqPfELF/JzAnQmSo60y9iRFJi5oT6qYtX+Q6S2/BYtBDqebhv4SAi2B6SBXvK/CkaOTJSKTryarJq15znYkoDJlrh+5l83qiqJ6okBOtYIjrTJVORdZ6Ee/omhuWve06S2/AYtADqdbhP4LFTa5zVCIV/UgUTwvkyaiJPFk1delS15mIXOhoHr6fNf6JwGdFQfd2nakiKZbWV9UewwXHPcdiUKRM6wHnWF9nckVy9ymwWDwzT1Xba29Y9qKqwnUmonKTvW6/4Tm/6mwBGhT4Ol+R7D6j+kTtkPrTgjw8rC/iN7UiZK4deTT8/JPcwGj7jGoXYJ8W0XZPIvO5YJCoMGgdtFtG6s6CRYOoOQWQeteZyp2KnVHf9vrFrnNUMhaDAqUnjRgIaxcBMtB1lnKkKusUsgCetNdFd3mMZwkQBQO3nF6VWfPGSbDSIKJnQzDIdaZypUZ+UD915c9d56hULAYFQGJULJ3NPwXI11xnKSeqskot5iFi59VF9/4j9zEnChcA7Wjd/wirsQaBNAD4iutM5cSo5CFyav20lU+4zlKJWAwKkGoZ+itAv+s6RzlQkRdU9CF4Oq9+yvJXXOch6ss6mofv5xvboNY0idoTeKLrpgXOnsjomrYVb7nOUmlYDLop0zz8cl/wS9c5XDIib8PY+6Je1b1Vk19d5joPEf2tzLVD94IvF0DMt/v6TIICi+tqdjpGk4syrrNUEhaDbuho3v9YK5EnrEjUdZZSU5V1AvkPT7x7q6ct/SPfJCCqHKnm4QeL4iIFzu+rr0EasQ/Wtb1+vusclYTFYAcyiYP3ttnO5wHd03WWUjGqXRA8YhT31gw84BG9ekHWdSYiKh4SCZPOPvANgXxbVMYBspPrTKVkFNfUTXuNe850E4vBdiAxKpbJ+s9YYLTrLGHbdESxPqNi7q2V6Cyd9vI615mIKHhInFCdzq1pECvfVshpfWEm1Ah8qJxWP+21x11nqQQsBtuRbhn+cwt833WOMKnqchV7r4G5j4t0iPoWJAbunu7s9y0RfBuiR7vOEyZVvK9V0UPrkkvXus5S7lgMtiHTPKzRF5nrOkcYjEoekLkQ/UW/thVPuc5DRO6lfjLyQOmy3xPFRb11IyWj+kRt1Xnf1GTSus5SzlgMtqKjedQ+vuYXA9LfdZYgqcoaUf2ViWXuqE2ufs91HiIqP2jbrV963ZfGC+wVEBnpOk/QjNhEXdvrP3Wdo5yxGHwBEidE0tk1f+hNmxipyh9F5Bd1Q/rN5h7iRNRdqZZhfyciV6hIo4VEXOcJghH4xuCkmqmvP+06S7liMfiCVMuwGwH5sescPWVE0hC5V0R/Ud+24mXXeYiocmWuHbqX9eVSgf4DRAa4ztNTKvpenak5VKcu/tB1lnLEYrCF9KQvn468eaSST0xU0RVi7C/rYv1/zXMKiChIuOPwaPrt9Djx7fcgcqzrPD2hqo/VTV1+Bvdm+VsV+w0waJnE4EG2s3YJBCVoIDQAACAASURBVLu7zlKoTa8amnki9t/5Og4RlUJq0rCviLXfU9G/r9STZo3R5rqpK250naPcsBhslmoe+ihET3edoxBG4Ivo7xDzptRfv+xV13mIqO9JTRqyp9jo/xPoZRD0c52nEEa1Cwaj66esfMl1lnLCYiAimdbhl/oWt7vO0V2bdia0v4lEYtOqJ7/6hus8RERoObh/Cl3fV8FVENnVdZ7uUtWX6qq80Zpc2uU6S7no88Wgs+Xg/fOSXVIJ7+0aQYeo/kqrqm6qTb78jus8RERfhMSo+kw2dzmgP6yUhYoqOq2+bUWr6xzlok8XAyQSJt35wNPlvohGVTYI9JdSnfu3+uSqD1znISLaESROqE53rpmgItdYkX1c59keo7DGM8fV3LDif1xnKQd9uhikW4dfYy3aXOfYFlX9WOHfUltdd4sml6x3nYeIqFC44/Bo5q1Pvw2YFkCGuc6zLap4vW63DYfqj99Pu87iWp8tBqnm4Qer4DkrUuU6yxepyFox+q91Me92TS5Nuc5DRNRTm094jIvoJABfcZ1na1T0tvq2FVe4zuFanywGuOPwaPqNDc9C9VDXWbakgk9VdWpt1cCbNfl0p+s8RERBA6Adk4aOs9CpgB7gOs8XGU9Pq5uy4veuc7jUJ4tBumXYTyykbPbKNiI5UbmtVlM/1anvfew6DxFR2HDH4dH0qtRlIvJP5bR/jBH539rqyIF9eba2zxWDbOuQYXkbfalsHiGozopGIq187ZCI+iIkjtwp3flpq4r9vhWtcZ1HRMSo3lw3bcU/us7hSp8rBumWYU9ayDdc51DVhcYzP6q9YdmfXWchInItkzh4b9vZMVlVL7JQ4zKLEfga8Y+uvWHV8y5zuNKnikG6ZfglFrjLZQZVWWnEa6mdtmyOyxxEROVo01bLchMgp7jMocDiuppBozX5dN5lDhectrJSSiX23wPATc4CqHyoIlfWVQ08kKWAiGjr6qesfKl+2spT1TOnqMoSVzmgemgm+94PXN3fpT4zY5BuGXq/hZ5f6vsaQQcM/q1ul3XTtPnjjaW+PxFRpUIiYTKdv/u2qD/ZQgeX+v5GJeNF5KDqySvfLPW9XeoTxSDdMvw0Cywo9X1VsMATc0VN24q3Sn1vIqLeAonDa9OdqYQqfmghkVLeW0V+X9+28rRS3tO1Xl8MkDihOtO5dqkVDCnVPVVkrXjy/fopK2eW6p5ERL1dqnn4wSJ2OkSPLuV91TPn109Z/mAp7+lSr19jkMmu+XGpSoECUJE76qprRrIUEBEFq75txct101Z+3RO9QgWfluq+6vs3IXF4banu51qvnjHIJA7eG9nsCgsJ/RfUCF41ETORh3AQEYUvPWnEQGtxswDxUtxPFdfXT3vtn0pxL9d6dTEoxYJDo+gUmOtr96+/SS9dlAvzXkRE9NfSrcPOEOgvLLBfmPcxik7jRUbU3LDs7TDvUw567aOEjtbhx4RdClTwX14kdlBd24opLAVERKVXN3Xlo7VV9Qeqyk1GJbQ9Byy02s/7/xLW9ctJr5wxQCJh0p0PPAeRr4ZyA5UPFfLD+raV94ZyfSIiKli6edghorjDQo8K7y56Yr+2FU+Fd333euWMQabrge+EVQqMyP31VZERLAVEROWlrm3lktqqC76uBt83go4w7qEqN2Nm3Avj2uWi180YIHHkTpnOda9Z0T2CvK6KbhST/1791Dd+G+R1iYgoeNnWUaNy8B8A8JWgr+2JXlHbtuK2oK9bLnrdjEE6u25S8KUAf45o7FCWAiKiylA1denSukH7H2mAnyuAIK9tRX6Ktt36BXnNctKrikF60oiBCrk6qOsZga+K6+uqBx1XPe3lVUFdl4iIwqdXL8jW3fjaD9R4p6nI2qCuC8HuqU92/39BXa/c9KpHCamWYbcBclkQ1zIibxvJf7umbdUzQVyPiIjcQWLg7ulsv7sBOTuI66noxjpT82WduvjDIK5XTnrNjEFny6gDVOS7QVzLiH2wVvodwlJARNQ7aHLNR/XTVjZ4olcEsTARgn4ZdFwbRLZy02tmDNLNBzxgxZzXk2uo6EYVvbKubflvgspFRETlJXvdgSNzXV33Q/XQnlzHiGRNxBve2zY96hUzBulJow4F9Fs9uYZR/CUSjRzGUkBE1LtVTX51WV1N9Cgj+rOeLEy0IlW+n//nAKOVhV4xY5BqHvooRE8vdrwR/Vlt9YBmTT4d2q5ZRERUftKThp8KiwcA6V/MeKOwEY0eXDV16dKgs7lS8cWgo3nk8Xnxny5mrBHJipiJnCUgIuq7OltGHZCTXLtARxUzXiFz629cOSboXK5U/KOEvPg/LWacir6nxjuBpYCIqG+rnrb09fr+nxytqvOKGQ+VpnTLyMOCzuVKRReDjtbhx4jICYWOMyLPmurM6Nqpy/4SQiwiIqow2vzxxrqpy5tU5YZixkP8XvOGQkUXAx9yXaFjVOU3tXt9+fja5Or3wshERESVSVVRP23ldaJ6rlHJFDTYYmz2ugNHhhStpCq2GKRbRhwO4LTufn7TLobmR/XTVo7Xqxdkw8xGRESVq9+0FbME8nUj0u3XEKGq+Xx+Upi5SqViiwHEdnvaRoH14pkz66ct/9cwMxERUe9Q17ZySW31xiNEpPuL22HP72w5eP/wUpVGRRaD1E9GHigWTd35rKouj8b8I+umrPh92LmIiKj30OSaj+r37/dNFe3WSYpW1Msj2xJ2rrBVZDHQLn8SVHf4qqWqPlZXtfNRVZNXvVaKXERE1LvopYty9W0rrvCMXmYE/g4/rzo+kzh471JkC0vFFYPOllEHiGCHuxwald/VDalv0OSzG0qRi4iIeq/aqSvuUGPP2bT/zbZZIIZs9selyhWGiisGecn/Pyvqbe8zKvKr2qrzL9BLF+VKlYuIiHq32qlvzIUnZ6pKagcf/S4So3YtSagQVNTOh2g5uH9Gsu9YSO22PqMqN9VPW3lNKXMREVHfkWkdeZS1/qMQ2eY3f6PSUjdtZVspcwWlomYMMtr1D9srBUb0WpYCIiIKU+3UZX8Rz5ygKmu2/Sl8D4kTIqVLFZyKKQZInBAR2Cu39s8UgKf2e3VtK6aUOhcREfU99VOWvxKRqmON6Jtb++cWOjidXTOu1LmCUDHFIJ1bM9ZCB3/x7xuVvAguqp32+i9d5CIior6petrLq7Q6c6wRvLqNj3y/pIECUjHFQPy//Q9sFJ2qdlz9ja/f5yISERH1bbXJ1e/VVkePNyLPfvGfAfK1zLWjjnSRqycqohhkWoaMhsjXt/x7qpKCsWfUTn29qNOwiIiIgqDJpZ/UVkdOMqpPfPGfwc/9o4tMPVERxQCI/tV/WBXdaNQ7uX7KG0+6ykRERPQZTS5N1Q7a/wxVfeyv/gH0nMy1Q/dyFKsoZV8MUon99xCR+Gd/bUSyomjikclERFRO9OoF2bqq+nGquvCzv2dFotaXS13mKlTZFwPtil5sRaIim09INLigftrKv5muISIick2TizJ1VdVnqepLn/89yHcwM77djfnKSdkXAwATPv8Lo5fWTn1ttsM4RERE26XJJeu1yjtVBW+IiFjRvTOLXj7Nda7uKuti0NE88nhAhomIGMU1dVNX3uU6ExER0Y7UJZeujUT1m59tggTY77rO1F1lXQx8zX9XRERFb6yb9tpNrvMQERF1V/XklW+KMaeoyjo1clY6MWqA60zdUbbFAIlDdlHIOSq4q75tRbPrPERERIWqn7L8FeN5ZwgkK51dF7vO0x1lWwzSnR0XQrCg7vBDK2o1JxER0ZZqb1j2Z1Ez1qpeBKCiDi8sK+mWA/4Ft5xe5ToHERFREFKThp3b0TryONc5KhISh9ciMaredQ4iIqIgpSYN2dN1BiIiIiIiIiIiIiIiIiIiIiIiIiIiIiIiIiIiIiIiIiIiIiIiIiIiIiIiIiIiIiIiIiIiIiIiIiIiIiIiIiIiIiIiIiIiIiIiIiIiogJcddVVVa4zEG1PxHUAIqLerKmpaTdVPTaXyx1njDnurbfe2l1Evuw6F9G2sBgQEQUoHo/vk8lkjotEIseJyHG+749UVTXGiIiIMWa124RE28diQERUJADa1NQ0UkSOE5HjAByXzWb38TxPAIiIiKo6zUhUKBYDIqIiNTU1tQM423UOoiAZ1wGIiCpYjesAREFjMSAiIqLPsRgQERHR51gMiIiI6HMsBkRERPQ5FgMiIiL6HIsBERERfY7FgIiIiD7HYkBERESfYzEgIiKiz7EYEBER0edYDIiIiOhzLAZERET0ORYDIiIi+hyLAREREX0u4joAERERheOYY47pt8cee9R/8MEHqYULF27szhgWA+pz4vG4l0qlRsVisVEiMtJaO1JEBqlqDECVqsZUFSKycfP/1ltrX1fVZblcbml9ff1Ls2bN6nL6L0FUgS688MKd0un0CGvtvsaYnQD0E5F+qhrL5/MbPM/boKobAHwaiUReO+igg95IJpPWde5KMGbMmD2stWeIyGgA+wP4sjFmXwAx3/dlt912k7PPPvva+fPnT9nRtbQEeUVEJB6Pfymbzd5T6DhV/bS9vf3CMDJtKZFImMWLF+9U6Lj6+np73333bQgjU7HGjBkz0Pf9nxQ6zlr70cMPP/xPYWTa0vjx46szmUxtIWNmzpy5bvM366Js/gPpNGvt2SJyhojsWuy1AKRV9SlV/b2IzG1vb19d7LV6qqmp6fB8Pj+8mLHGmE/mzZv3WNCZghaPx2Misk+Rwz+dNWvWh939cFNT0+EAqgq4/s0AjigkkKq+53ne1wsZsyOzZ89+O8jrBSGRSJglS5YcAeBUETleREYBGFTgZTIi8qqqvgzgv/r16/douf15uzXxeHyI7/u7d/fzvu/n2tvbFxdxn507Ojomep43DsBo2cHyAADdKgalnDGoEZEzCx1kre32F3VPPPvsswdGo9GXCh23cePG10VkaAiRimat7S8ilxc6zhjzpoiEXgzWr18/EcDNhYxpamoaIiJvFXqvcePGfSWfz/8olUp9C0Cs0PFbo6p1InImgDNF5OcNDQ0LfN+fXltb+8isWbP8IO7RXdbaAcaY+4odHo/H95k1a9a7gYYKWFdX17cA/KaYscaYi0VkRnc/b62dLcWXkG4BMCifz78V4PUgZbRe7IwzzjgxGo1OePHFF88Qkf49vFytbPoJeLSIXJJKpboaGxufVNVZO++8830zZszo7Hni4HV0dLQYYyZ29/Oq+rGIdLtInH/++XumUql/zGazV2yeeSkq57aUzW8m6jsArC90jDGmvpDPjxkz5oTGxsbHcrncEgAXBVUKthZNRM70PK+9q6vr1cbGxnNCus9WHXbYYQtUtdgZC5PNZi8KNFA4zitmkKpu7Nev338EHYb+1jHHHNOvsbHxR2efffbKSCTyBIALpeel4G8AiAE41Vp757p1695qaGhoicfjOwd9n57yPG9dGNcFoGefffYVqVTqDVVtEZGCZ7m7g8WASs5aW/AXzeZnkTs0ZsyYPRobG+/zff+pzVOYJQNgOIBZDQ0Nz44dO3Z0Ke6ZTCYtgOk9uMT4wMKE4IILLugP4JvFjAXw4G9/+9t00Jno/8Tj8VhjY+PVu+666xsAblLVUs6e7ikiU7PZ7NtnnXXWZQBK9mi8GwIvBo2NjYObmpr+U1V/sXnWMjQsBlRy0Wi04C8aVd3hjEFjY+N3fN9fBuCC4pIFZnQ+n/+fs84666cTJ06Mhn2zTCZzt4jkixw+orGx8agg8wQpk8mMFZGi/huq6l0Bx6EtNDY2npHNZpcDuFlVv+Qwys7GmNuampqePu2004pabxM0VQ20GGz+QeNFACcHed1tYTEgFwp+lGCt3WYxGD9+fHVjY+ODAO6WHiwqDFjEGPOT999//09jx47dO8wbPf744++JyLxix1trLw4uTbAAFPsYYWl7e/tfgs5DIhdddFFdY2Pj7QAeEZEhrvN8BsBxsVjshTFjxox1naWYWdFtOeOMM070ff+/AewW1DV3hMWASk5VCy4GIrLVYhCPxwesW7fuaQDf6mGsUAA43Pf9Z5uamg4P8z7GmDuKHauq37rqqqsKWYlfEvF4/EsicmIxYwFwtiAEZ5111iEbNmxYAuBS11m2oTafz/9HY2Njs8sQxphPg7hOY2PjyZ7nPdrdR6lBYTGgkrPWdhQx5m++MBobG0d1dXU9KyJHBhIsJAAGWmv/0NjYGNqahzlz5vyXiLxZ5PD+q1evbgwyTxByudw5ALxihnqed2/ggfq4xsbGUz3P+yOAL7vOsj2qqgCmNTY2/qurDNbaHr8t0djYuB+A36lqdRCZCsFiQCXXr1+/gr9oPM/7qxmDeDy+D4D/BDA4uGShqhWROWPGjDkhjIurKlS16FkDAGW3CLEHjxEenjNnzgdB5+nLGhoa/gHAwwH+5JpR1UWq+ltjzGRr7XQAC0TkFREJZJ8CAD88++yzJwVxrUIZY3pUDMaPH19trX1IHD0a5c6HVHKdnZ0Ff9Hk8/nPi0FTU9Nu2Wz29yKyV6DBQgagxlo7v6mp6eS5c+c+G/T1jTH3+L5/vRS3WO/UeDw+YNasWWuDzlWMk08+eRCAY4sZy8cIwWpoaLhERHry5ouIiAB4QVV/E4lE5j/00ENvbmvDskQiYV566aXjfN//lqqOA7BHsfdU1RsaGhrWzps37+7ikxcum812RKPFrztev379NFX9aoCRCsIZAyq5zZsAFbSK/rMZg6uuuqpq86KnEcXeHwBU9S1VnS8iU40xF3ied4ox5hwRmSAiUwE8rKprir3Hdu7dz/f99ng8PiDoa8+ZM+cDVZ1dZC6vo6OjbPY0qK2tjUsRfz6p6pqqqqqy382xUjQ1NY1T1aJLgaqmRORGVT1w/vz5h8+bN+/m2bNnr9reLqbJZNLOmTPn6Xnz5l0Ri8UGicjpIlLw5nOfAfCL008//eBixxejtra26BmD0047bTiA7wWZp1CcMSAnVLUTQCGbFvUTEfnf//3fyQCKfb1umYj8JhqN3jt79ux3dvRhADpmzJiv5vP5Rs/zJhSxnetWqeqArq6u3yUSiZOSyWSxrxluVS6XuyMSiRS1ENMYM15EbgoyTw8U9e8A4Nc92X1SVc81xnT7mW4+n3+k0HfKVfVj3/evLjzd1kUikWC3vdusoaHheAD3F7nOQ1T1/nQ6/ePNb80UZfOv5WPxePy/urq6vgfgpyJS0IZGqlodi8UenDhx4ujp06dnis1SiHw+X3QxqKqquhFAYN+bAcAYYwv5dWQxIFeyso03DbYGQP2ZZ555HIAfFnKTzV8U93qed+vs2bOfK2Ts5p9qFonIookTJ17/7rvvnhuJRJJBLL4CcPwLL7xwvYi09vRaW3r00UefbGxsXAlgWBHDDzz99NOPWLBgwfNBZirU2LFj983lckerFr5fTTQaLfg8li0V+opjQ0NDMSUk8/DDD99fxLiSOf/88/fMZDIPFrlj6Cu+71/xyCOP/DGoPJsLwi3nn3/+7zKZzN0AzihkPIBR77333g0i8oOgMm1PbW1tVzpd+N5aY8eOPTqfzzcUcUsrIn9S1acArMrn82/W1dW9FYvFPr733ns3qiri8Xh9dXV1t0okiwE5AaCgn5QBDPQ8b4YUML2sqs9HIpGrZs+e/eeCA37B9OnTcyJy31VXXfUfb7/99o9F5DoR6dErfsaYHzc0NMycN2/eiz3NtyUAd4hIUSuyY7HYxSLitBh0dXWda4wpuBWo6h8eeuih18LI1JckEgnz4osv3iciAwsdC+DhXXbZ5bywdpx84IEH3k8kEo2LFy+eUehGZsaYK8eMGTN9zpw5y8LI9gVFzVr5vj+hkM+r6vO+799VU1Mzd1vrg+67b9NRKrNmzUp197pcY0BOqGpBXziqeoJ0fzOVDSIy8dBDDz0qiFKwpVtvvTU7b968yblc7lhVfasn19o8tXdHIpEI9OvQGDNDNs3IFOO8zacZOuN5XlGPEVS1pAvMeqslS5Y0i8hJRQy9rbq6uinsbaiTyWT+0EMPvQjA7QUOjfi+//NQQn1BoX++iYjE4/EaAOd28+PLjTHntLe3j3744YdvD3rRMIsBOQEglDPWVXV1Lpc7dt68eb8K8xz3BQsWPB+LxQ5X1Zd7eKnRS5YsCXSzmLlz534sIrOKGQtgt1wud3aQeQoRj8cPAFDwZlA8MCkY8Xh8CICCj2wHcO28efOuKNXposlk0s6fP/9yVb2zwKGnhPXK8JYKLQYAIl1dXVfLjg9Fyqvqj6uqqg6aO3fuQ8Un3D4WA3Il8D9AVPXFdDp99IIFC3r6zbpbZs2a9UksFjtFVd/oyXUAXDd+/PhANzGJRCKF/jS1ZR5nexp0dXUVu+iQByYFIJvN3gqgpsBhv54/f/6UUALtwJ577vl9AAU9PrLWXhNWns90dXUV+kPJzgCmbe8DqvqBqn6zvb39X8IuYCwG5ASAoH9jPxGLxY7vyQroYsyaNWttLBb7pqoWfV8Ag9avX/8PQeaaPXv2QhF5tcg8p48ZM6bod8d7qKhiEIlE+Bihh84666yzReTMQsYAeKF///6XhxRph6ZPn56JRqN/X8hP6ADOGDNmzEFh5pLgf/BZ7nne4e3t7U8FfN2tYjEgJ1Q1sGl+AKvq6+vPKWRxTZBmzZr1ZiQSOUV6tmNbS9DP9nuwE2LE9/1vB5mlO8aMGTMSQMHvm6vq0qDXkvRFnuclC/m8qn4cjUbHzpgxo8fb//bE5l/77f60/UW+74d61sOAAQOC/PNtraqe3p1XrIPCYkBOBFUMAKTz+XzT/fffH/j554V46KGHXlXV64odD2BQV1fXmCAzichvVbXgcyk2K/njBGttsVsgc7aghxoaGs4EcFghYwC0zp49++2wMhWivr7+RgCFPEo6L8wj0deuXRvI3hKqmopEIme2t7e/FcT1uovFgCqaqn6nVGsKdiQWi/1SVYt+9RBAQa8q7Uh7e/t6EXmwyOFfaWhoKOgbRQCKeYyQU9XfBp6kj1HVghYcAnjtsMMO69GeEUG67777NgC4r4Ahu7/77runhxYoOFfNmTPnhVLflMWAXAmiUT80b968olbfh2HzgqDLART17wbg5MbGxv2CzKSqRS9CVNWLA4yyXY2NjYcCGF7oOB6Y1HNNTU1HFrqbqOd5iaB37ewpz/NuK/DzQc/QBUpV/2fu3LkzXNybxYAqVd4Y4+TktO1pb2//SxGvUInIpuNiVfX8IPPMnTv3WQBLihkL4IIwp1u3ZK0t9m0EHpjUQ77vf6fAIa/MmTOn2Jmo0LS3ty8WkW4fTqaqoR2D3r9//x794LN5MeX3tnemRJhYDKgiAbhz7ty5K13n2BpVnVLsrIHv+wVt9dodxpiCfpLawu7vv/9+QavUe6C7G7t8jgcm9dz48eOrCy2j1trfuPqGtSOq+ofufhbAwLPOOuuQMPMUC8CszUXHCRYDqjiq2lFdXV3QCupSam9vf0tVnyhmrDHmaxdccEH/IPN89NFH928+5a5gpdjToKmp6UhV3b/QcdbaGaXaUKe3Wr9+faMUeChRPp+fF1KcIBR6CuPXwgjx4YcfHtCT8cYYp+s3WAzIiWJ/ot7skaC3AA2aMaaoKW4AXiqVCnSKc+HChRtFpJCFWVs68/zzz989yDxfBKCoxwixWIxvI/RcQbtcquqKxx57bEVYYXrK9/2CioHneaEcx5zP5wt9PLOldw455JDHAwtTBBYDqkRlv/XtzjvvPEdEin2F8utBZhERMcZML3JoNJ1OXxhomC0AUBGJFzpOVf/IA5N6JpFIGACFltD5oYQJSE1NzTIR6faiSGvtV0KMUxRVnRnmdu7dwWJAFQVAZywWe8R1jh2ZMWNGp6o+UOTwIwINIyKbX3kq6Njpz6hqaI8Txo0b93UAgwsdp6pcdNhDL7/88uEiUtBskLW2qIWspTJr1qwuVc119/PGmLB3QCyY7/uLXGdgMaCKYoz5T1c7HBaq2HUGqnpoPB73gs4jIkW9ugjgsHHjxoXyk1U+ny94UyMemBSMXC73zULHRCKR1WFkCZK1ttvnjgDYpbGxseBiGqaqqirn5YvFgCpNt19Hcs0Y85dixgGosdaOCDrPgAEDHhSRT4sZm8/nLw42zedT2ecUOo4HJgXDGFPwzJSqlnUx2PyWhRY4LJR1BkXKHnTQQc7XcLAYUEVR1VWuM3TX7Nmz3yn2cKXOzs4vB51n+vTpGREpdpfACxOJRCTIPM8999wJqjqg0HE8MCkYAL5a4OfheV7J9usvRiaTqS10jKruHUaWIr1eDhtHBfqFTlQCPTri2IG/iEjBO6xFo9F9QsgiuVxuejQavbLQcQD2WLRo0ekS4OIzY0wxZyMs44FJPRePx3fNZrP7Fjquq6vrzcbGxjAiBSKbzRb8CC6fzxf0umbIXncdQITFgCpPRRUDAM9KEcXA9/1QisGCBQtebmhoWCgixxQ61hgzXgIqBolEIvLiiy+OLSIDFx0GoKurq+A1I6qqAAaFkcelSCSyk+sMn7HWlkUx4KMEqhiq6s+dO/dj1zkKYYwp6pU6VQ1tQVSxxzGr6tnxeHzXIDIsXrz4JClwRbzwwKTAqGrBswW9lbW2bGYMPM9713UGERYDqiA93BTJia6urk+KHLpLoEG2vPAuu8wSkYJzAYjlcrkLgsgAoJi3EXhgUkCstWW1Et+xspkxAFDU4uCgsRgQhSgajRa1yRGAmqCzfGbzHgtFndoWxBbJ8Xg8pqpNhY5TVS46DAiLwV/p5zrAFja6DiDCYkAUKs/ziioGqlrw6upCRCKRonZCBHDEuHHjDuzJvTs6Ok4FUNCMiKquiUajC3pyX/o/xpi9XGcoI2XzfRBAWezRUjb/QYh6o/fff7/YRwmhFoOHHnpouao+VczYnu5p4HlewY8ReGBSsADUu85Af6tcTq1kBUfZnAAAIABJREFUMSAK0cKFCzeW69oIAEUtQhSRC4vdmTEej9eISEOh43hgUrBUNbRHVVT5WAyIQlTkTmwiIpnAw3xBVVXVbAAfFjoOwMCurq6iToDM5XJnFPrTKg9MCkWoM1JU2VgMiEK0YcOG/sWMAxB6Mdh84ExR575ba4tahFjM2wgiwtmCgAFgMaBtYjEgClexrx2GXgxENh3HXMyjDlVtvOCCCwoqPfF4vF5EzizwPht32mmnWQWFox0yxnT7oKHPqOp69ELl8ly/nHDnwx4qcpo4VJFIRHO5bp88SiFCgavvP6OqJSkGc+fOfaOhoeFxESn0pL2qTCZznojc1t0BuVzubBT+GubveGBS8AAUXAwAvDN//vyiZsCosnDGoIcAVLnO8EX5fJ4NuEwAKPZRQsHP/otljClqESIK3NPAWvutQu/heR63QA5HMTMG2TCCUPlhMeg5PqujbfJ9v9gZg7eDzrIthxxySDuAtYWOA3DUuHHjunU8dDwe31lETivwFjwwKTzRIsbw+0UfwV/ozaqrq4v9Kbsu0CABiEQiZfd4o6/yPG9YMeOMMSUrBslkMl/s4UTd3dMgl8s1iUhBs2s8MClUxWy9W+jZFlShWAw2M8YUO01WVew73WHprY8SAHgAKq30jC5mEICSFQMREc/zfiUitoihF3Tn1wRAoScp8sCkcH1U6ABr7ZfCCELlh8VgMwAdxY597733yu1xQsx1gDCoqjY1NZXNSWjdYa0tqhgYY94MOsv2zJ49+21VfazQcQAGjxs37uvb+8xFF11UZ609pZDr8sCkcAEouBioanU8Hg/lOHAqLywGm1VVVXUWO3bQoEF7Bpmlp4wxvbbZx2KxilkVPXbs2H1VtZhfi/fnzJmzJvBAO+D7/u3FjMvn89tdVLhx48bTVLWgxW48MClcxpiC15SIiOTz+cOCzkLlh8Vgs0gkUvSMQWdn59Ags/RUPp8vq6ISpK7/396dh0dV3f8Df3/OnSUbIosoWqoiAuIGYv22tS602rqRgDS2uACxra1t7fq1BLQd04qAtn5brbVaK+BGSwQyCNrFSl3QuiC4FARXxLqWRcmEzGTu+fz+MPSHlCUzmZlzZ+b9eh6eR0juvW8hybzn3HPPSaX6u87QVel0+rhsjhORJ3KdpSsqKyvvBfBGpsepan0sFtvlzxJVHZvJ+bhhUkE8m81B2Y6AUXFhMeg0cODArcjuHiuMMYEqBp7nlWwxUNUuzYIPAhH5ZDbHqaqTYtDc3Oxba2/J9DgR2e/ZZ589YWcfu+iii8KqelYm5+OGSfnn+/7KLA/NaIEqKk4sBp2ampqsiGQ1vKaqgSoG1tohrjPki4gc5jpDV9TX13uqmvFz+wBgjHFSDACgsrLyFhHJ+EXZWrvTyYXvvvvuKAAZzQvxPC+rZZqp6zzPy6oYqOpwzjMofSwG21HVjIdRO2X1SFoeneE6QB59znWArmhvb/88gIz3vFfV9h49eizLQ6QuaW5u/peqLs70OFU9e2dPJ/i+n+lthIdbWlrWZnr9YhKEJ2vi8fh6ZHHbCABSqdQFOY5DAcNi8FFZfaOIyKcuuuiibBYMybm6urrhyOIFqVio6ojTTjst8CMiIvKVLA+9PwBLAGczCfFjY8eO/cj9Z1UVY0xdhucpqkmHIpLN933Gqw7mQzYFsPO4i2OxGJfTL2EsBtsRkayKgar2eOONNz6T6zzZyPR+bjEKhULZ7NBXMOPHj+8LoDabY40x8RzHydiIESP+IiKvZXrcjqMDY8aMOU5VuzxZtNg2TKqvr49ksfcDEJDVUo0x92R56AFPP/10oL8HqXtYDLYjIv/M9thwOOx8+P6SSy6JAvia6xz5ZoyZGJQRmp3ZsmVLA7JbctZWVVVl+8M6Zzrn29yc6XHGmI+UIRHJqKSq6h8CMFqSiazW1FDVyiDcTth7770fUNWs/r5F5MqJEycGYuSDco/FYDvJZPLpbhzuvBi8/vrr3wSQ9cQgEXk4h3Hy6eB33nnnG65D7Mz48eP39TxvapaH/2Xu3Lnv5DRQliorK28FkNEWnao6rL6+ftB2v8+oGGS7mZMroVAoqxVGRUTOPffcfrnOk6k5c+a0G2PmZnn4gZs3b/5hTgNRYLAYbGfQoEHPIcMfhtuo6rAzzzxzp49sFcLxxx/fQ1WzfUHaZkNOwhSAtfbHxx9/fA/XOXbU1tZ2bbZbLRtjbsh1nmzNnTv3HRHJ+LZGMpmsBYD6+voDVHV4V48TkeUtLS3LM72eS91Z+ySZTA7a82fln+/7v872WFX98bhx447KZR4KBhaD7Vx//fVJEXk+2+M9z4vlMk8m+vbt24Qy2uRERPbp27fvFa5zbK+uru4UVT03y8NfPfroo+/NaaBuEpGMJyFuu32wdevW0Zkcp6pFNVoAfLj2STaPdgKAtTYQxWDx4sXPqOojWR4eTafTc+vr67OZZ0EBxmKwA2vt/d04/HN1dXW7XTc+H84666xzVfX73T2P7/vO73tmwlr7/bq6ujGucwAfzu+w1v4m2+ONMTc0NTVltcBWvixcuPABAC9lcoyqfub444/vISJdnnwpIlui0Wi2Q9rONDU12WwfcVbVT+U6T7ZCodDPsz1WVYclk8nbd7fyJRUf/mPuQESyeoRnOzMKudvi6aeffqyIlOX2tCIiqjpnzJgxTteRiMVioXXr1t0pIlktdCUib/br1+/GXOfqLhFREcn0nXy4T58+Y0Xks109QFXvaG5ubs3wOoGgqq9ledxpOY6StYULF8a7MWoAAONWrlx5Xc4CkXMsBjsYMWLEoyKyOdvjVfWEVCr1i1xm2pVx48YdHg6HWzLdoKbE7KWq99TV1Q1wcfFYLGZWrlw5B8C4bM+hqlfcfPPNbTmMlTNVVVWzAWS6JflVAKJd/eSOjo7AlaKuMsZke+vxwNra2sBsSOR53g9VNevt2lX1W7W1tb/hyEFp4D/iDpqamtKq2tKdc6jqd8eMGZPtAjddcuaZZ9am0+nHkMPFjDzPK8qvB1UdrKqPjh07tqDLJauqrFy58nfdmFcAAKuj0WhgF/WZO3fuv0VkfoaHZfI1uey+++57LsPzB4bv+49me6yIdHeycM60tLQ80Y0nFLa5eOXKlXdfcMEF1TkJRc4U5QtBvmUz6WpHqvqbfJSDWCxmRo8ePdUY06KquZ6VX7BbIHnwMWvtw7W1tScW4mITJ06sGDNmzO9V9cJsz6GqKiLfDPqGQfmcGKiq3f5ecykSiWS9fLW1dtzpp59+bC7zdIeIfEdEurXdt6qO/eCDD5aPHTv2mFzlosJjMdiJeDz+uIis6M45VDVirb2lrq5uwZgxY/rkIteYMWPOWrly5UoRmSYiOZ8oaK0t5mIAVe0DYGltbe119fX1Nfm6zrhx4w7fvHnzE6ra0J3zqOqv4vH433MUK28WLVr0EIDVeTj1vw866KCiWelwZxYsWLBORLIaNRARiUQiC8aOHRuIrcRbWlo2iMik7txSAABVHWKtfeyss876qevRg1gsZs4444xRdXV1t9bW1nK1xi4qWDEothnvqvrLHJ1nrKo+V1dX9/36+vr9Mj2+vr4+UldXd0ZdXd0ya+09qnpkFw+9PtNrGWNKYf1zA+CSZDL5/JgxY8bl8p7nmDFj+tTW1l7X0dGxIoN/h115oU+fPlNyEqwwcj5qICK/v/766zOdvxBEWe8GqaoDfN//y9ixY4/IZaBstbS0/EVVf9Xd86hqxBjz4w8++ODFMWPGXFToVRLHjRt3VG1t7cwVK1asC4VCD6hqg4h8vpAZilnBXgiKrRiMGDHijpUrV/5vDl4A0Lle/LWpVOqa2traB4wxf1TV1QDe/PjHP/7Wth+OsVjMPPvss33b29v3jUajx6nqmalU6lRVzfTd75O9evX60aZNmy7J8LiiHjHYwYHW2rtXrFjxal1d3fU1NTW/v/POOz/I5kTjxo07KpVKXayq5wPo9kiEiGwxxtTPmTOnvbvnKpSamprbEonE9Cz3BtgZ63le0U463F5NTc281tbW67rxd3OEtXZ5bW3tL1Kp1Jw//elPa/Z0wPjx4/u2t7cfZa1NxOPxx7O87k6NHDny0hUrVgwD0O0XUlXtr6o3bd68+ara2tqbw+HwnfPnz8966fldXEO++MUvDkulUicZY0601p7U0dGxszdhx+fyuqWsYC/W9fX1ByeTyVcyPU5V37vnnnucLB86evTo00Uk74vOiMgGVU2LSF9V7daLs6q2RyKREfPnz3+hrq7ug0zmIYjI7fF4fEJ3rt9VtbW1qwEMzfCwtIjMy2ayn6q2G2P+AWCpqv69urp61eDBgzfuuHZAfX19xFp7aEdHxzAAJwI4DUDOFqMREV9Vz1q0aNGfcnXOQqmtrZ0NYGIuziUii+LxeKY7LwZWbW3t7QDOz8W5RGQVgDWq+jaATSJSba2tAdBDRHqJyOGqun/np9+4aNGib+biuts7/vjje/Tt2/ehTFav7CoReVlV7wXwVEdHx4qampqXmpubd7mKZCwWC61ataoCQGUymfyYiBwiIgPT6fQhxphDAByNLi7uFo1G+zU3N7+Xm/+TXRs9evTVInJpFoeeHoSfDQUbMbDWFt0w9T333HNfbW3tfHTjUbSu6Lw3jm7e2oOqqrX2q/Pnz3+h8/ebAHS5GKhq4B973GuvvS56//33RwDI6AkEEalQ1ZMBnAwAiUQCK1assKNHj95gjNmkqlEAe6VSqb26W872kOOSeDzu/Bs/G8aYm6y1uSoGgVn+ORc8z7vJ9/2cFANVHQZg2Ha/x/ZTirb/OSEiWW3ktCfLli3bMnbs2DN8318G4OBcnltVDwFwCQCEw2Ekk0mMHj06ISL/BgARiXR+P1YAqFixYoXZ4XioKozJ/C5hOp3+NADnO5gGXcHmGGRbDEw2//o5FI1GLwLwL5cZusoY86MlS5bcue33ncWgy3I4TJw3t99+e0JEvigiuVgQx4jIPqo6GMCBAHrlqxR0PoHwnZaWlqIdPm9paXkMwLPdPY+IrFm4cOFfcxApMBYuXPiIiPyx0NdV1bwUAwBYuHDhW21tbZ8BkPUy8V0lItX48HvwwM5br73x4fbUOf35n06neTuhCwr2otve3p7tiIHTjXKam5s3ptPpC5Dl5kqFIiL/F4/HP7K0qTFmY4bnCMQ+8XsSj8dXpdPpM7LdMrbQRMQ3xnwlHo9nPCE0aHLx6KKqXi8i3RseC6BEIvEDEdlS4MtmtWFXV91///1v1tTUnAgg68cyg8QYw2LQBYV8N97lldC2p6qRiy66yOkL1r333rvUWtvtx3jyRUSa4vH4D3b880xHDAAEfsRgmyVLljwsIoEvByKyWUTGxOPxrGeuB0lFRcWdyHwlxO29H41G5+QqT5Dcf//9bwL4SYEvm7cRg23uuuuuTdFo9FQAd+T7WvmmqiMvueSSrF6LyknBikFFRUXW9683bdrUK5dZsrF48eK7ROSSIJUDEUmp6gXxePyKnX08i1sJRTFisM2iRYseMsZ8vruLsuSLiCyPRCLHtLS0dHf/jcBobm5+H0DWcyRE5NZi3RehKyKRyPWq+kyhrpevOQY7am5u3rpo0aILAEzM0W08V6Kvv/76SNchgq6QIwZZvxu11uZ1uKyrFi1adIPnefUikvU+7Lmiqq94nvfZe+65Z5ct3hiTUTEwxvTufrLCisfjj0YikWNE5GHXWbbTISIzP/7xjx/f3Nz8quswuSYiD2Z5nA+gpDfbaW5u9sPhcJ2IFGqZ54L+bFy0aNFtIjISwGOFvG4u+b7P2wl7UMjJhyWxfnZLS8v8VCp1IoAXHEWw1tpf9u/f/8gFCxbs9r6ftTbTEYOcrNBYaM3NzW8PHz78syLyU3RvmLvbRGSp53lHx+PxxhJZvOe/iEi2z6EvjMfjr+UySxAtWLBgXSQSKcjsd2ttTaE3LmppaVkbj8eP73wKoygmZm+jqolQKBSo7c2DqJBfUFlPIvR9P1ALwdx3331P9erVa4SI/FxEUoW6rog8LCKfXrx48fe7shufqmY0+RBAVX19fdHMM9heU1NTOh6Px0Kh0DARWVTo66vqIyJyZjwe/+zChQvzsXxwkGS1k6XneQXZdTQImpubW+Px+FhjzJXI48RlEZGVK1fula/z7+a6umTJkjt79uw5xFp7BYB/FzpDBjpE5B4A4/v379+vpaWlbL4Os1WwtQVEpGe2t+dbW1udD93vqHPVukvr6upuAHAFgHMBhPNxLRG51xgzfeHChRntme553qZM/8593+8D4I2MDgqQBQsWvAKgrra29kQR+R6A2nw9gth5S2mRMebXmf7bFDPf9z+f6VYdIvLoggUL/pGnSIHU+eTFj88+++xZvu/HAJyXj69Fz/N6Ash6q/juuP322xMAmiZOnDhz06ZNF4jI9zrXYXBKVdtF5FFjzB/D4fDdzc3Nmb5JKmsFKwbpdLpftksS9OvXL3DFYJvOodFJ48ePn5xIJBpE5EuqehS6ORqjqs8YY+aHQqHmbQsWZSoSiTyWTCYvyuQY3/eLeWLRf3Ru/PPQ2WeffaDv+19T1dEAjsrBqTcCeEhEFkQikYWlPJFuZ8aOHdvf9/2xmR5njLk6H3mKQWdZnThu3LjpHR0djSJyuqpmvZqrqqox5hkRWWyMWTJ//vzX87CnWkY63yj9TlVvGTNmzHGqeraqjhWRQwtxfRHZrKrLADwSCoUe9jzvyebm5oKN5u6opqbm6q1bt96S6XH9+vULxJuygn011dXV/VZVv57pcSKSGj58eOWOS9cGWX19fc9UKnW8tfYEETkBwEEi0ntXCwiJyGYAz6nqMyLyjIgsbWlpebmwqQsr2yWRFy1alPWozCmnnLJ/VVXVaSJyTOeiRkMAfAz/XeLSItJqrX0PwEvGmBdF5AXP85bdfffdz5XiM/hdVVdXd42q/m+Gh62Ox+OHl/Pf2/ZUVUaPHn1UKBQ6RVVPVNU+IlKtqjWdC/1AVX0RSVtrNxpj/gXgTXy4TPLyDRs2rFi2bFmh10vISl1d3TAAnwZwbOevI1U1ks25OievrgfwauevV3zffzUajT5/xBFHPF9MrxFBV8hisEBVM36nISJr4/H4kHxkKrT6+vpK3/f7qGoPEWnzPG8LgFaXzdYVF8VgVzrXYg9HIpFw7969k6U6abC7xo4d299a+3KmK2SKSEM8Hp+dp1hURGKxmFm1alWf1tbW/SoqKvaz1vYE4KfTaT8UCqWNMR0AUiKSVNUUgJSqplR16/Dhw99qampKO/5fKAsFu5WQ7dCZtbZk3jl3bhQSiKEi+v86f9ikAQT2llUQ+L4/FZk/dvzq8OHD74jHuTw9AZ3v6t/r/JXRI538Giqcgj2V0LlxRsaMMRnvyEhEuVVfX/9xEclovkqnK/kuj6i4FKQYnHfeeXuJyM72x94j3/fzvoEHEe1eMplsyvTesIi8PGLEiNvylYmI8qMgxWDjxo2Dsz02HA6XzWNgREFUV1f3BQCTsjiUowVERaggxSASiRyZ5aEbFyxYkO0qa0TUTfX19T1VNePHrgC8FIlEbs95ICLKu0LNMTghm4NE5BE+4kTkTjKZ/BU+fKQzUz9rbm72c52HiPKvIMXAWntSNseJyF9znYWIuqaurm4MgIlZHPpsNBq9M9d5iKgw8v644rhx4w7t6OgYmOlxIuJXVlY25yMTEe1eXV3dcABZ3QpIp9PfW7RoEUcLiIpU3kcM0ul0Nu84AGDp3Llz38lpGCLao/r6+gNUdbGq1mRx+IJ77713ac5DEVHB5LUYxGKxEIAJ2RyrqnNzHIeI9qC+vr6mvb19CYADsjg8GY1GM10umYgCJq/F4JlnnvmaqmazResHPXr0uDvngYholy644ILqVCq1UESOzvIU1zY3N7+a01BEVHB5Kwb19fU9rbWxbI5V1ZvuvPPOD3KdiYh2rr6+vvf7779/v6qekuUpXo9Go1flNBQROZG3yYfJZPL3APbN9DgRSXme9395iEREO1FfX39AKpX6C4Bh2RyvqhoKhRrKbQtqolKV82IQi8XMypUrf6qq47I8xW0LFy58K6ehiGin6urqhiWTyfsAfDzbc4jIrxcuXPhADmMRkUM5LQZjx47tt2LFijsAnJrN8SKy1fO8K3OZiYh27swzzzzPWnuTiFRnew5VfbF///6NucxFRG7lrBiMHTv2s9baOwD078Zppi9YsGBdrjIR0X+rr6+v3Lp16y+NMdnslvgfIuIbYybefPPNbbnKRkTudbsYnH766cdGIpGf+L4/ujvnUdVXevXqdU138xDRrtXV1Z2RTCZ/bYw5uLvnUtUfxePxx3KRi4iCI6tiUF9f76VSqROstT8SkdNVu7+dgYh8Z86cOe3dPhER/Zf6+vqDU6nU1ar6xVycT0Rujcfj1+biXEQULF0qBhdddFH4nXfeOQDAKGvtaclk8lQAvUQkVzluXLRo0ZJcnYyIPjRmzJhDVHVqMpmcgBzdOhSRhyORyMW5OBcRBc8uf1CMGTPmh9baBhHZ76233uotnS0gh2Vgm2d79er1g1yflKhcxWIxs2LFis8DuNBaOxa5nWT8alVV1dlz585N5fCcRBQgu/uBEQFwuKrmowwAAFQ10dHRcQ5vIRDlxplnnnnCihUr7kJ2WyXvloi87Hne5+bOnfvvXJ+biIJjl8XAWvtSPi8sIm+FQqH6e+65Z00+r0NUTsLh8DvW2pyXAgCrE4nEKffff/+beTg3EQXI7pZEzlsxUNVHIpHIMQsWLFiWr2sQlaOWlpa1yPH3roisjEajJ7EUEJWHXRaDHj16vJyH6yVF5PJjjjlmVHNz89t5OD9R2bPWLs7VuUTkzwBGNTc3v5ercxJRsO2yGNx5550fqGoufxgsC4fDw+Px+LSmpqZ0Ds9LRNvxPC8nT/iIyMzhw4efEY/HN+fifERUHHY7W1lEXgKwT3cuICKrAFwej8cXduc8RNQ1kUjkoVQqtUVVe2RzvKomPM+7sKWlZV48Hs91PCIKuN1uu9xZDLIiIo9ba88bPnz4kSwFRIXT3NycUtW/Znn4MmPMcS0tLfNyGoqIisaenm/OqBiIyLu+77eEw+GbFi5c+DQALF6cs9udRNR1SwCcncHn/xvA5Hg8PktEur+UKREVrd0Wg3Q6/bLnebv8uKq2i8hyAMs8z7vnqKOOerSpqcnmOiSVHhHZaK3NaA6LMYZzU7ooGo3e297errLnRUjS1tpbKysrpzQ3N2/M15olRFQ8dvtTYOzYsUf4vn+tiGy11rYD2Cgi6wC85nne2n322ee5m2++uaMwUYkoE3V1dU+q6rG7+PD7IvK7SCRyfXNz8+sFDUZEgbbbEYOFCxc+D+DzBcpCRLm1BMBHioGIrFHVGzds2HDrsmXLtjjKRUQBlss11IkoQFKp1OJwOHyZiDwiIosB3NO5ABIRERGVG1WVurq6vV3nICIiIiIiIiIiIiIiIiIiIiIiKgi99pOViSmDz3Cdg4iIKFe08cherY2DP+s6x57sdq8EV+QH/9gKyBmJxiGnuc5CRETUXRobWdWmqfnV0dBK11n2JJDFAABEU3MAnb/1siGfdp2FiIgoW3rTyHAi2TofYt+WplUbXefZk8AWg6oZrz6pkJf8Drukdergo1znISIiypTGYqbtlfdvU9XTFHKL6zxdEdhiAABQ3KIie8PHn9sbjxzoOg4REVEmEu1/+LWF+bJAX66evmap6zxdEehiUC2RO4xouwL7pZH8a2Lq0P6uMxEREXVF65QhP1PoxQAg4v2+WLY0D3QxkBnPbQLMfABQxUD4+mdtPLKX61xERES70zp5yHfV6uUAYARpGMx2HKnLAl0MAMAq/nNPxkKPTCC5RGMjq1xmIiIi2pXWKYdcALX/t+33Crm3+qoX3nKZKROBLwY1M154UERe2PZ7VXwq0b5lgd40MuwyFxER0Y4SUw49S9S7VUVk25+JSf/WZaZMBb4YiIgaxXXb/5kCX0i8+sECjZ1U4SoXERHR9tomDxkNRbNVhLb9mUDWVE176U8uc2Uq8MUAACorauaIYNP2f6YqZ7Ul37pPZ/bp4SoXERERALROHnKuii6wKh95w2rEv65YJh1uUxTFQJqWt0Hldzv+uVWc3Lax7wMa69/XRS4iIqK2yUMuFrG3bz9SAACiurmyz5Y5rnJlqyiKAQB48G4wUH/HP7fQYxPtPR5qu+zQA1zkIiKi8pVoHDrFh/7Gqvz366mR38ml7yQcxOqWoikGlTNXvW7FLNjZxxQ4TH3zSHvjsEGFzkVEROWpdfKQmVbtVTv7mIH6noZ+XehMuVA0xQAAQh5+uauPWdWD0pp+mMsnExFRPmksZlobB92k0B/t8nMgCytnrnq9kLlypaiKQeW0NY8akSd39XEF9oPF37dOOeRThcxFRETlQW8aGW5rv/NOVXPR7j7PM7LLN7JBV1TFAAAU8n+7/biil7XeX1unDj21UJmIiKj06bWfrEy8uqXFwnx5d59ngCcqp69ZVqhcuVZ0xaD6mCPniehLu/scC1SL1cVtjUPHFSoXERGVLo0dt1fi3Q1/UsUZe/pcAXY676BYFF0xkHOafRGZsafPs6oRhT8vMXnI1ELkIiKi0pS8fOChifbN/1CVE/f0uQbyXOWMNYsKkStfiq4YAEDVQT1uM6Lr9/R5VsVY6LTE5EP/yP0ViIgoU4nGoZ/vSIceV+Cwrny+enJVsS1otKOiLAby9eUdCu/qrn6+hZyT2PrBsq2XHXZgPnMREVHpaG0c9H2of68qurSrrwAvVoe/NC/fufKtKIsBAFRH971FgLe7+vkqMjzt+09unXzYHoeCiIiofOl1p0dbJw+arWqutRCvq8eJsdOlqcnmM1shFG0xkKYH20X02owOUuxj4d/f1jjoG3mKRURERSwxdWj/tjdfelBhJmb4FcoGAAAgAElEQVRynAHWVR3U84585Sqkoi0GAFAVDd8owMZMjrFA2FdzY+vkwb/l1s1ERLRN22XDjlNfn7Iq/5PpsSL2avn68o585Cq0oi4G0rSqVfawrsGuKPD1xKtb/qZThu+T61xERFRcWqcccoH6HQ8qdP9MjzWCf1VGD7g1H7lcKOpiAABVFd4vDfTdbI5VxQlttu2pRONhI3Kdi4iIgk/n1XuJxkE/V+vdtuOWyV1nfipND7bnNpk7RV8MpGlVqxpMy/Z4C3wc8B9JNA7d7fKWRERUWtpiA/Zve/rZv1g1P8z2HAK8WBXdt2RGCwBAXAfIBY0Ni7Ql/TVW9aDunEcULdVe61dl+psbchSNiIgCqG3KIWOshm5R1T7dOY94+FLNVWuL/hHF7ZVEMQCAxOShEyzsnO6eRyBvQuzEmhkv3p+LXEREFBwaG1mVSL7/f3vaBKkrBHi6esaaY4t9QaMdFf2thG2qKr50h4H+s7vnUej+sPhL6+TB12hsWCQX2YiIyL1E42EjEsnW5bkoBQAgnkwttVIAlNCIAQC0TRlU61sTz9X5RHRFWFLnRqeveyFX5yQiosJSVUlMHfpDUUyzqjl5w2cEf6+esXZULs4VNCVVDACgtXHwo6r4VK7OZwRtAvvDqhkv/TZX5yQiosJoiw3YX5PROVbNKbk8rxfyPlU1bfU/cnnOoCiZWwnbeOJNzuX5rKLKV3Nja+OQuMb6983luYmIKH/aJg+us8mqZ3NdCgR2QamWAqAERwwAINE4+A9W8aVcn1cEb8GYiTVXvfDXXJ+biIhyQ2MjqxLtW65V4Ou5PrcBkl4Yh1VcufbVXJ87KEpuxAAAjIZ+ZKBbc31eVfRH2v9za+Ogm7TxyC7ttkVERIXT2jj4s4n2LSvzUQoAQI39RSmXAqBEi0HlzFWvQ3VmPs6tIqJqLkqgfXVr49Dx+bgGERFlRmP9+7Y2Dp6jir8pcGg+rmEE/6ruveWqfJw7SEryVgIA6LWfrGx7Z+MLH65smD8i+EsI0YsrZjz3Sj6vQ0REO5eYPGSSCn7e3cWK9kSAC2pmri2JHRR3p2SLAQC0Th18jvr4Y76v8+FtC/1p1cCevyiV3bWIiIIuOeXgwWkN32QVJ+f7WiJ4rHr6muNLcd2CHZV0MQCA1sZDH1SVEwtxLSN43njy9cppax4txPWIiMqRxoZF2tpTjYCZaoFovq8nqmrC/nFV0155Kt/XCoKSnGOwPTHh7xpRW4hrWcURfod9pHXy4N9q7Oi9C3FNIqJysnXyYScmkv4zFqapEKUAACAyu1xKAVAGIwYAkGgcdL1V8+1CXlOAtyH4Xs2MtXm/lUFEVOo0Nqx3or3jaiguVJGCvXYJsBEV6cNqml55t1DXdK0sioHO7NOjbWPvVRbysUJfW0T+FA6FfhC98p+rC31tIqJip7GYaUv+YZKFzoBin0Jf34h8pXrGmpLaVnlPyqIYAB+ugOUDLS6ubaC+Qm6RitAV1U2r3naRgYio2CSmDvkCfFxjoUe6uH4p74ewO2VTDACgdfKg+QpztqvrGyABtddU7bPl53LpOwlXOYiIgiwxddhw2NQ1uV7KOBMGSIZMx1HR6a+udZXBlbIqBm2xAfvbZOVqVezlMocAb4uYWNUxR/5ezmn2XWYhIgqKrZcdMcD3U1cK9Hyr4nRyvIH8uHrmmitdZnClrIoBALQ1Dvqmr+YG1zkAQIDVBjK5auaae1xnISJyRWPH7ZVof3+KiP2eValwnQeiq2oO3mt4ua5LU3bFQFUlMWXIslxuzZwDD3rScWnVjFefdB2EiKhQ9KaR4cQrrd8A8BOFBmL3WlFVzzMnVE5fs8x1FlfKrhgAQOvUoUeI1eVWNeI6yzaiqiL6Ry9sppb6Bh1ERG2NQ8dZ+DNUZZDrLNsTyI01M9d803UOl8qyGABAonHwZKuY4TrHjoxICvBvkmjl1VVNz73hOg8RUS4lpg75gvr2CoV80nWWHQn05eq+Hxxd7pPDy7YYaCxmEu1zH1bg066z7IwRSanqnFA4PLPiyn++7DoPEVG2VFW2Thk2xsK/TBUjXefZGSNqjZgTy/kWwjZlWwwAoP3yww/xOzqesUC16yy7YqA+xPxBw2Z6zc9W/9N1HiKirtJ59V5i+bNfEtipFnK46zy7I5Cra2aumew6RxCUdTEAgLbGQd/w1dzoOseeiKoCEjfh9LRyWrObiIqPxoZF2pLJCaqmUSGHuM6zJwbyXFWFd6w0rUq5zhIEZV8MAKB18uA/KfAF1zm6SgR/8dSbVjlz9UOusxARbaPXfrIy8d6Gr4nFpS6WoM+GEUlB9bjqmWufcZ0lKFgM8J+Fj55XRS/XWTIhwCMiMq16xpo/uc5CROVLZ/bp0bapzzeh+gML6ec6TyYM5LLqmWuucp0jSFgMOrU2Dh2vau9ynSMbIlhuYKZXHnNkC1dSJKJC0SnD90lg67ehekmxvbECAIH+o3rk8M/w5+ZHsRhsp7Vx8BxVTHCdI1tGdD2AmzTq/66ctgglosJqu+ywT6pvvwXVegtEXefJhkDfD4VlBNeN+W8sBtvRa/atTmzY+ylVHeo6S3d03jO724Tkhsppax51nYeIip9e+8nKtnc3jVfVbylwjOs83eWJ+WLVjBfmu84RRCwGO2idPORIgX3cQipdZ8kFUV0pxt5QFd37Lmla3uY6DxEVl/bLDz/ETycvVjUNCvR2nScnRH/TY8aL33IdI6hYDHYiMWXw16zFza5z5JKobhZjZoVCHTdGr3zlRdd5iCi4NBYzbam5p6niW7B6uoqUzGuFqK6s/tigT8p37ku6zhJUJfOPnWuJyYPmWpgvu86Ra6KqEPmLgdxQWfHlJdLUZF1nIqJg0Niw3omUfyFUL1bFQNd5ck0gW8LhjpF8c7R7LAa7oDP79Ehs6v100Db4yCUDrIOYm4wXuqNy2vPrXechosJTVWlvPOR4H6ELRXR8ILY9zhOBnFczc01RPn1WSCwGu5GYOvQY+PbRYp1121WiqmLkQQjuqLI97paZy993nYmI8is55cChHRo9XyDnWdWDXOfJNxG9pWbGi19znaMYsBjsQSnON9gdI9quKouNsbdXHtTzPvn68g7XmYgoN1qnHrwv/MiXIXpBUDczygcRLK+O9v+MND3Y7jpLMWAx6ILWxsE3quIbrnMUmgAbAfmjF8IdfOyRqDjpNftWJ97rMQbGO1/UnmohnutMBSV4L+RFRvJ2adexGHSB3jQynHhlywMKfMZ1FldE8Aqgd4YlfUd0+qtrXechol3TefVe29PPfU7hny8qZwd5B9l8MoK0Ue9z3FcmMywGXdQ69eB9xQ89VSwbg+STEXlSFbebirb5VU3r33Sdh4g+nES4dcrAYxWR8ao6XoH9XGdyTcRcUjPjhV+7zlFsWAwy0NZ48CcUoYdKedZuJj6ctGiegmKRerqo5qq1z7rORFRO9LrTo21vr/2sWq8WKrUK3d91pqAQYFbNzLUXus5RjFgMMpSYcuhEa2W26xxBZEReA3SRGiyqPrDHQ5y4SJR7OmX/Pm12rzNVbC2AL6iixnWmoDGij1ftP+gkLmKUHRaDLCQaB//KKr7jOkeQfbjSIu5T4y2q9qvv4yOQRNlLXj7w0I50pBbwa0VxfNlNIMyAAG+bkB5bNe3Ff7nOUqxYDLKg8+q9xPKV9yjkdNdZioEBOiD2QVVvkRcyiyqnrV7nOhNRkGksZtrTf/ik79vOWwQ4zHWmYmAEbYKOk6tmvPqk6yzFjMUgSxobVpPY2vGwigx3naXYiOAZQP8k8B6o6rNpmVz6TsJ1JiLXtl52xADfbj0ZVj4nkNMtpJ/rTMXEiFpRObtq5tq46yzFjsWgG9piA/bX9orH+aRC9gzQoSJPQLAUqkuro/0f5SIkVA4SsWH7adKOgtpREB1VysuvF4IY/W7N9Bevc52jFLAYdFPr5CFHQvQRVezlOkspMEASgsegdqkx4aUVEXlcmlalXOci6i6N9e+7NVV9sq8ySlRG8fZA7hiRX1XPWPM91zlKBYtBDrROHXqqWHuvVYRcZyk1RtAG2EeB0APiydLKUL+npOnBtOtcRHuijUf22qrJE1VkFBSfVbVHlNL2xUEhipbqyvHjuFNs7vCLNEcSUwZ/xVrc4jpHqRNBKyCPqOJxA3lSveRTNVe9+o7rXFTeNBYzKf/uIekO/xOQ9LGq5ngRHW5VjOtspcwAT1RV9BglTcvbXGcpJSwGOdQ6ZcjP1OrlrnOUGyO6XlWfFOBJFXmqOlr1lDQ9s9l1Lipd7Y1HDkwj+QkojlXgEwI5RqE9XOcqJyJ4BdH0p2qaXnnXdZZSw2KQY62Th/xGoRe7zlHORFUh8pKIPqXQJz21T1b0Tazg0w+UjbbLDj0AaTnWCj4BYFsZ6O06VzkTyJshiZxQMeO5V1xnKUUsBjmmsZhpa597uwXOdZ2F/j8D9SGyWhVPGrFP+eqtEi+1mrchaBudV++lnl0+0PfNYarmaIUcC+gnVNHfdTb6/0RkA8LmpJqfrf6n6yylisUgDzR2UiiRfGuBKka7zkK7J4JNAF4AZDUEqwX2Bc+LrI56X3yVk5lKk16zb3Xbpl5DNJ0+DJ43FKqHiepQiDnUqkZc56NdE8gWI6nPcQGj/GIxyBONnVTRlnzrPqs42XUWypwBkoCsBexqNeYFiKwW366u2rf3WvnBP7a6zkd71jr14H099Yaq4jCFN1Shh4liqKoO4NMBxceItls1p/eYuebvrrOUOn5z5JHO7NOjbVPfv1nVT7jOQrlhRC3UrFPYlyBmvSrWG0m/ARNaH1JvfWTvd9bL5A1bXOcsdRqLmbaOP+4rYgbAtwOs6sdE/AFQGaDAxyEyRBW9XOek3DCCNETHVk9/cbHrLOWAxSDPNDasd1t7x0MWcrjrLFQYAn1fgDdUzHqorhfBeqisV7FvhEMd6yNen/V8vGrXVFUSVxyyjyQjA0Q6BlgbGgDgYyJ2gKoMEGAAgP0tEHadlfLPiFpVc0HNzDV3uc5SLlgMCuDDpU/9pao61HUWCgYBNgJ4B8AmiG4EsEkgm6zKJun8bxh/o4HZZOBtSovdVBXed1MxLRetqoIrhvdM+lt7+db0UtheRm0vhekFSC9V2xvQXgqvl4HfS2F6CaQPVPtbIOo6P7knqiqefK16+trfu85STlgMCqR16sH7qg09AJVhrrNQ8TLQrQqzSWA3KWQTBB/AIiWiKYjpUNUUgJSITUG9DgVSMEiJRQcMUgpNwaJDDFKAptSaDmP8lFXjQfyIaCgs8CNWJAKYiKiEYdMR9RCBmrBAIqqIQGwYkIiojaiYMICIwFZCvb0VthcgvUR0by7wQ9nqvG33leqZa2a7zlJuWAwKqDU2sJ+0ew/wtgIR0a59WAq8huqZL9zmOks5YjEoMJ0yfJ82u/VvFnqk6yxEREFjoL6qTqy5+qU7XWcpVywGDmisf99Essf9qjjadRYioqAwUF/Fu6BmxgtzXWcpZywGjuiU/fsktPqvqjLCdRYiIteMIK3A+TUz1v7RdZZyx4lBjsj0NzdUR8OnGOAJ11mIiFwyIimB+TJLQTBwxMAxvWbf6sSGngtU8XnXWYiICk0ErTAYU3PV2r+5zkIf4oiBY3LpO4nqaGi0EbApE1F5EbxnvPQoloJgYTEIAGlalaqKjj/XGLnBdRYiokIwwLqIdHymatorT7nOQh/FWwkBk/jRoJgVc4XrHERE+WKg/5QQvlA17cV/uc5C/43FIIDaGgd9UyHXc9U4Iio1InisOho6S5pWbXSdhXaOLzwBVDXjpd9YmC8b0aJZF5+IaE9EdHF1tMcpLAXBxmIQUD1mrGkWLzTKQN91nYWIqLuM6i+ro+fWcWfR4OOthIDbetlhB9p0egn3VyCiYmQEaYG9pGrGS791nYW6hiMGAVc5bfW6qopenxaRP7nOQkSUCYG+D5gzWQqKC0cMioTOq/faVjz7K2v1W66zEBHtiYG8GjLeWdHpq1a5zkKZYTEoMq1TDv2OWFxrIZ7rLEREOyOCx6qlqk6mr3zPdRbKHG8lFJma6S9eB8+cKQBn9RJR4Agwq3r/Q0axFBQvjhgUqfbLBx+cTut87s5IREFgRFIi+E7V9DU3uc5C3cMRgyJVceXaV6v79TleYOe4zkJE5c1A3xAxJ7IUlAaOGJSAtslDLlbBL61qxHUWIiovBrK0ylR+ibcOSgdHDEpA1cw1N4pnTjICrjtORAUjwM+rRh51KktBaeGIQQlpnXrwvmLDf7CKk11nIaLSJZAtKvhKjxlrml1nodzjiEEJqbnq1XeqouM/ZwQ/MVDfdR4iKj1G5MlQODSCpaB0ccSgRG29bMinbVrvssCBrrMQUfETVYWYa6oH1lwuX1/e4ToP5Q+LQQnT2NF7tybbb4ZqvessRFS8RPAWoBNqZrx4v+sslH8sBmUg0XjIVwHvV1ZR5ToLERUXEdxbLVWTOMGwfLAYlInklAOHdmj0D6o42nUWIgo+AyQVMrlm5ppfuc5ChcXJh2UiOn3dC9XR0HFi7FWcmEhEuyOC5eqZY1kKyhNHDMpQ22UDj9W0N9tCDnedhYiCw4ikoPhZVcV+M6TpwbTrPOQGi0GZ0utOjybefDkmqj/iTo1EJMDTgEyqmbnmOddZyC0WgzLX1njwJ3yEZkNlmOssRFR4BuiA4GdV0f7TOUpAAIsBYdvowUtNovhfjh4QlQ8RXQEjk2quWvus6ywUHCwG9B+JxsNGQP3fWuA411mIKH9E0AqRpurIfr/kKAHtiMWAPkJjMbO1/Q9ft2qvUpG9XechotwSwULPi3y3ctrz611noWBiMaCdao0N7CfJ8C+s6vmusxBR9xmR16Dy7eqZLyxxnYWCjcWAdqt16iGjYEO/UdWhrrMQUeYM0KGCn1f36/0z+cE/trrOQ8HHYkB7pLFhkbZkx6VQmWKBatd5iKhrjMgDoVDo29Er/7nadRYqHiwG1GVtsQH722TFNAEmWBWumkkUUCJYaxQ/qpq5Nu46CxUfFgPKWKLxsBGAf61VnOw6CxH9fwJsBOSn1QNrfsOtkSlbLAaUtbYph4yx1rtagUNdZyEqZwbogOoNVabipzLjuU2u81BxYzGgbtGbRoYTr235FhQ/UUUv13mIyo0oWsKR9I+iV77youssVBpYDCgntPHIXgnZ+r9Q8x1V1LjOQ1TqDGSpMfhx5fQ1y1xnodLCYkA5pVOG79OmrZOh8k0LqXSdh6jUCPAoBD+umbH2AddZqDSxGFBeJKYO7Q+bngp4F1nViOs8RMVOBMvF+D+uvurl+1xnodLGYkB5tfWyIwb46dSPRdBgFSHXeYiKjYE8Jyb9k6rpL7e4zkLlgcWACqL98sEHd6T1f42igbcYiPbMiDwpYmdUXrV2oYio6zxUPlgMqKBaYwP7IRn6Dqx+i5s0Ef03EfwFxp9Rc9XLS11nofLEYkBO6Mw+PRKb9rlIYL9vFQe4zkPkkoH6ELkb8GZWz1i9wnUeKm8sBuTUh/sw+OcrcCk3aqJyY0TbFTI7FAr/vOLKf77sOg8RwGJAAaGq0jblsFMV9tsCPZN7MVApMyKvQXBjFbb8Xqa/ucF1HqLtsRhQ4LRfPvjgdBoXQ/EVBXq7zkOUC6KqENxvjP66MnLeYmlqsq4zEe0MiwEFll77ycq2dzeNV9VvKXCM6zxE2RDBBwLMDoVSv4le+doa13mI9oTFgIrC1imHfMrX0FehqFdoD9d5iPbEiD4OeLdWRc1d0rSq1XUeoq5iMaCiotfsW932717jILZBrZ6kIvwapsAQwVtQuT1s2mdFp697wXUeomzwh2oOqaqg8+9URHj/MM/aLx98cEeHTDSCiVb1INd5qDwZkZSqLhKDWVUjjv6znNPsu85E1B0sBl00e/bsQ0RkhO/7Q0VkqKoeCGCfzl97A/jILHoR2Qzg7W2/ROQlEXk6FAo9fd55560r+P9ACVNVSVw26GTY0PmAjuX2z5RvH04klGUA/lBdEZorTas2us5ElCssBrswa9asvUXkc6p6KoDPq+rBOTz9RhH5B4AlnuctnjBhwus5PHdZ05tGhtvWbT5FrTkHkDqWBMoVUVUY8ygUzSZk766a9uK/XGciygcWg+3MnTt3/2Qy+VVVPR3AJ1TVK8R1ReRZAAtV9fcXXnjh+kJcsxzoTSPDba9tOVWtPQcqdVyCmTLVOTLwGAyaTSR6d1XTc2+4zkSUbywGAG677bZjfd//vqrWAwi7yiEiPoAlxpjfTpgw4c+cp5A7GhsWaUulT1ErZwn0TAt83HUmCqYPVyM0fwdkiYmGW1gGqNyUbTGYN2+et3Xr1rHW2u+p6vGu8+xIRF4E8JNJkyb9kTur5V7r1KFHiLVnKnCmqH7aQgoyOkTBZKBvKGSJgSyprKj5mzQtb3OdiciVsiwGc+bMOd1ae72qHuI6y56IyEpjzNSJEyfe5zpLqdLGI3slTMcXxOqZUPt5C+nnOhPllwE6FHhcxNyrxi6puWrts64zEQVFWRWDu+66a99kMvkrVf2S6yyZEpG/RiKRr/GJhvxLThk2rMOmRwE4GZCTFdrXdSbqHiNIA7pc1SwVD3+v6rX5Ebn0nYTrXERBVBbFQFVlzpw5X1PVmapatBPQRKRVRH40ceLE3/L2QmGoqiQahx4B4GSIjoLiJO7fEHwfbmNsnlbo38X4S6t6bn5EJm/Y4joXUTEo+WIwa9asQ1X1VgCfcZ0lh5ZWVlaeP378+DddByk3qiqpqQMP7YD5H1E5DvD+B8DRVjXiOls5M8DrCjwhok8YDT1e0Xfjco4IEGWnpIvBbbfddlI6nV6AEnyHJyJveZ43dsKECY+7zlLuNDYssjWN4Tbt/48IjlPgWFF7KCc05odA/i3ir1TBEwZ4XCORJ6qbVr3tOhdRqSjZYjBr1qwLANyipf1OLiki32hoaJjtOgh9lMZOqmjreG+oavJI2NARED1CoEdalQGusxULAyQA/FNFnofoc1B9XqLh51kCiPKrJIvBrFmzrlDVmOschSIiVzU0NFzmOgftmU4e2bM91Hq4tXqYwg4Ui4EQ7xAFBqpqH9f5Cs2IpBT6GiCviOBlhb5irLxoJPLP6PRnX+VcGqLCK6liMG/evEgikbhVVc9zncWBqy+88MLJrkNQ9nTyyJ5t0jZQoANV9BCoP0DV7AeR/lC7n0D2s0C165xdZaC+Qt6D6FtQvA0xbwH6lkBesYpXQvBeqaiof0OamriQF1GAlEwxUFUze/bsZlU923UWV4wxP580adKlrnNQ/ujMPj1Sm/fqb23Ffr7n72es7a0wPRXoKSJ7QdFToT1VsZeo9hQxPRWIqmhYrIZFJAyRsFob3tWW1UaQhmqHinQA0gHYtAApVWkF9H1A3leRDwT2fYG+D5j3VeUDMXYzxL4LRN9CGG9Xof5dvugTFZ+SKQazZs36har+wHUO10RkWkNDw+Wuc1Dw6bx6D2+3hrBhXRiotNgfHfL15R2ucxGRWyVRDGbNmvVNVb3BdY6gMMacP2nSpDtd5yAiouJT9MVg9uzZZ6pqvFA7IRYDEWn3PO9kPspIRESZKupiMGfOnBHW2odVtWgmZBWKiLxdUVExkosgERFRJozrANmaN29epbW2maVg51R1v/b29t+7zkFERMWlaItBIpH4STHsjuiSqp526623ftV1DiIiKh5FeSvh9ttvPzqdTj+lqiHXWYrAllAodMSECRNedx2EiIiCr+hGDFTVpNPp37EUdFkP3/dvdB2CiIiKQ9EVg9mzZ1+iqp9wnaOYqOoZc+bMGeU6BxERBV9RFYPbb7+9P4ArXecoRtbamapalLeOiIiocIqqGPi+f4mq1rjOUYxU9ROzZ8/+ouscREQUbEVTDO65554qa+3XXecocmWz4yQREWWnaIrBhg0bJgLo7TpHMVPVw2fNmnWy6xxERBRcRVEMVFVU9Xuuc5QCVf2W6wxERBRcRVEMZs+efZaqDnadoxSIyJg5c+Yc4DoHEREFU1EUAwDfdR2gVKhqyFp7vuscREQUTIEvBrfddls/VeUz+LlV5zoAEREFU+CLQTqdrkUR5Cwmqvo/d911176ucxARUfAE/gVXRMa6zlCCTHt7+2jXIYiIKHgCXQyWLl0aAnCi6xylSEROc52BiIiCJ9DFYP369cO50mHeHOc6ABERBU+gi4G19gTXGUqVqg647bbb+rnOQUREwRL0YnCM6wylzPf9Y11nICKiYAl0MRCRYa4zlDIRGeE6AxERBUtgi0HnFsFDXOcoZap6oOsMREQULIEtBnfcccd+qlrtOkeJ2991ACIiCpbAFgMAnBiXfywGRET0EYEtBul0msUgz1SVxYCIiD4isMXAGNPXdYZSJyI9XWcgIqJgCWwxUNWw6wylTlUjrjMQEVGwBLYYAPBcBygDZt68efx7JiKi/whsMbDW8gWrAPbZZx9xnYGIiIIjsMVARNpcZygDyVGjRqVdhyAiouAIbDEAsNl1gFInIltcZyAiomAJbDEQkfddZyh1qvqB6wxERBQsgS0GAN52HaAMrHcdgIiIgiWwxeDAAw9cJyK8/51HIvKa6wxERBQsgS0Go0aNSqvq665zlLjXXAcgIqJgCWwx6LTGdYBSJiLPuc5ARETBEvRi8KTrAKVMVZe7zkBERMES6GIgIo+7zlDCNjY0NLzmOgQREQVLoItBNBp9QkTUdY5SJCJLXWcgIqLgCXQxOPfcc/8N4BHXOUqRiCx0nYGIiIIn0MWgU7PrACWoo6qqarHrEEREFDyBLwYVFRXzeTsht0Rk6TnnnMOVJYmI6L8EvhiMHz/+TVVd5jpHiVngOgAREQVT4IsBABhjeDshRzpHX+KucxARUTAVRTGIRqN383ZCztzf0NDAfSiIiGiniqIYjB8//k1wEmJOeJ43zXUGIiIKrqIoBgAQDkxL0lcAAAOTSURBVIebAFjXOYqZiDw8YcKEB13nICKi4CqaYnD++eevAvBH1zmK3M9cByAiomArmmIAAJFIpElEfNc5itTjDQ0Nf3UdgoiIgq2oisH555+/BsBdrnMUI2MMRwuIiGiPiqoYAEAoFPopgA7XOYrM0kmTJi1xHYKIiIKv6IrBBRdc8JKIXOE6R7EQkQ+i0WiD6xxERFQciq4YAMCkSZNmiMjDrnMUie+ed95561yHICKi4lCUxUBEbCQSuQAA1/vfDRGJNzQ0zHadg4iIikdRFgMAOO+889aJyDdd5wiw9zzPu8h1CCIiKi5FWwwAoKGh4S4RudN1jqARETXGfHXChAnvus5CRETFpaiLAQD07t37YgBPuc4RJCLyvUmTJi1ynYOIiIpP0ReDurq6LTU1NV8QkWddZwkCEbli0qRJ17nOQURExanoiwEAnHPOORs9zzsVwBrXWVwSkV81NDQ0uc5BRETFS1wHyKU5c+Yc4Pv+QwAGus5SaCIyZ9KkSQ3cnpqIiLqjJEYMtpk4ceK/RORzIvKG6yyFJCJ3VVdXf4WlgIiIuqukRgy2mTt37v7t7e3zVPV411nyqXNDqSkNDQ3XuM5CRESloSSLAQAsXbo09Nprr12jqt9znSUfRGSDMebLEydOvN91FiIiKh0lWwy2mTVrVr2q/h5AD9dZckVEVgIY29DQ8JrrLEREVFpKvhgAwKxZs4aq6nwAw1xn6Y7OOQSzqqurv33OOedsdZ2HiIhKT1kUAwCYNWtWBYDvAZiiqnu5zpMpEXnSGPPdiRMnPuY6CxERla6yKQbb3Hbbbf18328C8DVV9Vzn2RMReRvAlEmTJs3hUwdERJRvZVcMtrnjjjuGdXR0XKOqZ7jOsgtJEfll7969p9XV1W1xHYaIiMpD2RaDbWbNmnUCPhw9GAegynUeEVmrqr+rqamZc84557znOg8REZWXsi8G28Tj8R4bNmz4kog0qOqnC3ltEWkHMN/zvN9NmDDhwUJem4iIaHssBjtxxx13DOno6LhAVb8A4BjkZ4XIdSLyiIg8FA6Hm88777xNebgGERFRRlgM9mDWrFl7q+pJIjISwFGdvw5S1Uz+7tpE5AURedRa+0gkEll2/vnnl9WyzUREVBxYDLLw1FNPhVetWtVfVQ/wfb+fiFSqatQYEwXQDiChqglVfdfzvHUTJ07c4DozERERERERERERERERERFRN/0/yMIEjEUSqhkAAAAASUVORK5CYII=" parent="1" vertex="1">
          <mxGeometry x="274" y="34" width="34.53" height="40" as="geometry" />
        </mxCell>
        <mxCell id="Wg8RFO9psuNznAwOXjFQ-14" value="WebApp" style="sketch=0;pointerEvents=1;shadow=0;dashed=0;html=1;strokeColor=none;fillColor=#505050;labelPosition=center;verticalLabelPosition=bottom;verticalAlign=top;outlineConnect=0;align=center;shape=mxgraph.office.concepts.web_page;" parent="1" vertex="1">
          <mxGeometry x="317.5" y="34" width="26.5" height="36" as="geometry" />
        </mxCell>
        <mxCell id="Wg8RFO9psuNznAwOXjFQ-15" value="" style="image;html=1;image=img/lib/clip_art/people/Scientist_Man_128x128.png" parent="1" vertex="1">
          <mxGeometry x="22" y="-2" width="40" height="45" as="geometry" />
        </mxCell>
        <mxCell id="Wg8RFO9psuNznAwOXjFQ-16" value="" style="image;html=1;image=img/lib/clip_art/people/Scientist_Woman_128x128.png" parent="1" vertex="1">
          <mxGeometry x="22" y="43" width="40" height="40" as="geometry" />
        </mxCell>
        <mxCell id="Wg8RFO9psuNznAwOXjFQ-17" value="Virtual Research Environment" style="text;html=1;align=center;verticalAlign=middle;whiteSpace=wrap;rounded=0;" parent="1" vertex="1">
          <mxGeometry x="221" y="-7" width="170" height="30" as="geometry" />
        </mxCell>
        <mxCell id="Wg8RFO9psuNznAwOXjFQ-20" value="" style="endArrow=classic;html=1;rounded=0;entryX=0.07;entryY=0.4;entryDx=0;entryDy=0;entryPerimeter=0;" parent="1" target="Wg8RFO9psuNznAwOXjFQ-13" edge="1">
          <mxGeometry width="50" height="50" relative="1" as="geometry">
            <mxPoint x="69" y="50" as="sourcePoint" />
            <mxPoint x="269" y="69.5" as="targetPoint" />
          </mxGeometry>
        </mxCell>
        <mxCell id="Wg8RFO9psuNznAwOXjFQ-22" value="1. Register" style="text;html=1;align=center;verticalAlign=middle;whiteSpace=wrap;rounded=0;" parent="1" vertex="1">
          <mxGeometry x="64" y="23" width="180" height="30" as="geometry" />
        </mxCell>
        <mxCell id="Wg8RFO9psuNznAwOXjFQ-24" value="" style="endArrow=classic;startArrow=none;html=1;rounded=0;entryX=0.92;entryY=0.407;entryDx=0;entryDy=0;entryPerimeter=0;startFill=0;" parent="1" target="Wg8RFO9psuNznAwOXjFQ-13" edge="1">
          <mxGeometry width="50" height="50" relative="1" as="geometry">
            <mxPoint x="474" y="50" as="sourcePoint" />
            <mxPoint x="444" y="180" as="targetPoint" />
          </mxGeometry>
        </mxCell>
        <mxCell id="Wg8RFO9psuNznAwOXjFQ-25" value="2. Register" style="text;html=1;align=center;verticalAlign=middle;whiteSpace=wrap;rounded=0;" parent="1" vertex="1">
          <mxGeometry x="395" y="25" width="70" height="25" as="geometry" />
        </mxCell>
        <mxCell id="Wg8RFO9psuNznAwOXjFQ-28" value="Data Scientists" style="text;html=1;align=center;verticalAlign=middle;whiteSpace=wrap;rounded=0;" parent="1" vertex="1">
          <mxGeometry x="-0.5" y="82" width="85" height="25" as="geometry" />
        </mxCell>
        <mxCell id="Wg8RFO9psuNznAwOXjFQ-65" value="" style="edgeStyle=orthogonalEdgeStyle;rounded=0;orthogonalLoop=1;jettySize=auto;html=1;entryX=0.486;entryY=0.962;entryDx=0;entryDy=0;entryPerimeter=0;startArrow=classic;startFill=1;" parent="1" source="Wg8RFO9psuNznAwOXjFQ-31" target="Wg8RFO9psuNznAwOXjFQ-13" edge="1">
          <mxGeometry relative="1" as="geometry" />
        </mxCell>
        <mxCell id="Wg8RFO9psuNznAwOXjFQ-68" style="edgeStyle=orthogonalEdgeStyle;rounded=0;orthogonalLoop=1;jettySize=auto;html=1;entryX=1;entryY=0.5;entryDx=0;entryDy=0;" parent="1" source="Wg8RFO9psuNznAwOXjFQ-31" target="Wg8RFO9psuNznAwOXjFQ-64" edge="1">
          <mxGeometry relative="1" as="geometry" />
        </mxCell>
        <mxCell id="Wg8RFO9psuNznAwOXjFQ-78" style="edgeStyle=orthogonalEdgeStyle;rounded=0;orthogonalLoop=1;jettySize=auto;html=1;entryX=0;entryY=0.5;entryDx=0;entryDy=0;" parent="1" source="Wg8RFO9psuNznAwOXjFQ-31" target="Wg8RFO9psuNznAwOXjFQ-61" edge="1">
          <mxGeometry relative="1" as="geometry" />
        </mxCell>
        <mxCell id="Wg8RFO9psuNznAwOXjFQ-31" value="" style="image;aspect=fixed;perimeter=ellipsePerimeter;html=1;align=center;shadow=0;dashed=0;spacingTop=3;image=img/lib/active_directory/web_server.svg;" parent="1" vertex="1">
          <mxGeometry x="292" y="135.6" width="40" height="50" as="geometry" />
        </mxCell>
        <mxCell id="Wg8RFO9psuNznAwOXjFQ-58" value="" style="group" parent="1" vertex="1" connectable="0">
          <mxGeometry x="451.5" y="24" width="85" height="71" as="geometry" />
        </mxCell>
        <mxCell id="Wg8RFO9psuNznAwOXjFQ-23" value="" style="shape=actor;whiteSpace=wrap;html=1;" parent="Wg8RFO9psuNznAwOXjFQ-58" vertex="1">
          <mxGeometry x="26.5" width="32" height="45" as="geometry" />
        </mxCell>
        <mxCell id="Wg8RFO9psuNznAwOXjFQ-27" value="Data Providers" style="text;html=1;align=center;verticalAlign=middle;whiteSpace=wrap;rounded=0;" parent="Wg8RFO9psuNznAwOXjFQ-58" vertex="1">
          <mxGeometry y="46" width="85" height="25" as="geometry" />
        </mxCell>
        <mxCell id="Wg8RFO9psuNznAwOXjFQ-61" value="" style="shape=image;verticalLabelPosition=bottom;labelBackgroundColor=default;verticalAlign=top;aspect=fixed;imageAspect=0;image=data:image/png,iVBORw0KGgoAAAANSUhEUgAABQAAAALQCAYAAADPfd1WAAAACXBIWXMAAAsTAAALEwEAmpwYAAAgAElEQVR4nOzdd7zddX0/8PcZd+RmJ2QPEpIwZA8RZKhgBRzUQa0U2yru0Tqrdbe1WEfV1q3FUYvWiRtFlixFJBBCAkkgEJIQsnNz973n3HN+f2D5KaKQ3M8533PPfT4fjzyS3OS8Pm8C4ea88vl+PrlqtVoNAAAAAKAp5bMeAAAAAACoHQUgAAAAADQxBSAAAAAANDEFIAAAAAA0MQUgAAAAADQxBSAAAAAANDEFIAAAAAA0MQUgAAAAADQxBSAAAAAANDEFIAAAAAA0MQUgAAAAADQxBSAAAAAANDEFIAAAAAA0MQUgAAAAADQxBSAAAAAANDEFIAAAAAA0MQUgAAAAADQxBSAAAAAANDEFIAAAAAA0MQUgAAAAADQxBSAAAAAANDEFIAAAAAA0MQUgAAAAADQxBSAAAAAANDEFIAAAAAA0MQUgAAAAADQxBSAAAAAANDEFIAAAAAA0sWLWAwDA/ujp7Y2196zPegzqrKNjXBy2bFnWYwAAwKiiAARgVLrnvg3x2n94e9ZjUGeHLF0SX/3Mp7IeAwAARhWPAAMAAABAE1MAAgAAAEATUwACAAAAQBNTAAIAAABAE1MAAgAAAEATUwACAAAAQBNTAAIAAABAE1MAAgAAAEATUwACAAAAQBNTAAIAAABAE1MAAgAAAEATUwACAAAAQBNTAAIAAABAE1MAAgAAAEATUwACAAAAQBNTAAIAAABAEytmPQAAZKlyxnmRmzk/6zHGhqu/G7ntm7KeAgAAxhwFIABj28wFUV24LOspxoR8+7isRwAAgDHJI8AAAAAA0MQUgAAAAADQxBSAAAAAANDEFIAAAAAA0MQUgAAAAADQxBSAAAAAANDEFIAAAAAA0MQUgAAAAADQxBSAAAAAANDEFIAAAAAA0MQUgAAAAADQxBSAAAAAANDEFIAAAAAA0MQUgAAAAADQxBSAAAAAANDEFIAAAAAA0MQUgAAAAADQxBSAAAAAANDEFIAAAAAA0MQUgAAAAADQxBSAAAAAANDEFIAAAAAA0MQUgAAAAADQxBSAAAAAANDEFIAAAAAA0MQUgAAAAADQxBSAAAAAANDEFIAAAAAA0MQUgAAAAADQxBSAAAAAANDEFIAAAAAA0MQUgAAAAADQxBSAAAAAANDEFIAAAAAA0MQUgAAAAADQxBSAAAAAANDEFIAAAAAA0MQUgAAAAADQxBSAAAAAANDEFIAAAAAA0MQUgAAAAADQxBSAAAAAANDEFIAAAAAA0MQUgAAAAADQxBSAAAAAANDEFIAAAAAA0MQUgAAAAADQxBSAAAAAANDEFIAAAAAA0MQUgAAAAADQxBSAAAAAANDEFIAAAAAA0MQUgAAAAADQxBSAAAAAANDEFIAAAAAA0MQUgAAAAADQxBSAAAAAANDEFIAAAAAA0MQUgAAAAADQxBSAAAAAANDEFIAAAAAA0MQUgAAAAADQxBSAAAAAANDEFIAAAAAA0MQUgAAAAADQxBSAAAAAANDEFIAAAAAA0MQUgAAAAADQxBSAAAAAANDEFIAAAAAA0MQUgAAAAADQxBSAAAAAANDEFIAAAAAA0MQUgAAAAADQxBSAAAAAANDEFIAAAAAA0MQUgAAAAADQxBSAAAAAANDEFIAAAAAA0MQUgAAAAADQxBSAAAAAANDEFIAAAAAA0MQUgAAAAADQxBSAAAAAANDEFIAAAAAA0MSKWQ8AY9GWrVvjJz+/MusxYFTbun171iMAAACMCgpAyMCWrVvj4ku+lvUYAAAAwBjgEWAAAAAAaGIKQAAAYMzq7euLl73hTbHqrjVZjwIANeMRYADGtPw3Pp71CABk6M3veV+sumtNvOwNb4q3vv618RfnPifrkQAgOTsAAQCAMeldF/1brLhj1cPf//dPfSb+6UMfyXAiAKgNBSAAADDmfOGr/xNXXnvdH3z8p1ddHX/7ur+Lnbt3ZzAVANSGAhAAABhTrvjFtfHFS77+R398zd33xAWveq1zAQFoGgpAAABgzLht5R3x7g988DF/XufevfGyN7wpvvWDH9ZhKgCoLQUgAAAwJmzYtCne8t5/2qfXfPTTn413XfRvtRkIAOpEAQgAADS93Xv2xOvf9o7o7evb59deee118eJXvza279hZg8kAoPYUgAAAQFMbHByM17/9nbFj1679zrj73vvigle/9vduDQaA0UIBCAAANLV/fP9FsX7DhhHndHV3x6ve8g/xre//YORDAUAdKQABAICm9aFPfCp+efNvkmZ+9DOfi3/60EdicGgoaS4A1IoCEAAAaErf+N7349If/6Qm2T+96up4+RvePKLHigGgXhSAAABA07nuVzfFxz/7+ZqusW79+vib17w+Vq9ZW9N1AGCkFIAAAEBTuX/T5nj3Rf9Wl7V2d3bGhX//xvjR5T+vy3oAsD8UgAAAQNPo6e2NN77rPXU/n+9fP/rx+NhnP1fXNQHg8SpmPQCw/7qe8VdRmr0o6zHGhEk//1q0bL1/n19XeeHfRyw6tAYT8Ui5b30ychvu2ufXdZ35oijNO6gGE/FIk676ZrQ8sD7rMYAm9473XxRbtm7NZO1vfu8Hsf6+++PD//SeGN/RkckMAPBo7AAEAACawme+9OW4+dbbMp3hlhUr4hVvfEvs7uzMdA4A+F0KQAAAYNS7afny+O9vfCvrMSIiYv2GDXHh370xtmzdlvUoABARCkAAAGCU6+ruifd98CNZj/F7Hty2LS78+zfEhk2bsh4FABSAAADA6PbPH/n36Ny7N+sx/sCezr3xsr9/U6xeszbrUQAY4xSAAADAqHXZFVfGDTf9Ousx/qie3t54zVvfFjctX571KACMYQpAAABgVNq+Y2d88BOfynqMxzQ4NBRveMe748prr8t6FADGKAUgjGq5rAfgsfhXBA+rZj0A0HQ+9tnPxeDgYNZjPG7vuujf4oc/uzzrMQAYgxSAALWk8YCH6cOBlG5ZcXtcc8ONWY+xzy762H/Ed3/046zHAGCMUQACAACjzkUf+4/kmeUXvydKJ56dPPeRPvzJT8cXL/l6zdcBgP+jAAQAAEaV//rqJbFl69akmaVzXhYtUw6I1hPPidJzXpM0+9F84av/Ex//7Odrvg4ARCgAAQCAUeTBbdvj4ku+ljSzfPip0brkqIe/33rgoVH+6/dFpa0j6TqP9I3vfT/+7T8+UdM1ACBCAQgAAIwin/7il5LmVabPi8JTXvAHH2+ZPC2qf/OeqEybnXS9R/r+ZT+ND3z8P2u6BgAoAAEAgFFh7T3r44pfXJs0s/rc10Y+/+hvi4ptHZH7y7fF8MInJF3zkX7w05/Fv3/qMzVdA4CxTQEIAACMCh/+xKeS5pWe8+oojpvwJ39OvlCIwrNfEeVjz0y69iN9+4c/ik984eKargHA2KUAhFGsGrmsRwAAqIurrrs+Vq1ZkyyvfOjJ0XrgYY/r5+by+Wg55dwonXFBsvUfzde+8934wlf/p6ZrADA2KQABAICG99kv/3fSvNzpz9vn17Q+4cQoPe8NSed4pC9e8vX48tf/t6ZrADD2KAABAICGdsNNv45NDzyQLK909oVRbG3br9e2zjsoSn/59mSzPJrPfeWr8c3v/aCmawAwtigAAQCAhvY/3/p2sqzK9DnRctBRI8ponTE3yn/9vkQTPbqPffZzcdV119d0DQDGDgUgAADQsO5aty5WrFqdLK/yjJdGLj/yc5RbJk+L4Zf8S1TbxiWY6tG9818/ELesWFGzfADGDgUgAADQsP77G99KllVedGS0TJ+VLK84YXJULnhPVMZPTpb5SG957z/F+g0bapYPwNigAAQAABrSlq1b45obbkwXePoL0mX9VrFjfFT/6p1RmTg9eXZExMDAYLz+be+ILVu31iQfgLFBAQgAADSkS3/8k2RZw4efHC2TpibL+13Ftvaonv/2qEyZUZP83Z2d8fq3vzP2dnXVJB+A5qcAhNFs5MfXAAA0rB/89PJ0YSc9O13Woyi2tkX1hf8QlWmza5L/wIMPxhvf9Z6aZAPQ/BSAAABAw7nsyquiq7s7SVb5iNOiOG5Ckqw/pdjaFvHCt0Zlxrya5N+5dl2866J/q0k2AM1NAQgAADSc7/7wx+nCTnpmuqzHUCi2RLzgTVGZku6ykd915bXXxde+892aZAPQvBSAAABAQ7n73vti1Zo1SbLKh58aLe0dSbIer0KxJaovfEtUxk2sSf4nvnBx3LR8eU2yAWhOCkAAAKCh/PTKq9KFnfBn6bL2QbG1LarnvyMqbbUpH9/5/g/E/Zs21yQbgOajAAQAABrKZVdemSSnMmtRtEyckiRrfxQ7xkfl/H+sSXZvX1+88V3viZ7e3prkA9BcFIAAAEDDuHXlHbGnc2+SrOGTn5MkZyRaJkyO8otrc3vvlq1b453/+oGaZAPQXBSAAABAw7j86muSZRXnLE6WNRItUw6I8gv/oSbZv15+a3z5f79Rk2wAmocCEAAAaBhXXXd9kpzSk/888oVCkqwUWmbOj9I5L69J9ue+/N+xYtXqmmQD0BwUgAAAQEP41W9uie6eniRZuYOPT5KTUuuSI6P05D+vSfY73n9RdO5N8+g0AM1HAQgAADSEa3/5qyQ5lenzomXC5CRZqbUed0aUDz81ee7uPXviXRd9MHkuAM1BAQgAADSEVI//Dp94TpKcWik85bwYXnR48txbVqyIr37zW8lzARj9FIAAAEDmVt21Jrq6u5NkFRYckiSnVvL5XOTOvjAq0+Ylz/70F78cq9esTZ4LwOimAAQAADL3ixt/mSSnvOSYKLS2JsmqpUKxGNXn/11Nst/x/ouit6+vJtkAjE4KQAAAIHPX/SrN+X/Vw5+cJKceiu3jovTidyfP3bZjR3z4k59OngvA6KUABAAAMrW7szPu37Q5SVZ+9qIkOfXSOmVGlJ71yuS5P7vq6rjy2uuS5wIwOikAYVTLZT0AAMCI3fSbW5LkVOYdHMXWtiRZ9dS6+PAonXBW8twPfPw/Y+fu3clzARh9FIAAAECmfnPbiiQ5w0c/JUlOFopPOif5zcC9fX3xng98KGkmAKOTAhAAAMjUr25JswMwN2dxkpws5HO5yJ/90qi2jU+ae+vKlfGN730/aSYAo48CEAAAyMz9mzbHns69I86pTpwSLePSlmf1li+2xPB5b0qe+/HPfj7ZGYsAjE4KQAAAIDPLV65MklM+6qlJcrLWMnVGlE47L3nuhz7xyeSZAIweCkAAACAzd9x5V5Kc3MInJMlpBMWjTo3KvIOTZi6/fWVc8Ytrk2YCMHooAAEAgMykKgALU2YkyWkE+Vwuqs96efLcj3/u8zEwMJg8F4DGpwAEAAAy0dvXF5seeGDEOcMHHh75QnO9tSm2tkXpvDcnzdy1e098/qtfTZoJwOjQXJ8lYYyp5nJZjwAAsN9W3LEqSU5lyTFJchpN6+wDo3zMGUkzv/6dS2PDpk1JMwFofApAAAAgE6ke/43ZB6bJaUCFk58TlSkzk2Ze9LH/SJoHQONTAAIAAJm4a93dSXIKkw9IktOI8oV8VJ77+qSZK1ffGZdffU3STAAamwIQAADIxKo1a0acUZm1KAqFQoJpGlfLhMlROuP8pJmf+MLFSfMAaGwKQAAAoO5279kTPb29I86pLD4iwTSNr+WwJ8XwnIOS5e3cvTsu/p+vJcsDoLEpAAEAgLpbd++9SXKqMxcmyWl0uVwu4lmvTJr5X/9zSezYtStpJgCNSQEIAADU3d3r70uSk5s6K0nOaFBsHxelZ7wkaeYn/+uLSfMAaEwKQBjFcrmsJwAA2D93r1+fJKfQMTFJzmjRsvSYqEyfkyzv8quvidVr1ibLA6AxKQABAIC627Bp04gzKtPmRb7JLwB5pFw+F8Nnvyxp5gf/85NJ8wBoPApAAACg7jZs2jzijMqBhyaYZPRpnTojykeelixv3fr1cdV11yfLA6DxKAABAIC62rFrVwwODo44pzpjbFwA8mjyp/x50ryLL3EjMEAzUwACAAB1tXHzA2mCps5MkzMKFYotUXr2q5Pl3bvh/rjx1zcnywOgsSgAAQCAutq4eeSP/0ZE5CdOSZIzWrUuOiyGE+6C/K+vXpIsC4DGogAEAADqauMDaXYA5tvak+SMZpWnX5As6667745bVtyeLA+AxqEABAAA6mrb9h0jzqhMmxf5nLczrdNnx/Ciw5Plffnr30iWBUDj8BkTRrNq1gMAAOy7rdu3jzijMnNegkmaQ/UpL0yWdcuKFXHXunXJ8gBoDApAAACgrh7cNvICsDptToJJmkPLxCkxfPjJyfK+eMn/JssCoDEoAAEAgLravWfPyEMmzxh5RjN58rnJoq6/6abYtmPkj2kD0DgUgAAAQN088OCDaYImTE6T0ySKbR1ROvk5yfK++b0fJMsCIHsKQAAAoG6279iZJCc/blKSnGaSP/K0ZFk/uvzyZFkAZE8BCAAA1M2evXvTBLW1pclpIsXWtigdd2aSrK7unvjhT5WAAM1CAQgAANRNZ1dXkpx8sSVJTrPJHf20ZFlf/+6lybIAyJYCEAAAqJvOzjQ7APOFYpKcZtMyfmIMH3RMkqz7Nm6M21evTpIFQLYUgDCa5XJZTwAAsE9SPAJcmeIG4D+lctIzk2V9+wc/SpYFQHYUgAAAQN107u0ccUZlyuwEkzSv1mmzojJjXpKsK35xbfT29SXJAiA7CkAAAKBuurp7RpyRGz8hwSTNbfjU85JlXXPDjcmyAMiGAhAAAKib/v6BEWdU2sYnmKS5Fecsjuq4iUmyLr/6miQ5AGRHAQgAANRNX3+Cx0nbFYCPJZ/PxfCJ5yTJuvnW22L3nj1JsgDIhgIQAACom74EOwCjbdzIM8aA3JI0twFHRFzxi+uSZQFQfwpAAACgbpLsAGzrGHnGGFDsGB/D8w9OkvWzq69OkgNANhSAAABA3aTYAZgrtiSYZGyonPjMJDl3rl0Xm7c8mCQLgPpTAAIAAHUzODg44oxq5BJMMjYUZx+YLOuq665PlgVAfSkAAQCA0SWnAHy88vl8lJ7850myfnXLLUlyAKg/BSAAADDKVLMeYFTJHXx8kpzbVt4R/QMJLnEBoO4UgAAAAE2sZcLkqIyfnCTr5ltvS5IDQH0pAAEAgFHGI8D7avjYM5Pk3PQbjwEDjEYKQIDHZT/faHh/AgC/p729beQhleGRZ4wxucVHJMm54eabk+QAUF8KQIDHZT/PGnJEEQD8ntaWlpGHlEojzxhjihOnJcnZvmNn3L9pc5IsAOpHAQijWNUNeADAKFMsFEceUh4aecYYk8vnonTCWUmybrpleZIcAOpHAQgAANRNsWXkBWBu2A7A/ZFbckySnOW3354kB4D6SfDXbzSau9ati//8wsVZj8Gf0NPTk/UIAKPSxs0PxKvf+rasx+BPWDB3brzrzW/MegwaWIodgNXSYIJJxp7C9DlJclasWp0kB4D6UQA2ob3d3XHbyjuyHgMAkusfGPA5rsH5Sy4eS0uCHYBRVgDuj3w+F+WDT4jCupHd5Lu3qyseePDBmDcnTaEIQO15BBgAAKibluLILwHJuQRkv1UWpbkNeOWddyXJAaA+7ACEUay4a2vkyuWsxxgTckMD+/fCHQ9E5Atph+HRDfTu18uKndujmuJAeh7b4H7+PgKaSksxwf9zh+wA3F+5WQuT5Nxx511xzplnJMkCoPa844FRbMKvf5b1CDyG/DXfzXoEHkPH8quzHgFgTGkf1z7ijFzJXyjsr8LEqUlyVt55Z5IcAOrDI8AAAEDdTJo4ccQZVTsA91s+n4/KvINHnHP3+ntjcNC/B4DRQgEIAADUzaQJE0ackRvcv2MfeEhl6TFJclatWZskB4Da8wgwAABQNyl2ABYevDfBJGNXdfbiJDn33n9/HH/0UUmyUhocHIyBwcHoHxiIgcHBGBgY/O3XA///4w//2EBUqxFtba3R1toW7e1t0dbaGu3tbTGuvT1aWlqiva092tpao72t7eGfM6595I+yA9STAhAAAKibiRNHvgMwIqJSqUQ+74Gm/VGYckCSnPs3bkqS83h1dffEzl27Yufu3bFj567YsWtX7Nz1269/+7FtO3bUbZ5pU6bE7FkzY8b06THzgANi5owDYtaMGTF71sxYMG9eTJsypW6zADwWBSAAAFA3kydNSpJTLQ1FtNmFtT8KLa1RTZBzX40KwFVr1sQ9994X69bfG/fdvzG2bt8eO3ftiqFSqSbr7a/dnZ2xu7Pzj/74uPb2WLJoUcyfNzcWzpsXC+fPi8UHLoyli9PswATYFwpAAACgblKcARgRUSkNREEBuN+GDzoqCveuHFHG/ZtGVgB2dXfHnWvXxd333hvr1q+Pu9ffF/dt3DiizEbSPzAQq9asiVVr1vzex1tbWmLJokVx8NIlcfCSJXHI0iWx9KDFHisGakoBCAAA1E2yHYD9fRETPGK5vypzDhpxAbhj167o6++PjnHjHvPn9vX3x20r74iVd94Zd627O+5ef++f3D3XzIZKpbjr7rvjrrvv/r2PL128OI498og4/LBD4+jDnxBzZ8/OaEKgGSkAAQCAujlg2rQ0QX1dETE3TdZYNC3Nr91992+Mww895A8+PjAwGCtWr4pbb18Zv7ltRdy5dl2S9ZrZPffdF/fcd198+4c/ioiI6dOmxtGHHx7HHnlEPOn44+PABfMznhAYzRSAAABA3UxPVQD2js3dY8lMnp4k5v5Nmx4uAG9ZcXssv/32WL5iZdy+enWS/LFs1+49cfX1N8TV198QERGzZsyIJ51wXJx0/PFx4nHHxsREj9MDY4MCEAAAqJtJiW4Bzu3dlSRnrMp3TEyS873Lfho/uvyKuHXlyB4n5rFt27EjfvjTy+OHP708IiKOOPTQeNppp8Q5Z54Z06dNzXg6oNEpAAEAgLpaOH9+bNy8eUQZuT3bE00zNhVb25LcBLxy9Z0JUtgf/3fByCf/64txwjHHxNlnPi3OOO3UGN/RkfVoQAPKZz0ANZDiMzkAwH6o+nMIj8OB80d+lll115YEk4xt5bkHZz0CidyyYkX860c/Hmc89wXxzn/9QNy0fHnWIwENxg5A/qjytNlRbW3Leowxobh7W+SGBvb5ddWZCyLX1l6DifgDOx6IGOjb55eVp86Kqn9HdVHYvS3y+/X7aF7k2sfXYCIeqbr9gcgN9O7z68rTZke1pbUGE/FIxT3b9+vzEeyr+fPmjDijuHd7VCrVyOdzCSYam6pTZkRscTlHs7nquuvjquuuj1kzZsRzznpGnHvOWTFrxoysxwIypgDkj+p94tOjPGth1mOMCRMv/1q0brt/n19XPeO8qC5cVoOJeKT8N/4jYuO+/wG594QzozxnUfqB+AMTr/zfaN1y3z6/rvKU50Vu8RNqMBGPlPvOZyLuXbXPr+s94elRnu3zUT1M+vnXomXrvn8+gn21YG6aG2iHh/oj3+5xx/1VnZzoQhYa0rYdO+LiS74WF1/ytTjp+OPjuc86J5526ilZjwVkRAEIAADU1YJ589IE9XZHKAD3W26CiyPGipuWL4+bli+PaVOmxLPPekY8/9nPijmzZmY9FlBHzgAEAADqan6iHYAVF4GMzPjJWU9Ane3u7IyvfvNb8dy//tt4wzvfHStWrc56JKBOFIAAAEBdzZ09K/L5kb8Vye/YmGCaMaxtXNYTkKGbblker3rzW+N1b3uHIhDGAAUgAABQdyl2AeY2rkkwyRhWcCIUD90g/FAR+I+KQGhiCkAAAKDuDpw/f8QZhR0bo1KtJJhmjMorAPn/bllx+8M7AlfdpVyHZqMABAAA6m7ZksVJcir9/UlyxqJ8vpD1CDSgW1asiJe94U3xhne+O9besz7rcYBE/JUPNIBcLusJYOzy2w8gG4cuW5YkZ7hzRxQ7xifJGmuqxdH/drAybmJU2jui2jY+Ku0dUWkbH9W2cTHcNj6qbR0PfSkUI/KFh/5584Wo5gtRzRcf/ngUWyIiIlcajNxwKWK4HLlS6bffHopcufzbb5ce+nilHLlyKXJD/ZHv64pC396Hvu7pzPhXI62bblkeN92yPE550onx2gtfEksXpyntgWyM/v/jQxOoVrOeAMauaigBAbJw8JIlSXJyD94TMXdRkqyxJpcbHQ+EVQstMTxlZpQnz4jhyQfE8OSZUZ4yMyrjp6Rdp6Utqi1tI8rI93VFvrczCt17otC1Mwrdu6LYtTMKnaP3xuobf31z3Pjrm+Pcs8+K11z4kpg2Je2vO1AfCkAAAKDu5syaGRPGj4+e3t4R5RTuvSPi+KcnmmqMSXATc2rDk2ZEedrsKE+dHeUpM2N48ozkRV8tVTomRaVjUpRnLPyDH8v37IlC5/Zo2bkpWnZsipbt92cw4f774c8ujyuvvS5ecv6L4m9f9MKsxwH2kQIQAADIxKHLlsYtK24fUUZ+24aoVCqRb8Ayq9FVM34MpTx5RgxPnR2laXOjPG1OlKfPjSi2ZjpTLVUmTI3KhKlRmn/Iwx8r7tgYxZ2bo2X7pmjdfl/khgYynPCx9fX3x2e+9OX4/mWXxd+94uVxxmmnZj0S8DgpAAEAgEwcsnTkBWBExHDX7shPOSDBRGNMZbiuy5UOmB+lOQdFadZBUWrysu/xKs9YGOUZC2PgsIe+X9i1OVq33But2+6Nlm0bMp3tT9mydVu84/0XxVGHPyHe9vrXxbIlB2U9EvAYFIAAAEAmDlma5hzA6oP3RSgA912lUtP44YnTozRncQzNWRqlmYui2tpe0/WawfD0+dE/fX70H3l6RHkoWrdtiJYt90Tr5jVR6OvKerw/sHL1nfHi17wuzj3nrHjNS50PCI1MAQgAAGTi4EQFYO7u5RGHPTFJ1phSKSeNqxZaYmjukijNWRpDc5dFZfzkpPljTrE1huYdHEPzDo7eJz4ziru3ROumu6J187oodm7Lerrf88OfXrp/mn0AACAASURBVB5X/uK6uPCC8+OvX/gXWY8DPAoFIAAAkInFCxfG+I6O6O3rG1FOceNdUakMRz5fSDTZ2FAdHvkOwGprewzOOySGFhwaQ3OWRhRbEkzGoylPmxvlaXOj7+gzI9+9J9o23Rnt62+LQtfOrEeLiIfOB/zUxV+KS398WbzhVa+Ip57y5KxHAn6HAhAAAMjMCcccHdf+8lcjzil37ozWabMSTDSGDJf262WVcZNicMGhMTT/kCjNSbOLk31TmTg1+p9wSvQ/4ZQo7tgY7ffcGm0bV0WunHZX5/7YsnVrvP2f3x/HHnVkXPTOd8T0aVOzHgkIBSAAAJChJx53bJICMPfAPREKwH0zsG87LwcPPDwGDjo2SnOX1mgg9kd5xsLombEwek84J9o2rIyOO66PfH/25wXetvKOWL12bZx+8klZjwKEAhAAAMjQiccemyQnf/s1UT3ylMglSRsbqv3dj/lzhjsmxuDS46N/yXFR7ZhUh6nYX9WWthhY9sQYWPbEaLt/VbSvuSladm7ObJ7WlpZkv7+BkVMAAgAAmTlwwfyYNnVq7N6zZ0Q5+c4dUe7viZZxExJN1vxyXX/s1zwXg3OXxsCyE6I0b1lELl/XuRi5wQOPiMEDj4jizs0xbu1N0bZhVd1neNHznxft7W11Xxd4dApAAAAgUyc/8YT4yc+vGHFOdfP6iGVHJ5hojOj+/csjKi1tMbjk2Og/+ElRmejctmZQPmB+dB9wXvQe+4wYt/qGGLfu5rqs297eFn/7ohfWZS3g8VEAAgAAmTrx2GOSFID5O65TAO6DfOeOiIgYnn9oDB/z1OjumBrVFju2mlGlY1L0PvGZ0X/YydFxx7XRfu+Kmq734vPOiwnjx9d0DWDfKAABAIBMPTHROWGFLffE8NBgFFqVWI9HdfqcGH7aiyI3cXJ0d/VEtVrJeiRqrDJhavSc/Nzof8IpMf72q6N1013J1xjf0REvfuF5yXOBkXGYAwAAkKnp06bG0sWLk2QNb7knSc5Y0HLa86IwaWrs7e1T/o0xw5NnRNfpfxl7znlVlKfNSZr9N3/5whjX3p40Exg5BSAAAJC5p57y5CQ5hdt+kSRnrOjp64/hcjnrMcjI8LQ5EaXBZHmTJk6Mv3zenyfLA9JRAAIAAJk74/RTk+TkH1gX5aF0hUYz6x8cjAG/VmNa+7rfRLF7d7K8l57/Irv/oEEpAAEAgMwtWbQoFs6fnySr8oDHgB9LqVSOnr6+rMcgS+VSdKz8RbK4aVOnxgvOfXayPCAtBSAAANAQzjwtzS7Awk0/iqhWk2Q1o0qlEnt7e7Meg4x1rL4u8oPp/ju48ILzo621NVkekJYCEAAAaAjJHgPe9WAMdu5KktVsqtVqdPX2uvRjjMv1dUXHquuT5c2ccUD8xbnPSZYHpKcABAAAGsLBS5bEnFmzkmTlbr8mSU6z6e7rj5JLP8a8CbddkTTvFS9+cdI8ID0FIAAA0DCe/pTTk+S0rLohyglvN20GA4ODMejSjzGvZduGaNtwR7K8ubNnx7nnnJUsD6gNBSAAANAwznzKacmyKvfcnixrtCuXy9Hd35/1GDSACTf9IGneq/72r5PmAbWhAAQAABrGYcuWxYJ585JkFW/4flQqLgN5+NIPF6OMeR23XxWFnj3J8hYvXBhnn3lGsjygdhSAAABAQznv3GcnyckN9kZp64YkWaPVQ5d+9EWl4tKPsS7ftTPpxR8REW98zSuT5gG1owAEAAAayrOf8WdRKBSSZBWuvzTG8r633oH+KJVLWY9BA5j4qx8mzTv2qCPjpOOPT5oJ1I4CEAAAaCgTxo+Pp5+e5izAwo6NUe7cmSRrtBkYGoz+AZd+EDFu9Q3RsnNj0sy3/93rk+YBtaUABAAAGs6555ydLCt33XfH3C7Acrkc3X0u/SCisGdbjF9xZdLMZz79zFh84MKkmUBtKQABAICGc8IxR8fsmTOTZBU23hmlzl1JskaDhy796HPpBxHDpZh0w7eTRra2tMRrLnxJ0kyg9hSAAABAQ3rBc56VLCt/3XfGxC7AajV+e+nHcNaj0ADG33pFFLrSPgL/6pf+bcw84ICkmUDtKQABAICGdO7ZZ0Uul0uS9dAuwOY/C7B3YMClH0RERMuWu2PcupuTZi6cPz8uOO8FSTOB+lAAAgAADWnK5MlxzplnJMsrXvE/ybIa0UOXfjj3j4h8b2dMuvG7yXPf+9Y3J88E6kMBCAAANKwLLzg/2S7A3LYNMbRpXZKsRlMadukH/9/kX3w9ckMDSTPPPfusOPIJhyXNBOpHAQgAADSsBfPmxTOe+pRkecWffSUqw5VkeY1guFKJvT09Lv0gIiIm3nhpFDq3J82cMH58vO5lL02aCdSXAhAAAGhor/ibFyfLyg32RnnltcnyslatPlT+VSvKPyI6VlwdbRtWJs997z+8JaZMnpw8F6gfBSAAANDQFsybF2eeflqyvJYbvx/l3u5keVmpVquxt7cvhofd+EtE270romP1dclzzz7zjHjKk09OngvUlwIQAABoeC9/8QVpA3/2paiO8kdme/r6o1Ry4y8RxQfXx4Sbfpg8d/q0qfG2v3td8lyg/hSAAABAwzto0YHx1FOenCyv8OC9MXTfncny6q1vYCAGhgazHoMGUNizLSZf983IVdOfbfn+d/xjjO/oSJ4L1J8CEAAAGBVe/tfpzgKMiGi97AsxPJj2ptR6GCwNRW+/G3+JyPd1xaRfXBK58lDy7Oc/65lx/NFHJc8FsqEABAAARoVlBy2OZ/7Z05NmVn/6xVH1KHB5eDi6e/qyHoMGkOvvick//1IU+tKfZ7lg3rx442telTwXyI4CEAAAGDX+/hUvj7a2tmR5hc3rYuium5Pl1dJw5bc3/sboKSypjdxAb0y+4ktR6O2sSf6H3vfuaGttrUk2kA0FIAAAMGpMnTI5XpH6UeCrvx6l7j1JM1OrVKvR1dMTlUr6c94YXXKDfTHliq9EsXt3TfLf+OpXxpJFi2qSDWRHAQgAAIwq5z//uTF/7pykmflLPxnD5XLSzJS6e3ujPDyc9RhkLFcajMlX/XcUunbUJP+Jxx4T5z//eTXJBrKlAAQAAEaVYrEYb37ta5Jm5rt3ReXKrzXkeYA9/X0xVCplPQYZy5UGY9KVX4ninm01yZ82ZUr8yz++rSbZQPYUgAAAwKhzyolPjBOPOzZpZvGeW2PozsY6D3BgcDD6BwazHoOM5fp7YvIVX4mW3Q/WJL+ttTU+8cEPxLSpU2uSD2RPAQgAAIxKb/u710ehUEia2XrN12Nod212WO2roVIpuvv6sx6DjOW7dsaUn30hintqU/5FRHzg3e+MZQctrlk+kD0FIAAAMCotmDc3Lvyr85PnFr/171Ea6Eueuy/Kw8PR1dsb4cbfMa24Y1NMvfziKPR11WyNV/7NX8epJz2pZvlAY1AAAgAAo9aFF5wfhx96SNLMXHko8t/89xguDSXNfbwq1Wrs7e1pyPMIqZ/W+1fHlKv+O3JDAzVb42mnnhIve/Ff1SwfaBwKQAAAYNTK5/Pxb+95V3SMG5c2t3tXxKX/EZVKfW/erVarsbenOyrDlbquS2Npv+uXMemGb0cM1+5m6uOOOio++N531ywfaCwKQAAAYFSbNWNGvOetb06em9/xQFR+9uWoVOpXxnX39UW5XN/SkQZSLsXEG78bE279eU2XWXbQ4vj4v/5LTdcAGosCEAAAGPXOOO3UeNYz/ix5buHeO6Jy2ZfqUgL29PfH4FA2jx2TvXzXzph62WejbcMdNV1nwbx58ekPfzDa29tqug7QWBSAAABAU/iH17825s6elTy3sOGOqPzk4pqWgP2Dg9E/ULuz3mhsbfeuiKmXfT4K3btrus4B06bFZ//9QzF50qSargM0HgUgAADQFMa1t8cH3/ueKOTTv80p3L86Kj/5fAwPp388d3BoKHr6sr11mIyUSzHxl5fGxF99P3LDpZoudcC0afG5j344ZkyfXtN1gMakAAQAAJrGjp07Y8qUyTXJLty/JuJbH43yYH+yzFK5HF29vcnyGD0KnTtiys++EG33raz5WjOmT4+L//PjsWDevJqvBTSmYtYDAAAAjNT6DRviI5/6TNy2srbnp+V3PRCVr/5LDP3Fm6N1yowRZZWHy7G3pyfRZIwaleEYd+eN0XHHtZGrwy3Ts2fOjM999CMxZ9bMmq8FNC4FIAAAMGpt27EjPv3FL8flV19TtzXzg32Rv+RfY+j5b4zWuYv3K2O4Uom9Pb1RrVYTT0cjy3ftiIk3fi9adm+py3pzZ8+Oz3/sIzHzgAPqsh7QuBSAAADAqNPV3RNf+vrX4zs//HGUSrU9O+3RlJccE8VZC/brtZVKNfb29NTlZmEaQ7VajXF3/SrG335VXXb9RUQsXrgwPv3hD8b0aVPrsh7Q2BSAAADAqFEqleIb3/t+fOV/vxk9GZ2dVzr5OdFy3JmRy+X2+bXVajX29vbU5DIRGlOhe1dM+NX3o2XHprqtuXTx4vjcRz8cEydMqNuaQGNTAAIAAA2vf2AgLv3xT+KSb383du/Zk9kcQ+e+LtoWHrzfr+/q7YtyuZxwIhpVbmggOu64Nsat+VVd1z3i0EPjEx+8KMZ3dNR1XaCxKQABAICG1dXdHf976ffi2z/4UXRneGFGZcrMqDz/76OtY+J+Z3T39cVQaSjhVDSkaiXa714eHXdcE/mBvroufexRR8Z/XvT+aGtrq+u6QONTAAIAAA1n+46dccl3vhPfv+xnMTg4mOks5SNOjfxpz4+WQmG/M3oHBmIg438Oaq+4bUNM+M1lUdy7ve5rn3fus+PNr31NFPL5uq8NND4FIAAA0DA2PbAlvvK/34ifXnV1Q5yTV3rWK6N18eEjyugfHIy+/v5EE9GICnu2xvg7ro3WTXfVfe18Ph/vfNMb4jlnPaPuawOjhwIQAADI3K+X3xqX/vgn8Ysbf5n1KBERMTx7UcQzXxmtHeNHlDNUGoqe/vo+Bkr9tGzfGO2rr4+2LXdnsv6E8ePjI//8vjjuqCMzWR8YPRSAAABAJnr7+uIHl/0sLv3JZbHpgQeyHudhpdP/IopHnBL5/L7f8vt7OeVy7O3ti6gmGoyG0bLl7uhYfWO0bN+Q2QzLlhwUH3rvu2PenDmZzQCMHgpAAACgru6577741vd/GD+7+prMz/f7XZVJB0Tl3NdG65TpI84qDw/H3p7eiKr2r5m0brwzOlZfH8XdD2Y6x3OfeU685XWvidaWlkznAEYPBSAAAFBzpVIprrru+vjOj34cd9xZ/3PSHkvplOdG8ainREth5BcoVCqV2NvTE9VqJcFkZC030Bft62+NcWtvjnx/V6aztLe3xXvf+pY48/TTMp0DGH0UgAAAQM3ctW5d/OTnV8bl1/wiurq7sx7nD1SmzYvKc14RrROnJsmrVivR2dsblYryb7Qr7toS7etujvb7V0UMl7MeJxYtWBD//i/viwXz5mU9CjAKKQABAICkdu7eHZddcWVcdsVVcd/GjVmP80eVnvqXUXzCSdGSH/muv/+zt6c3hsvZl0Xsv9YNq2Lcul9Hy45NWY/ysHPPPive+rrXRFtbW9ajAKOUAhAAABixoVIprrnhxrjs51fGzbfd1tA74MqHnRS5054Xra3tyTKr1Yiu3p4oKf9Gn8pwtGy5J9rvXxWtm9dGrjyU9UQPmzRxQvzz298WTz7xiVmPAoxyCkAAAJLJjezSVEahG399c1x9/Q1x1XXXR//AQNbj/EnDc5dG9cwLomXytOTZPf19MVQqJc+lRqqVaNl6X7TdvypaN94Z+VLjXEbzf0476aR415vfGFOnTM56FKAJKAABAEjGhafNr1QqxS9/c0tcc/0Ncd2vborevr6sR3pM1YlTovxnL4nWuYtrkt/T3x8DDXSbMX9EuRQtW++Nts1ro3XTXZEf6s96okc1vqMj3vjqV8a5Z5+V9ShAE1EAAgAAf1JXd0/86pZb4pc3/yZ+ceONMTAwSsquXD5KTzs/ioeeEK0Jz/n7XX0DAw2/83Esy/d1ResDa6Nl87po23ZfQ1zm8accd9RR8U9vf2vMmjEj61GAJqMABAAA/sDae9bHL2++OX75m1ti1V1rGvpMv0dTfsKTI3fqc6O1tXaXJvQPDkZvf2PuIhurcqXBKO7cHC077o+WB+6Olt0PZj3S4zJtypR43csvjGf92dMj5ywFoAYUgAAAQOzu7Iybl98at6y4PW749a9jT+ferEfaL8PzD4nKU/8iWqfUdgfVwOBg9IyCx5+bXb57d7Ts2PRQ6bdzYxT3bMt6pH12wXkviFf8zYtjXHu6S2kAHkkBCAAAY9Duzs749fJb49aVK+PW21fG5i2jY6fUH1M+4tTIHfdnUZg0peZvcoaGStHdZ+dfveV7O6O4e2sUO7dGcfeDUdyxOfKDvVmPtd9OOOaY+Mc3vD4WzJuX9SjAGKAABACAMWD1mrWxeu3auHPN2li9dl1s3Lw565FGLpeL8pOeFbkjTomW9o66LDlULsXe3p66rDWWFXdtiXz3zmjZszUKux6M4p6tDXtpx75aMG9uvOnVr4pTnnRi1qMAY4gCEACAZBxd1RgGh4bi7nvvjSuuuTZW3bUmVq1Zk/VISVXyxRg+9bmRP+zEaGmp3Rl/j1Qul6OrZ/TuOGs0uf6eKHTtjGLXzih07YpC186HvvR2NuWV4gvnz4+XXXB+nH3mGVmPAoxBCkAAAJJpwvfsDa+3ry/W3H1PrLtnfay9555Yu359bNi4adRd2vG4FIpRespfROHgE6K1WN+3MuXh4ejs7Ylqxv+Rt2y5Oybe8J2otnVEta0jKq3tUWmfENX2jqi0jotq2/iotHdEpe23327riGr7+LrMlisN/vbLQOQG+iNf6o98f3fk+3sjN9Ab+YGeh77090ShZ09dZmoEBy06MF56/vnx9KecFvka3UYN8FgUgAAAJGMHYG3dv2lzbH7wwVh79z2x9p57Yt369bFl6+i79GBfVdvGRfn086K49JhoLdT/Lczw8HB09vREtZJ9w91+z62RLw1GlAYj9rFEqxZaIgqFqObzEblCRL4QlXw+Ip+PyBeimis8/O3H/M1cjciVByM3NBC5oYGmeTw3pWUHLY6X/tX5ccZpp7rZF8icAhAAgGTsANx/w8PDsW3HjtiydWts2bottmzdFg9u2xZbtm6NB7duix27dmU9Yt0NzzkoKk/+8yjOWhitGe2cGh6uRGd3T1Sr2e+ozA32Rdum/X+cOzdcihguxe9WUfajpXfEYYfGS89/UZx60pOyHgXgYQpAAACSscnlD+3t6ordnZ2xp3Nv7Pnt151de2P3ns7Y09kZu/fsiQe3bY9tO3ZkPWpjyOejdMzTInfk6VGcWPsbff+USqUSe3u6o9IA5V/EQ7v/IrTsjeqJxx4TLzn/RXHCMUdnPQrAH6jr59Pevr74+ncureeSY9LmBx/MegQAYIzatXtP/NdXL8l6jOSGh4ejPFyOUqkc5eFylMvDUSqXo/w7X/7/94djb1fXQ+VeZ2fWo48alenzYvjkZ0Vh3sHR2tKS9ThRqVajs7c3hhvoLMX2e5ZnPQKP4vSTT4oLLzg/Djv44KxHAfij6loAbtm6LS6+5Gv1XJIRKOze5i8Y6yRfGty/F27flHYQ/qjqQH/sz6aW4p5tETkP19RDfnBg/16344GHzkSi9vr37+bMwp6tiQfhj8kN7efno9+xu7PTn/d43KrjJkb5iWdHfulRUeiYFIWsB/qtSrUae7t7Yni4nPUoDytu2zCmLs5odNOmTImzn35GnHv2WbF44cKsxwF4TLlqHa+xumn58njDO95dr+UAAIAGVD72zKgeemK0TJvVkJcjdHZ3R6ncOOVfRMTEG78bbRvuyHqMMa1j3Lh46qmnxDlnnhEnHHO0G32BUaWuOwB37/Y3VgAAMBYNH3xCVI48NYqzFkZLvlH2+j1SNTp7ehuu/MuVBqNt011ZjzFmnXTC8fGcs54Rp518UrS1tmY9DsB+qWsBuGuPAhAAAMaK4blLo3Lc0yM/b0kUWxq/OOnq7YtSqZT1GH+g7d4VEQ30OPJYcMwRh8dZZzwtnv6U02PSxIlZjwMwYvUtAO0ABACAplaZPieGjz8r8gsPjWL7uKzHedy6e3tjcGgo6zEeVfvaX2c9wpiw7KDFcdYZT4tnPO2pMWvGjKzHAUiqzjsAd9dzOQAAoA4qk6ZH+fhnRGHx4VHsmNgwl3k8Xj39/THQoOVfYefmKHZ7H1UrJxxzdDzp+OPitJNPcpkH0NTsAAQAAPZJtdgaw4c9KaqLj4zczAVRbBsXbQ14mcfj0dPfH/0D+3eTfD20r1+e9QhN5cAF8+OkE46Pk44/Po4/+qhoa2vLeiSAulAAAgAAj6m87LioLj0u8rMWRmH8pGgZpYXf72r08i9XGoz2DauzHmNUWzBvXpxwzNFxxGGHxgnHHB2zZ87MeiSATLgEBAAA+APVcROjfORpEYuOiOL0WdFSqOtbh5pr9PIvIqL13pWRKzfmo8mNKJ/PxyFLlsTRRxwexxx5RBx31JExedKkrMcCaAh1+yxeLpeju6enXssBAAD7aPigo6Ky9NjIzV0SLRMmR+Pf27t/RkP5FxEx7u7fZD1Cw8rn83Hggvlx2LJlceiyZXHYwcvikKVLPNIL8EfUrQDcudvBtQAA0Cgqkw6IyrLjozJvaeSnz47CuIlRzI/+x3ofy2gp/4rbN0Zx7/asx2gI4zs6YvHChXHQogNj6eLFcciypXHYsqXKPoB9ULcC0Pl/AACQnfKhJ0d14SERMxdEYcLkKBRbRt1tvSPV09cf/YONX/5FRLSvuznrEerugGnTYv7cOXHgggWx+MCFsWTRoli0cEHMPOCArEcDGPXqVwA6/w8AAGquMu/gGJ63NGLG/Mh1TIzc5AOi2N4RLVkPlrH/x959x9lVF/j/f5/b5t5pmZnMpBBSSEhIkCAdQklEOgKhS5NeRVjWyiIKiGLfr7rrurr72+5+3e/KKq4NFalSJARIIJUkpJNkksnM3F7O5/fHJKhIkimfc849976e/6CZO+/PJ3kE5tz3/ZR0Ljzln5PPKrn2taCnYVV72yg1NzVrVEuLRo/u0H7jxmrC+PGaMG6c9hs/TlMmTgx6igBQ03xcAcgWYAAAAMAWt2OC3IkzZMZOkdM+Rk5rmyKJlKKOU3cr+/YlLNt+d0uuWmgt64hDD9V7Zs5QPl9QvlBQoVhQPl9QoVhUoVBQLp8f+PVCcdc/C2//WaWSSTU0NCiRiKshkVBDYuB/JxuSam5qVEtLi1qamtTS0qyWpuaBfzY3qaW5Zdc/m9XS3KxUMmnt9wMAGB5WAAIAAABVqtI1SaZrf5nR+0ltXVLzKDmpFkWTjYpGIhR9gxC28s8Yo+QKe5d/fPLO23XApEnW8gAA4eRbAdizc6dfQwEAAABVz7S0ybSOkdsyWqZjjNQ2RmppVyTVLCeZUjSW8O9hvUaFrfyTpMSmNxTN9lrJOmz2IZR/AABJPhaAvX39fg0FAAAAWGcaUjKxhBRPSJGEFI/LjcbkxGNSNC5F4wNfj8RkUk1Sc5vU2Colm6RUo5x4Uk68QZFYXJFoVLvv22UVnzfCWP5JUnKlvdV/l84/z1oWACDcfCsA+/pHXgBWWjrUc96dFmbjjUQ8rlHNzUFPAwAAAB5w3uXXKO+qU1jLv0imVw2bVlrJ6mhr08knnmAlCwAQfhG/BuqzsALQbUhZmAkAAACAWhXW8k+SkisXSMZYybpk/nmKRHx7uwcAqHK+/UTotbAC0E1UewH4bp8LAwAAAPBDmMs/yd7tv9FIRBefd46VLABAbfBvBaCFAtBUeQHo0P8BAAAAgQh7+dew6mVF8hkrWae+b55aW1qsZAEAaoMvBaAxRunMyH+YVXsBCAAAAMB/YS//JKlxye+sZXH5BwDgnXwpAG2s/pMk09BoJccrrAAEAAAA/FUL5V9s0ypF+7qtZE2fNlWHzJppJQsAUDt8uQXYVgHIGYAAAAAAdktnc8oVwl3+SVJq2XPWsi6/4AJrWQCA2uFLAWjjAhCJW4ABAAAASEZSOptRvlAMeiojFunrVsPmN6xktbY067ST51nJAgDUFn9WAPZZ2gKcSFrJ8Qrr/wAAAACvGfVnsioUw1/+SVJqqb2z/84/+2wl4nFreQCA2hGuLcBVfgagCXoCAAAAQA0zxqg3k1GpVAp6KlY4xZySqxfZyXIcXXLeuVayAAC1J1QFoKr8DEAuAQEAAAC84RqjvnRapXI56KlYk1r2ghy3YiVr7vFzNKar00oWAKD2+FQApq3kVPsZgIYlgAAAAIB1rmvUm06rXKmd8k9uRcnlL1iLu3Q+q/8AAHsWrktAEinO2QMAAADqiOu62plOq1Kxs1KuWjSsflWRYs5K1n7jxumoww6zkgUAqE2h2QLsxpNyqnyPrWEJIAAAAGBNxa2otz+tiusGPRXrGpc+ay3ryosvspYFAKhNvhSAmUx2xBlulZ//J4lDAAEAAABLyq6r3v603Bos/xIbVyra120lqzGV0jmnn2YlCwBQu3wpAK3c0hVPjDzDY6wABAAAAEauXK5oZzotY2qv/JOk1OtPW8s654zTlUw2WMsDANQmfwrAsoUCMBIdeYbHWP8HAAAAjEy5XNbOdKZmy7/Y9k2Kb1tnLe+yC+ZbywIA1C5fCsCihRWAbggKQBYAAgAAAMNXLJXVl0nX9M6axkWPW8s67qgjNWH8eGt5AIDa5UsBWC6VRx4SggJQTu0+qAAAAABeKpZK6s1kavpT9WjvViU2rbSWd9UlF1vLAgDUNp+2AFsoAKPVXwDW8LMKAAAA4Jl8saD+bK7mH6hTrz1lLeugA6fp6MMPs5YHAKhtoTkD0IRhBSAAAACAIckVCkpns0FPw3OR9E4l37L17gAAIABJREFU33zdWt61l19mLQsAUPt8ugXYwgpAJzLyDI8Zt7Y/sQQAAABsyuYLyuRqv/yTpNSSZyTZeb8wccJ+OvnEE6xkAQDqg08FoIUVgGHYAmzpBzoAAABQ6zL5vLK5XNDT8IWTzyq56mVreVdfeqkcx7GWBwCofeE5A9AJQQFY42eWAAAAACNlJKWzWeULhaCn4pvUkt/JcStWskZ3tOsDp59qJQsAUD9CswJQUV+mOiIUgAAAAMDe9WcyKhSLQU/DP8W8km8ssBZ31cUXKxqC3VEAgOriS6tWtrAC0ERCcAYg/R8AAADwrlxj1JfJ2FkcECKp5S8oUrKz2rG5qUkXnfsBK1kAgPoSmi3AYTgDUDIyRuI4DgAAAOAPXNdVbzqjcsXC0UBhUi6pcdnz1uIuPf88NTQ0WMsDANQPXwpA13VHHuJU/xZgSTJy5aj6VysCAAAAfqhUKtqZzsi1dAZemKRWvCCnaOeik4ZEQldcdKGVLABA/fG8VSvYOtw3BFuApV3bgFkBCAAAAKhcqWhnOi1jY0FA2JRLSi191lrc/LPPUktzs7U8AEB98bwALFfsfNIXji3A4iBAAAAAQAPHAPWm03V7UV5y5QJF8lkrWdFIRNdcdqmVLABAffK8AIxZKu6ckDw3uMYoJFUlAAAA4IlCsaS+bKZ+Pxx3K2pc8rS1uDPef7I6Ozqs5QEA6o/3BWDM0hBuOA4Mduv1IQcAAACQlCsUlM7aWfkWVg0WV/9J0vVXXm4tCwBQnzwvAKO2tu6G5MYwCkAAAADUq0w+p2wuH/Q0guVW1PT6M9biTjruOE2cMMFaHgCgPvlys4aNVYBOSA4OrssDjgEAAFDXjJH6MhnKP0nJVQsVyfVby7vxQ1daywIA1C9fCsC4jW3AYVkB6LICEAAAAPXDGKPeTFqFYjHoqQTPrajx9d9Zizv80NmaOf1Aa3kAgPrlTwEYt1AAmnCsrHNDMk8AAABgpFzXaGc6rVKpFPRUqkLD6lcVyey0lnfNB7n5FwBgh+dnAEpSLGpjCzArAAEAAIBqUXFd9abTqlQqQU+lKhhj1PTaU9byDpg8SXOOPspaHgCgvvlTAFpYAeiUw1EAGlEAAgAAoLaVK2X1ZjJyK+x+2S25+hWrq/+uv+IKa1kAAIRmBWBotgBzCQgAAABqWKlSVm86LcPOlz+oVNS46HFrcZP231+nnzzPWh4AAL4UgDbOAHRCcgmIMTwIAQAAoDYVSyX1ZjID1/7ibcmVv1c022ct76YPXWUtCwAAya8CMBYfeUhIVgAaY+Qao4jjBD0VAAAAwJp8saD+bFacePMO5aIaF9s7+4/VfwAAL/hyC3AsFh1xRljOAJSkCmehAAAAoIZk8jn1Zyj/3k3jkmcVKeas5d1x0w3WsgAA2M2fMwBjFoYJyS3AkuQaV9LIS08AAAAgSMYYpbM55YuFoKdSlZxCVqmlz1rLmzV9uubOOc5aHgAAu4WoAKyMPMMnXAQCAACAsHNdo75sWqVSeD6I91vqtSfllIvW8j58w3XWsgAA+GO+FIANicSIMyIUgAAAAIAvKm5Fvf0ZVUL0DO63SLZPqRULrOW99z3v0TFHHG4tDwCAP+ZLAdiYSo08pBKeh48KBSAAAABCqlQqqzeblnE58G9vUq/+Vo7FgvQvb7vZWhYAAO/kSwHY2tIy4gynmLUwE3+wAhAAAABhVCgW1ZfJBD2Nqhfp61Zq9avW8uYcfZRmzZhhLQ8AgHfy5RZgGwVgpFySKiULs/EeKwABAAAQNtl8nvJvkJpe/rVsXon8kRuvt5YFAMC78aUAHNU68gJQGrhlKwxcw3YJAAAAhIMxRv2ZrDK5XNBTCYXYtnVq2LDcWt7JJ56gAw84wFoeAADvxpcCsKW52UqOU8hbyfGcMawCBAAAQNVzXaPeTFr5YiHoqYRG84JfWMtyHEe3XXettTwAAPYkNFuAJSkSkhWAEtuAAQAAUN0qbkU7+/tVKpWDnkpoNKxZpNiOzdbyznz/yZo8cX9reQAA7EloLgGRQlYAVipSzJc/XgAAAGBIuOl3GCplNb38G2txkUhEN1/zIWt5AADsjS8N1ShbBWCIbgIuVypBTwEAAAD4M9z0OzzJpc8pkuuzljf/rDO137hx1vIAANgbf1YA1tklIJLksgUYAAAAVSabz3PZxzA4+YyaXnvKWl40GtXNV19lLQ8AgH0J1xbgfHgeVlgBCAAAgGphjFE6m+Oyj2FqXPS4nErJWt4l552rjvZ2a3kAAOyLLwVgKpmU4zgyZmRnjIRrBaCRMUaO4wQ9FQAAANQx1zXqy6RVKnPZx3BEd25T6o2XrOUlkw264aorrOUBADAYvtwCLEntbW0jznCK4VkBKBluAgYAAECg3r7pl/Jv2BoXPiqNcCHDH7vsgvOt7ZACAGCwfCsAbVwEEimE67DicoUCEAAAAMEoFIvq6e9XxeVomuGKbXlTDZvfsJbX1NioD116ibU8AAAGy5ctwJKdcwCdQt7CTPzjuhVJ8aCnAQAAgDrDZR8jZ4xR84s/s5p5/ZWXq7mpyWomAACD4VsBOMrCTcCREJ0BKHERCAAAAPxljFFfNqtisRj0VEIvtfJFxXq3Wcsb29Wlyy4431oeAABD4VsBOLara8QZkVI+VBdrlCqctQIAAAB/VFxXvem0KnwIPWJOqaCmVx+3mvmxD9+qWMy3t18AAPwJ384AHDtmjJWcaLbPSo4f3Ior1+KBwQAAAMC7KZbK6unro/yzpPGVx6xeQHjY7EM074TjreUBADBUvhWA48aMfAWgJEXSPVZy/MI2YAAAAHgpm8+rN52W4YNnKyJ925RcucBq5t133mE1DwCAofKxALS0AjC900qOXypsAwYAAIAHjDHqzWR2XfZB+WdLy/M/kWNca3nnn32WDpg8yVoeAADD4d8ZgJZWAEYz4SoAyxV7Dw8AAACANHDeX186ozIfNlsVX79M8W3rreU1plK69dprrOUBADBcvhWAXaNHKxqJqOKOrBAL2xbgUpmHMgAAANhTLpe1M5ORGeFzNd6hUlHzgl9YjbzhqivU3jbKaiYAAMPh2xZgx3E0xsJNwNGQFYAV1xXHsQAAAMCGfKGonv5+yj8PpJY9p2i211re2K4uXXbB+dbyAAAYCd8KQMnONuBIyLYAyxhVXFYBAgAAYCSM0rmc+rOZoCdSk5x8Vo2Ln7Sa+bEP36pYzLcNVwAA7JWvBaCNi0CiuX7JDdfNuqVyuOYLAACA6uEao539aeXy+aCnUrOaFj4qp1KylnfY7EM074TjreUBADBSPheAFi4CMSZ0NwGXKhSAAAAAGLpSuaKe/j7OlfZQdPsGJde8ajXz7jvvsJoHAMBI+bom3cYKQEnK7+yR2xOeErDgRJQe1RL0NAAAABAiplyRm83K4bw/T41682WreeeffZYOmDzJaiYAACMVui3AkhStFK3k+Ma4MqwCBAAAwCC5hYJMOk3557FYpaDmDa9Zy2tMpXTrtddYywMAwJZwFoD5tJUcP5kS2zYAAACwb242K+U47897jka/+kuriTdcdYXa20ZZzQQAwAZfC8DxY8dayYlleq3k+MlUKAABAACwZ8atyO1PS0V7l1Fgz5q2rVYs22ctb2xXly674HxreQAA2ORrAZhMNqht1Mg/EUv0bbUwG385ZbZvAAAA4N2Zclluf0bi2BhfRORq1IrfWc382O23KRbz9Yh1AAAGzdcCUJKVA3HjPZstzMRnxpWpUAICAADgD4wkk8/LpLNyjAl6OnXBSOpY+qTVP+/DZh+iecfPsZYHAIBt/heAk0ZeAMbyaSkatTAbf5ky2zkAAAAwwBgjk87K5AsaqKXgh2R2hxq2b7Caefedd1jNAwDANt/XqE+dMtlKTtStKHQbJNjSAQAAAA2c92fSWYlbfn3lOFLHol9bzbz0/PlWdjkBAOClUK4AlKRIMWMlx1dlLgIBAACod6ZYkunLUP4FoHXNy4qUi9byOtradNt111jLAwDAK74XgLZWAMbTPVZyfOUazgEEAACoU0ZGbr4gk82KLb/+i5Xzat7wmtXMu//iDjWmUlYzAQDwgu8FYEdbm1pbWkac09CzycJs/GdYBQgAAFB3jHEHtvzm80FPpW51LHrUat4Jxx6jeSccbzUTAACv+F4ASnZWASa3vjnyiQSBAhAAAKCumHJZpi/Nc2CAmresUDzbZy0vlUzq3o/eZS0PAACvBVMATh55ARgpF+REApn+iJhymQ0fAAAAdcDIyOQLAyv/DE+AQYm6FY1a+YLVzNuuu1Yd7e1WMwEA8FIgDZqtW7KiFXsH+PrFMYZPfwEAAGqd68qkMzL5vDjvL1ijF//Kat6MadN06fnnWc0EAMBroV0BKEkxi8v4/WRKFIAAAAC1ypRKcvvTUrkS9FTqXuOO9Yr3d1vLi0QieuBTn5DjONYyAQDwQ0AFoJ0VgInet6zk+I2LQAAAAGqRkcnlZTJs+a0GEeOqbelTVjMvu/B8K+eZAwDgt0AKwI72djs3AW9ZbWE2/nMqFRkeCgEAAGqGcV25/RmZQiHoqUADm647lj4ux7jWMrtGj9at11xtLQ8AAD8FdouGjU/OEpkeSSFdfl8sBT0DAAAAWPD2lt8KW36rRSqzXQ07NlnN/MzHP6qGhgarmQAA+CW4AnCSnW3AEcfep3p+YhswAABA+JlcTiaTHbjoDVXBcRx1LHrUauYpc0/SsUceYTUTAAA/BVYAzjhwmpWcWDFjJcdvplzmPjgAAICwcl1V+vplCsWgZ4J3aF/xjByLqzFTyaQ+fvtt1vIAAAhCYAXgIbNmWcmJ926zkuM3xxiJVYAAAACh4xaLcvvTctxw7kSpZYlcr1KWzwm/46Yb1NHebjUTAAC/BVYATpsyWQ2JxIhzmjavsDCbYJgS5wACAACEhTFGbjYnZXPc8luNHKnzlZ9bjZwxbZouPOcDVjMBAAhCYAVgJBLRIbNmjjgn3rtVikQtzCgAxRLbgAEAAELAVMoy/WmpyJbfamQkdS59Uk7F3g6baCSiBz71CTlOSC8dBADgjwRWAEqyUgBKUqySt5LjO7YBAwAAVD1TKMjtz0ps+a1aqb631NC9zmrmlZdcrKlTJlvNBAAgKAEXgHbOAUz0d1vJCQLbgAEAAKqUMTKZjEwuL4d9G1Urooo6Fj9mNXP82LG6+eqrrGYCABCkQAvAQw+2UwAmLR/066tiSYYHSgAAgKpiymVV+tIyJXZrVLvRi34lx9hdnXnvx/5S8XjcaiYAAEEKtABsGzVK+40bO+KcgZu+Qno2hzFSqRL0LAAAACDJyMjk8zLprPVSCfY1bVutRJ/d3UCXnj9fRx32XquZAAAELdACULJ3DmBU4S3R2AYMAAAQPOO6MumsTL4gsUOj6kUrRbWteNZq5n7jxukjN15vNRMAgGoQfAE408424Fi2x0pOIIol8ZAJAAAQHFMqye1Pc0FbiHS+8ouB3TSWOI6jL37m02pIJKxlAgBQLYIvAC2tAExuW2slJxhGpsjDJgAAgO+MkcnlZTJZORbLJHirdcMixXJ9VjOvv/JyzZx+oNVMAACqReAF4EEHTlM0Gh1xTtOmFaFeRGfKbAMGAADwk6lU5KYzMoVC0FPBEMSLabW8+arVzGlTpuiGK6+wmgkAQDUJvACMxWKaNWP6iHOcSkkRJ7wNoCmWrG5hAAAAwLszkky+MLDltxLec6TrkiN1LvyZ1chYLKYvfubTVhYlAABQrQIvACVp9iw75wAmQnwOoCPJLbAKEAAAwFOuK5POyOTzcoKeC4bESBq99ElFykWruR+58XpNnri/1UwAAKpNdRSAB9spAJNb11jJCUzJ7sMMAAAA/sCUSqpw0UdoNe3cqGT3OquZh8ycqcsuON9qJgAA1agqCsBjjjjcSk7j5uWSE+LPcisVGR5IAQAArDLGyORyXPQRYhFTVtvrT1jNbGps1EOfuUdOmN8/AAAwSFVRALY0N+vgg2aMOMepVBSVa2FGwTEFVgECAADYYspluf1pnrFCrvOVX8gxdp/zP/bh2zS2q8tqJgAA1aoqCkBJOu6oI63kJHZusZITFFPiMhAAAICRMmbgog+Tzshxw/0Bcb1r3fCa4pmdVjNPPO5YfeD0U61mAgBQzaqmADz2SDsFYPO6xVZyguKIVYAAAAAjUnFl0mmZfD7omWCEEoW0Wt582Wpm26hRuu8TH7eaCQBAtauaAnD2rJlKJhtGnJPofSvc5wBq1ypAAAAADJlbKMpNp6VKJeipwILRC39qPfOBuz+h1pZm67kAAFSzqikAo9Gojj3iCCtZiUK/lZzAVCpyuQwEAABg0Ixx5WYyUi7HcSo1wEgavexJRSp2Pxg/5/TTdJylnUcAAIRJ1RSAkr1zAFNvrbKSEyi2AQMAAAyKKZbk9mekEh+g1orm7WuV7F5nNXNMV6c+/pEPW80EACAsqqoAPP6Yo63kNG14XaH/3LdUluHAagAAgD0yxpWbzcpks1z0UUOi5YLalj1tPfeL935aqWTSei4AAGFQVQXguDFjNGH8+BHnOG5FcRP2c/QMl4EAAADsgSmWZPrSUjHsz3x4pzELHrG+jfvyiy7QIbNmWs0EACBMqqoAlOxtA05uX28lJ1DFoozh02wAAIDdjDFyszmZbJaz/mpQ55LHFCkXrGZOn3qAPnLD9VYzAQAIm6orAI890s5FIM1rXg3/NmBjZAp8qg0AACBJpliU6euXiuySqEXNW1aqYccmq5mNqZS+cv99isViVnMBAAibqisAjznicEUjI59WtJBW1MJ8Alcs8uE2AACoa8YYuZmsTJYbfmtVvJjRqJXPW8+9/1Of0H7jxlrPBQAgbKquAEwlk5p98CwrWQ3pbVZyAuW6MiU+5QYAAPVp4Ky/fqnEroha5Ujqeukn1nPnn3Wm5h0/x3ouAABhVHUFoCTNOdrObcDNa1+1khM4LgMBAAB1xriu3HSWs/5qnqPOxY/KqZStph4waZI+dvttVjMBAAizqiwA5845zkpOomez5FTlb3FoKhW5JbsPRQAAANXKFIpy+9NSmVV/ta5t46tK9G61mtnQ0KCvPnCfGhIJq7kAAIRZVbZjU6dM1qT997eSlcjvtJITNMMqQAAAUOtcVyadkcnl5LDqr+Y15HeqaY39HTufvON2TZywn/VcAADCrCoLQEk6Ze5JVnJaVr9kJSdoTrkkY3lrBAAAQDUwkkyhILcvLVPmeaceRI2rzgX/az33lLkn6ZzTT7OeCwBA2FVvAXjSiVZykts3yHEcK1lBM/lC0FMAAACwyriulM7I5PIaqAJR8xxHYxb82Hrs/vuN12c//jHruQAA1IKqLQCnT5uq8WPHWslq6Ld7rkhgSmWZciXoWQAAAIyYMUYmn5dh1V/d6Xz9MUUKGauZiXhcX3vgfiWTDVZzAQCoFVVbAErSae+bZyWndU1tbAOWJJPPBz0FAACAETFuRcpkdu1uYNVfPWnd+Loadmy0nnvXrTfrgMmTrOcCAFArqroAfP9cO9uA473b5NTKw2W5LMONwAAAIJSM3Fx+11l/7GqoN8l0t1rWLLSeO3fOcbro3HOs5wIAUEuqugCcNX26tW3AqZ5NVnKqgSmwChAAAISLqVTk9mekQkG1cTozhiJaKanj1V9azx0/dqzu/9QnrOcCAFBrqroAlKT3W7oMpGX172tlDaBUrsgUS0HPAgAAYFDcfF6mPy1VWPVXrzpf+okcY/dpPBqJ6Kv3f1ZNjY1WcwEAqEXVXwBa2gYcy6UVVe08dJoCNwIDAIDqZsoVuX39Up7nlnrWueS3ihWz1nPvuOlGTZ821XouAAC1qOoLwENmztTojnYrWY1b11jJqQoVVgECAIDqZIwZWPWXTkuuG/R0EKCWja95cunHcUcdqcsvusB6LgAAtarqC0BJOnXeXCs5LasWSE7tnDpjcpwFCAAAqosplmT6WfUHKblzo1rXvGw9d0xnpx78q7ut5wIAUMtCUQC+/6STrOREKiXFSzkrWVXBuHJ5uAYAAFXAVFyZdEYmm5Xcmjl5GcMUK2Y1+vXHrefG43F97XP3q7Wl2Xo2AAC1LBb0BAbjve85WKM72rV9R8+Is1rWvaodU4+1MKvqYPJ5mURcTiQUXS5QNcY2J3VAW0qHjmnV1I6mgV9ratDY5gZJ0qodGWVKA+eGLt7ar0Vb+rSmJ6N0sRzYnAGgWrm5vAy3+2KXiHE15qUfS5Yv/ZCk+z7xMR104DTruQAA1DrHGA9+MnvgW9/7R33/hw9bydr0vutkyjX0Jj4eU6SpKehZAFVvbHNSp07t0qkHdL5d9A3Vqh0ZPbL8LT2/oYcyEEDdM6WyTC7HOX94myNpzIs/UqyQtp59+UUX6K5bbraeCwBAPQhNAbhuwwZdcv1NVrJ2HHamcs1dVrKqhdPcKCcWD3oaQFU6dGyr5h80TnMmdljLTBfLem59j/7ztY3akuY8TgB1xnUHdiFwIRneoWvxr5To3WI996jDDtPffOkLirDrBQCAYQlNAShJt3z043rltddHnFNJNmnz0RfKCc3vfN9MJKJoa7PE5hvgbWObk7r5iElWi7938/3FG/XIss2sCARQ84yMlC/KFAqebO9EeBlJHWteVOPGZdazx3R16v9+7+/VzI4XAACGLVQfoc0/60wrOdF8RolybV2e4biu3Hwx6GkAVWP+zPH6m7MO8bz8k6QrZ0/QP80/TIeObfV8LAAIiimXZfozMvk85R/+TOvWNzwp/xoSCX3jCw9S/gEAMEKhKgBPfd88NTU2WslqXr3QSk5VKRQ4gwd1rzkR018eN023HDlZzQn/7jlqTsT0pVMP1vyZ430bEwB8YYzcbF4mnZEqlaBngyrUkOtR64rnPMl+8K8+pWlTpniSDQBAPQlVAZiIx3XmKe+3ktW45Q05tbZb1hi5ec4iQ/1qTsT0xVNm6bRpwZ3xecuRk/WXx3E7IYDa4BaKcvvSUrG2dk7AnphbUudLP/Uk+7orLte8E473JBsAgHrj3/IYSy4852w9/L92HjKatq5WumuqlayqUSzJxEpyElwIgvqyu/yb1jH4LULZTEavLFio7u5uLXt9yZ99feLkSZo8ZYpmHDxLnV2dg87dXUD+n+dXDfp7AKCamEpZJptnxR/2ypFR1+8f9iR7ztFH6ZZrPuRJNgAA9ShUl4Dsdu3td2rpypUjzjFOVJtOvEoyNbZt1nEUaW1R7S1xBN7dUMq/bCajZ59+Rs888aTWr1036DHmzD1JN952y5Dm9etV2ygBAYSKMUYml5eKnCuMfXAcjXvxR4rm+61HT9p/f/3rt7+lxlTKejYAAPUqdCsAJem8s8/U0m+OvAB0TEXJzHblG9stzKqKGCM3l1ekkYcm1Id7584YVPn3k4d/pF/9/BfKZbNDyh9O+ScNrATcmsnr+4s3Dvl7AcBPRkYmX5Ip5OWE77Nh+M1x1LX4UU/Kv1QyqW984XOUfwAAWBaqMwB3O+uU9yset7PFddSyp63kVJ1iUaZUDnoWgOeunD1hn7fvdm/r1v1336NHfvjwkMu/GbNmDqv8e3t+h07kdmAAVW3gdt+0lM9R/mFQRr/xnBI7t3iS/dC992jCeC7UAgDAtlAWgKlkUmec/D4rWbFsr2KV2tzmYnI5hXCHNzBo0zqadOWhE/f6mnVr1+r+u+8Z0nbfP3a5hfOH7p07w9cbiQFgMIzrymRyu273rbHjUOCZ1i3Lldw88p047+bW667R8ccc7Uk2AAD1LpQFoCSdf/ZZ1rJGrfq9tayq4roy3AqMGnbTEZP3+vXfPfW0Hrj700Ne9bfbxEkTNWny3scYjOZETFfOnjDiHACwwhiZfF6mPy1Tqs0PQeGNVN9balnpzXPzvOPn6LrLL/MkGwAAhLgAnH3wLE2cYOcNdXLrGkUiNXphRqEoww1+qEFzJnbsdWvturVr9U/f+e6Ixjj8qKNG9P1/bP7M8RrbnLSWBwDDYcolVfrTMvmCxC4BDEG8lFXHol97kj11ymQ9+Fef8iQbAAAMCG0BKEmXzj/XWlbL5uXWsqqNyeR4yEfNuXkvq/+ymYz+9uvf8HE2g8MqQACBcV2ZTFYmnZXjst0XQxNVRWNeeNiT7FGtrfrrBz+nhoYGT/IBAMCAUBeA5515prWHheaVL0iRUP9x7JlbGfikH6gRcyZ2aGzznv/d/6e//562b9vm44wG59SpXawCBOArY1y5ubzcvn6ZUino6SCEIo7RmGf/y7P8b33xCxo/doxn+QAAYECoG69kskHzzzzDWl7TjrXWsqqNKRR48EfNOHVq1x6/tmzJUr284CUr46xba/+/CXMmtlvPBIB3Y4pFmf6MVOBDQAyPE3E05vf/o4jrzXEyX77vM5o5/UBPsgEAwJ8KdQEoSR+84HxrWW2vPSGnVlcBSjJZtgIj/JoTMc3Zf88l2jNPPmVtrFdeWqhsJmMtT5JOmdJpNQ8A3smUy3L70wM/99nui2FynIjGvPQTRQvDu0hrX+646Qa974TjPckGAAB/LvRt1/77jddJxx1nLS/V95a1rKpjjNxh3oYKVIvjJnbs8Wvd27r13FNPWx3vxz8c2plH3du6tWzJ0j1+fVpHE9uAAXjCuK5MNiuTzkhcAIaRcBx1vfpzxTI7PYk/+7RTddUlF3uSDQAA3l3oC0BJuvLiC61ljVryhOTUxB/LuyuVZQrFoGcBDNu0ttQev/a7J560Pt5jv/yVfjfIUnHg8pG/3ucqxKntjTamBgCSJGOM3HxBpj8tU+S4D4yQ42j00icU7/PmLN2jDz9M933iY55kAwCAPauJpuvwQ2dr+rSpVrIixYJSmW4rWdXK5PIyrAxASO2tPHv5JTtn/73TP33nu/rJwz/a62u6t3XrKw9+QevXrtOKpcv2+tqpeykxAWAoBs75S0v5PMd8wIqOVc886lqNAAAgAElEQVQr2b3Ok+xpU6boqw/c50k2AADYu5ooACXpmg9eai2r7bXfSI5jLa/6GJlMTsZwLhDCZ/bYUe/669lMRuvXevOGRZIe+eHD+uSdf6nf/PJRLV+6TNlMRuvWrtXypcv0//399/SpO+96e/zt27bt9QKRQ8e2ejZPAPXBlCty05zzB7va1i9SatMKT7I72tr0t19+SKkkx2AAABCEWNATsOW0983T3//Lv2rDps0jzhpYBbhducY9nzUWem5FJpeX08hWRNSGdR6Wf7tt37ZN//df/31Qr81mOG8TgH2mUpHJF6QSW31hV8u2N9S09lVPspPJBv3Nlx9SR/ueL/ECAADeqpkVgJJ004euspY1cBZgLa8ClFQsyS0Ugp4FMGhhujxj/V5WAO5pFSMA7IlxXbm5/MB2X8o/WNbYu0mty5/zLP+r99+nAw84wLN8AACwbzVVAJ55yvs1tqvLSlY0n1Ey22Mlq6pxHiBCZGxTYo9f295dXWd3ZtOZoKcAoBa47tsXfIgP7eCBpt5Nal/8mGf5n/34x3TMEYd7lg8AAAanpgpASbr5mg9Zy2p/7bHaXwUoyaSznAeI0MtmKNwA1JBdN/u6XPABDzX2bVabh+XfDVddoQ+cfqpn+QAAYPBqrgA85/TTrK0CjBSyauod+ZmCVc+4Mplc0LMARmTi5MlBTwEArDCFotz+foo/eCqV2ab2Rb/xLP/CD5ytm6+298E8AAAYmZorAKWBTxttaVv0aylSk39Mf6pclsnng54FsFdbMsWgpzBonWPH7PFrmSLb7gH8OVMqye1Ly+RykkvxB+8ks9vV8fIvPcs//eR5+tRf3OFZPgAAGLqabLbmn3WmRnfYu2Ws5a2V1rKqmckXZIrhKVhQf7ak91xST5o8yceZ7NvEvcxndU/ax5kAqHamXJbbn5HJZCWXDwjgrYZcj0Yv/Lln+cceeYQe/Ku7PcsHAADDU5MFoCTdcKW9VYCtK55VpA7OApQkk83JlMpBTwPYo9U9737WX2NTkyZOmujzbN5dMpXSpL1sSV7dk/VxNgCqVqUik8nKpDNShZ+98F4i36vOl37qWf7sg2fpqw/c51k+AAAYvpotAC869xyrqwBHrXreWla1M9ksNwOjau2tPDvhffN8nMmeHX70UXv9+qqdnLkJ1DPjVuRmc3L70zKlUtDTQZ1IFPrVteAnnuVPn3qAvvnQ59WQSHg2BgAAGL6aLQAl6drLPmgtq3HTCsVUJ6WYMQM3A7vcDIzqs2hr/x6/dtDBs3ycyZ4dedSRe/364i19Ps0EQDUxxpWby8v0pSWO3ICPEoV+db34Y8/yJ06YoG9/5Utqamz0bAwAADAyNV0Azj/rTI1qbbWW1/76E9ayqp5xB7YlcfsgqszeyrNJkydrxqyZPs7mz43u7NzrCsCtmcJezzIEUHuMMQPFX29aKhSCng7qTLyY8bT86+zo0He+9mWrz9wAAMC+mi4AGxoarK4CTPRsUqJSR2/cKxWZLGeVobpsSef3eA6gJM2/+CIfZ/Mu41+y9/GfW7/Dp5kAqAZuoSDT17+r+ONDNfgrXujXmN//j2f5rS0t+s7Xvqyu0aM9GwMAANhR0wWgJF107gfsrgJ89Vcy9XEfyIBSWW6W88pQXX6zpnuPX5t58CwdduQRPs7mDyZOmqgT5p6019f8ePkWn2YDIEhusSi3r1/K5SVW0yMAiXyvxni48q8xldLffeVLmrT//p6NAQAA7Kn5ArChoUFX7WNFzlDEsr1qzO20lhcKxaLcHCUgqsdvVm1TprjnMzlvuO0WJVMpH2c0cPPv9R++da+vWbyll+2/QI0zpZLc/rSUzUmcpYuANGR7PL3wQ5K++dDnNX3aVE/HAAAA9tR8AShJF593rpqbmqzljXr115JTT8sAJRWKMnnOLUJ1SBfL+vGyTXv8emNTk+74+Ed9nJF0xbVXa9LkyXt9zfcXb/RpNgD8Zspluem0TCYrVerk0jBUpYb0NnUu/KmnY3z9c/fr0Pcc7OkYAADArrooABtTKaurAKOlvJp21t8beZPPyxS4tRDV4ZHlW/a6CnDmwbN0/W23+DKX62+7ZZ9bf5/b0KNF3P4L1BxTLsvNZGXSGalM8YdgpXo3qfOVX3o6xlcfuE8nHnesp2MAAAD76qIAlKQPXnC+Usmktby2xY9Jkbr543ubyeVkiqWgpwEoXSzruwvX7vU1J8w9Sdd7vB14MOVfpljR917a+1wBhMvAir9dxV+Jn4sIXuOO9epY/JinYzx07z2aO+c4T8cAAADeqJsGqzGV0pWWbwcdtf5Vq3lhYbJZmVI56GkA+s2qrXpuQ89eX3PC3JP0qfvu1cRJE62OPbqzU5/4zKf3Wf5J0vdf28DZf0CNMKWy3HRm14o/ij9Uh+atq9S+5AlPx3jo3nt0yiB+5gEAgOrkGFM/V9P1p9Oaf9U1ymSz1jK3nnC5Sk7MWl5oOI6c5kY50Tr8vaOqNCdi+tuzZ2tMU8NeX5fNZPTrn/9Sv/rFL5Uf4aU2c+aepCuuvkqNgzhb9LkNPXrwyeUjGg9A8EypLFMoSGU+AEN1adm8XK2rfu/pGA986hM685T3ezoGAADwVl0VgJL03z/5X33tb//OWl65uV1bDj9Xqq8/xgGOI6epSU4sGvRMUOemdTTpS6ccrKbEvv8u7i4Cf/fU09re3T3oMZKplA4/+iidf/FF6uzqHNT3rO7J6O7fLFW6SGEAhBXFH6pZ68bX1bJmoadjfPqjd+m8M8/wdAwAAOC9uisAJelDt31EK1atspbXc+ipyraOt5YXKo4jp6lRToyVgAjWUErA3ZYtWarlry/RurVrlc1mtWLpMkkDZd+kKQM3+k6cPEknvm/ePm/4fSfKPyDcKP5Q7Uate0XN6xZ7OsYn77hdF517jqdjAAAAf9RlAbjqzTd1xc23Wc3cPPdquW7d/VEOcBw5jY1y4pSACNZwSkAvUP4B4WVKJalQkOFGX1SxtjdfUtOGJZ6OQfkHAEBtqZtLQP7YtClTdPlFF1jNbF/xjNW8UDFGJpMZeNMEBGjVjozufmyJtmYKgc3huQ09lH9ACJliUW5/WiaTpfxDVWtb9YLn5d9dt95M+QcAQI2pyxWAklQoFHTxdTdq6xDOANuX7mMuUCHRbC0vjJymRjnxeNDTQJ1rTsT0l3Omac7+7b6O+/1F6/X9xRt9HRPA8BnjyhTKUrEguW7Q0wH2qWPF00ptfdPTMT58/XW65rJLPR0DAAD4r24LQEl6fsFL+ot77rWauWnuNTJ1/ibCaWyUk6AERPDmTOzQLUdO3ucNwSO1eEuvvrdwnVbtyHg6DgA7jDFSoThwxl/9PgYhRBxJoxf9Ug192zwd58arrtRNV1/l6RgAACAYdV0AStLdn/u8Hn/md9byMpPfq50TD7WWF1ZOKiWnIRH0NAA1J2Kaf9BYnT9zP+tnA67uyejHy7foN6u2Ws0F4A1TqcgUi1KhGPRUgEFz5Grs73+kaDHr6TjXXHapPnz9dZ6OAQAAglP3BeD2HT266NrrlcvnrWVum3OpilFvVxyFgZNskJNMBj0NVAPXVcy4at6+TvFsvySpMHaysqkOlU1FchzPp9CciOm4iR067YDRmj121LBzMsWKntuwQ79ZvU2LtvRZnCEAr5hyWaZQkkoUfwiXqFvWmN8/rEjZ27+7rPwDAKD21X0BKEn/75Gf6Ovf/o61vEqySW8dczHnCUlSIq5IY2PQs0AQXFfxSkVNqxcqtfLFPb6scOjJ6p9yqEquf4fu7y4DDx3TorFNib0WglszBW1J57W6J6vnNvRQ+gEhMnCjb1GmzKU8CJ94MaPOBY8o4vHPx7tuvVmXX2j3cjwAAFB9KAB3ueb2O7Rs5RvW8tLTj1Xv2BnW8kItFpPTlJLj1OWl0/Vld+m38gWlVr8ypG/tPfs2ZSN2t+gOVXMipqntA4U1RR8QXqZQlCkWpAofxCGcGtLd6nzlF56P8+mP3qXzzjzD83EAAEDwKAB3WfXmm7ri5tusZm454TKVHS7DkCQTiSjS3CQnQglYU1xXEWMUz/ap5fXHFe/eNKK4bed8RKzTATAsxsgUCjKFIhd7INQad6xT+5InPR/noXvv0SlzT/J8HAAAUB0oAP/It773j/r+Dx+2llduHKUtR87njcguJhJRtKlRiga7ygsj47iuYuWSGjevUONiu29QKuOnaevhZ0oR788EBFAbjOv+4WIPft4i5Fo3LlHLmpc8H+cr939W846f4/k4AACgelAA/pFCoaCLr7tRW7u7rWX2H3iU+sbNspYXfs7AduA4KyNDo+IqZipK7HxLo55/xPPhtp11m8qUxAD2wZTLUqEkw8UeqBFtq19Q06YVno7RkEjo6w8+oKMPP8zTcQAAQPWhAHyH5xe8pL+4516rmVuPv0ylCIXXH3MaknJS3JRclVyjqHGVSO9Q4+Inldj5lq/D9805X5nR+/s6JoDwMKXSwDZfLvZAjXAkdbz+WyV7Nno6TjLZoG9/+Us6ZNZMT8cBAADViQLwXdzz+Yf02FNPW8srJ5u15egL2Zr0Tom4nFRKjsN2z8C4rmQcxUxFDX1blVz6rBI9/hZ+71SYPFs7Zs8LdA4Aqo8pFAeKPx9vDAe85sio6+WfKZ7p8XSc5qYm/e1XvqhZ06d7Og4AAKhesaAnUI0++uFb9dyLC5TN5azkxfJptW5ewlbgdyqW5JYrXA7iF9fIMUYxU1EsvUOxHW+peYm9otuakp1/7wDUANeVKZbkFotyXG70RW2JyNWY3/+PokVvf+61trToe3/9NR0weZKn4wAAgOrGCsA9ePTxJ/TZL37Zaua2OZeqGGXb659xdp0LGGObtDWuq4iRYpWS4r1blVzxQuAr+war76izlRk3NehpAAiQcStSscSNvqhZsVJOXQseUaRS8nSc6dOm6ov33qOJEyZ4Og4AAKh+FIB78Yn7HtBTzz1vLc9E49p84pUyFbYvvatkUpEkBelQGDNQ9EVcV7FSToltG9S86LGgpzUi20+9TsVkU9DTABCAgfP9SlLZ21IECFJq5yZ1vOb9z+qjDz9MX3vgfiV5tgIAAKIA3Ku+/rQuuf5G7ezttZZZGH+gug88nhUNe5JIyEklORfwnVwjR0YyGtjC29+j5IYlSq59LeiZWbf57A9LbAkH6oZxjUyxKBWLA+eSAjWs7c2X1bTB+5/dp8w9SQ/de4/n4wAAgPCgANwHL24F3nn4Wco0dVrNrCmRiJymRjnRaNAz8c+uN70RYxQxrqLFvOLp7YptXavUm4sDnpx/ek7+kPJNo4KeBgAfmHJZKpVkiiU+FEPNc2Q0evGv1NC71fOxrrrkYt1x0w2ejwMAAMKFAnAQvvzNv9H//OznVjPfmneNKhVWOuyNk2yQk0wGPY0RM2bg8g3HDLwBiLgVxYo5xfp6lOheo4a1rwc9xaqQPuIM9Y0/kNWfQI0zxZJMoSBxHAbqRNQta8yLP1KklPd8rE/ecbsuOvccz8cBAADhQwE4CIViUZffdKs2bt5sLbPc0qGtx1wouUamUpFx3YEtnvgTTjwmpVLVeUuwcaVdpZ4jyXFdRSoVRUo5xbL9ivVtUWzLOiV67P29qVU7T7hIubZxEuUfUJOM6+661KPAaj/UlUR2h7oW/syXsb5y/2c17/g5vowFAADChwJwkJauXKlrb7/Teq6bbJSJp2QSSZlEg8rJVlUaGuUmknLjKZlYg9x4Qm40JuNEZSJRuU5ExokMvIlyXckYGZmB/7/712pJxJGTahwoAy0xxpXkyHn7r78jaeCcvd0r9RzXlVMpK1oqKlLKyMn0KZbZoXjPVsW3b7Q2l3qWfs9cpScdIhOtwoIXwIiZUnngfL8Sl3qg/jRvWalRK+1dJrcnjamUvv7gAzri0NmejwUAAMKLAnAIvvPP/6J/+b//FfQ0/oQbS0jRuBSLy0SjMtGYTDQuRWMy0ZgqsaRMLC7F4zLRuNxoXCaSkIk6MpH4QLEYiUqRgXLROFEpMlAwGseRUWTXqixHrjTwv3cXjdLb/zS7trgauX/4dSNJZuirPXaN5wwsrxv4JUlOY6PkRN7+BWfX1tq3i7uKUcSU5ZRLciolOaWCIqWCIoWMnHxasUyfotmdivZ2j+BPHCOVm3a40gceo3I0ymUfQA0yxsgUCjLFkpxa+0AKGKTRK36n5NbVno/T0d6ub3/5i5o6ZbLnYwEAgHCjAByiK2/5sN5YsyboaQChkpt6uDLTj1IpGqf0A2qUKZelYnHgUg+gTjlyNWbBjxXLZzwfa8L48fr7r31FY7q4WA4AAOwbBeAQvbl+vT54w81BTwOoaoW28cq85ySVWjrkRqJShLP9gFpkXHfgUo9ikdV+qHuxUlZjFjwip1L2fKxZ06frW1/6glpbWjwfCwAA1AYKwGH4/g8f1re+949BTwOoGuWmNrUee5rOOPEI/eD1t7SjwO2eQC0z5bJUKMmUikFPBagKjTvWq33JE76MNefoo/Tl+z6jhkTCl/EAAEBtoAAcphvv+qgWL1ka9DSAQLjxpNJT36szzzxdx00eo6mjm5Ta9Ubk6TVb9cVnvT/3CIC/jHGlQlGmWJZcSn5gt7Z1r6hp3WJfxjrvzDP06Y/e5ctYAACgtlAADtNbW7fqgzferHy+EPRUAF9k9puho888V8fP2F8HdbWoPdUgx/nzrb2lSkXzf/BiADME4AVW+wHvLmJcdS76peL9230Z765bbtblF13gy1h++p+1O/Xoxj6VPTpFIBaR2hMxtTdENSYZ0zFdTTq4LSm/DydJl10t6M7qtZ6cegoV9RQr6itWNNg3Yg1RR+2JqDoaYprQFNfxY5o0qcn/VaC5itHC7Vkt2pHTjkJZOwoV9Q7h95GIOGpviKq9IaYJjXEd19WkqS12fx/psqv/t6ZHz27J7HNerYmILpjUprnjmkc03r+9sUMvb8/KHcQfRCrm6JIp7Zo3hDELrtHfLd2m13ryw56nbamYo1tndumQtuSgv2dzrqzvLtum9RlvzwtuikUG/p4loprW2qDjuprUlYx5OuaWnX3672cXan13zz5f6ziOjj5wsi6ac/iQxnCN0Q+eXqBX39wwqNdPG9epS044Uu1NjYMeY3t/Rv/y2+e0tbd/n69ta0rpqnnHamJn+6Dzd1u4ep1+8vtFyu3j7OhELKbTD5ulkw4+cEj5v1j4up5Z8obKHh1RE4tE1NqY0qimlEY3N2n2lAmasd8YRd7l/XE1oQAcgcef+Z3u/tzng54G4InMxPdozhln6b1TxmlWV4s6m1OKDvICj0eWbNR3X17v8QwBeMW4FZlCSabETb7Au0nk+9T58s98Oe8vlUzqK/d/VsccMbQ3imGwLV/WQQ8vGXR5ZMuoRFRnTmjVnQd36eAhlBdDVTbSj9bu1D8s79bC7VlVLP9G92uM68LJbfrwrC6NT3lXbrhG+vmGXn13ebde2JZVaTAt1xCMScZ0weQ23T6rSxOb4iPO+7tl3fr0S5sG/fqoIy276GB1Ngzvz/Cqp97Uz9b3Del7xqdiWnLhwYN+/f+u79XVT60d6tQ8N3/SKP3LSYO/hfzuBZv03eXdHs5oz6a3NujqAzt0zYGj1RK3fynhlx5+VD94ZsGQvucHH79RMyeMHfTrn1+xRrd+5z+HNMZtZ87VLWecNOjX3/R3/6EXVw7+79r+o9v003tvH9Kctvb265zPf1vF8uB2lDiO9MNP3qxp47oG9fqedFanfPYbcn2uupoaEjpx1oG6+v3H6T0Tx/s69mB5W4PXuJNPPEFXXnyRvv/Dh4OeCjAi5USjDjr3g5o9c5oOGtOm8a0ptSQbhp132rQuCkAgZIwxMqWSVCpJpYFSo7o/wwSC0bppiVpWv+TLWOPHjtU3HnpQUyZO9GU8v23Mlnwv/ySpt1jRf63p0X+t6dEHJrbqm8dO1OiGqNUxHt+c1l0vrNc6D1c6bcqW9LdLt+m7y7t144zReuDw8YpbvnjtuW0Z3fHceq3q924V+NZ8Wd9d3q1/XNGtqw8crS8cuZ9S0eH/Pp7Zkh7S6ytGen5rRudMHDXksX67uX/I5Z8kHdyWGtLr16arcxX+xuzQ/n6/mQ5u99zKvoI+s3CzvrZ4iz592HjdNGO01fxNO3YO+Xs2dPcMqQDcMIjVhe+0cYjzen3d5iG9fsP2nerN5jSqcfB/p1e9tW3Q5Z8kGSMtWb950AXg5p5e38s/ScoUinr0lSV69JUlOm7GAfrcFedqzKjquqyLAnCE7rz5Rr2+fLleWfxa0FMBBqW5s1OHzDtNrZMP1KwJndp/VKPaGpNWlys3NiR0/kFj9ePlW6xlAvCGKZVlSmWpWJQCeSsOhINjjEa/9ms19Przs232wbP01w9+Tq0tw9+aiH372fo+LdqxQv8+d4re2zG0UmZPvv7aVn3h1bd8+y9qyTX6zrJuLejO6l/nTrG2GvDvl3Xr3oWbrK9c3JOKkf555XYt6M7oP+ZNGfYW5+G88R/uosavLt46rO/7yMGDKzJgX2/J1Sdf3KgXt2X0zeMmjqhsrkXD2SA61G8ZTjcXtifU51es0Qe/+o/68jUX6JjpU4KeztsoAC346v2f1eU33aruHTuCngrwJ2afOFdT33u4pkyepHFtA+f2xWN2P+Hek0sPHk8BCFQpUy5L5bJMsTj8dz1AHYkXM+pc+FNFyv6swjnj/Sfrc3d/0pexIK3PlHT+Y6v15NnTR3yu3neWdevzr75laWZD82J3Vh98fLUePWP6iEuNf31jh/5qCNtobVrck9eFj63Wb8+aoVYPtmra8syWjJ7flhny9x3V2aj3jeDMQdjx32/ulJH0DydMCnoqqFE9mazu+If/0r/+xbVDWunpJQpAC1pbWvT1Bx/QNbffEfRUUKemHzRD046eowOmT9f4zg61N6fUmBj5GSoj0daY1PumjNYTb/pzODqAvdtd+rlFzvUDhqJ56yqNWvGsb+PdcdMNuuqSi30bDwN2Fiu6+qm1evSMA9UwzG20z2/L6DMLgynNdlvck9fHf79B354z/G3jC7fn9MkXN1qc1dCt6i/q1mfX6T/nTQl0HnvzlcXD+6D7E7OrowiA9MM3d+rozkbdfFBn0FNBjSqUyvroP/23fvCxG9Xa6N2Zs4NFAWjJzOkH6q/uulNf/Ma3gp4KatgBB07T9MOO1OSDDtL4cWM0uqVJjfGYIoO8nMNv1x66PwUgECBTqQyc61csSbtKPza6AIPjyKjj9ceV7PGnCEklk/rCvffohGOO9mU8/LlXd+T0H2/s0A3DPBvs0y/5t112b/5zdY9uPqhz2Fua731pk4pVsDr8Fxv69MRb6apcLffCtqyeHuJZg5J0aHtKp+9XXWeC1bsvvPqWLpvaUdWrTRFum3b06t+feEG3nz0v6KlQANp0/tlnafGSpfrpr34d9FQQYtOmT9fk6dM1btp0dY4bp862VrU2JtWUiFdt0bcnY1pSOmFSh363ju3xgF+MW5GKJZliWXIHf8AygD+IlfLqeuknipT9ObB+TFen/uZLD9XsZR9h8jdLt+na6aM11B20z2zJaOH2nDeTGoZvvL5V/zyE21l3e2FbVs8NY1urV/7P61ursgAc/uq/MZZngpHqK7n6l5XbdSfnMsJDP3jmRV17yhw1NYzsmImRogC07DMf/6hWrl6t5W+sCnoqqDJdY8dqwv77afT4CWqfMFHtnV0aNapFLU1NakrG1ZSIKxGrvX8lbzxsfwpAwGPGdf+w0q9C6QeMRNP2tWpb+pRv482aMUPffOhBjWpt9W1M7NnadFGPb+7XqUNcpfXvq6prx8Mj63rVW6xoVGJoZz//2xvV9ft46q203kwXNaU52DfNf2zh9px+u7l/yN83a1RSHxjGTcPw3r+9QQEIb/XnCvr1K0t1/rHvDXQetdc2VIGvP/iArrj5VvX1D31ZOMKlvaND4/Ybp66xY9U5Zoz+//buO7yt8uAC+NHVljzkve3YThxnb2dCIGGGPcoqUCgFSssq9CstUDa0bAiBMMMKkAJl79UwshMSspyd2M70lmRrS/f7w0kIZPnKkt4r6fyeJ4+Nke575Di2dfSOzKxMpNlsSLFlwGq1wmg0wmTQQ6+NzcEbapSXasHY4gzM26r82HoiOoQ9pV9g9ym+RNRjmeu+h7lxS8zG42Ef6jS3sVNxAThnl3pmzQFdJ2bOb3Lh+CJlj+OHMJa1RtucXZ2qKgAfDHP2318H5XIbDpXa6PRhlyeAPBPrEYqexRvqWAAmopysLDxw+234418j9wud0WhEXmE+fD4//D4//D4f/H4/3C5XxMZIZqmpqUjPsCHdZkNaVhZSLWakpqfDarPBnJYBk9WKtNQUWE1GmI0GGHVa6BNwtl60XDWylAUgUQTIcgiyLwCN3991qAcRRYQ26EXOkg+h9cVuCeefL7sUF597TszGo+6b16iszGvo9GObyx+lNOGb29ihqADc6vKjvlN9j2NOYwd+W5khOgaArkNWPtvmUHy/3mlGnF5qi0IiipR5jZ04vZQzNCl6lmysFx2BBWC0DBs8CFf/4TJMe/6FiFzP6/Vi8PBhGH/0gTeOdPuD8AUC8AVC8PmD8Af88PkC8PkD8Pt98Pn88Pk8CHh98Hk88Hs8CHhd8Ht88Pk88O/+uBzwIxgMIRgKIBQIIhgIIhja8zaEUDCAQDAInyf6e+KYTCbodDpIOi10Oh10Wh20Oh10Oh20Oi0krQS9wQSN3gCdQQedzgCtXg+tTg+tXgedXg+tVgeD2QyTxQqDyQiTyQSDQQ+z0QizQQeTQQerUQ+jwQiL2cJSL0qyrWZMLs/G15ubRUchij8HmOknfmt2osSRsmsD0tfPi9l4aakpuPeWm1EzfFjMxiRl1tg9im6/wRGbvSKV2uhUlmujSh+Hmj6/4c7+uwcWIJAAACAASURBVHFgLsI8XFrVLLr42p/8UNT69U+JY0ebHf5gUOjqQLYdUXTROWdjZW0tZs+ZG5HrffTf9wDggCWgWa+FWZ+8y0x7yuvzwuvzwmQ0wWq2QJvES3aj5bJhJSwAibpJDoUAvx+yPwgE1DcbgygRSHIAWcu/hMEZu59N/ftW4f7b/4nc7OyYjZmIDndAR0ju2Qsldl8QIRndLmzafOHPyLbqJPROMyLPpIPmV+MFZWBrpw8bnT74wziVt82rbE/YVoW3PxAN9v+89fTvo82njr1ta+0efNhgV3y/shQDzu6ljhmMkXZGDGY1Huhr6tdkdH2d9USrlysrkp32MF9oIVmG3MOvM3unG9lp4g42YgEYZXfe9Ddccs212FwXmemehyoBqec8Xg88Xs/uItAMrZb/RCLFZjbilKpcfLiuUXQUIlVi6UcUO+b27chc+XVMxzz/zDNw/R+viOmYiahfuglzT6465G1kAFs7/fjfDifuXLZDcbElA3D4g7B18wCN9jALqsursnDbsAKkHGYW1TaXH9fO36r44AmlBWC4RWaqXsLNg/NxYnEaSqyG/cqaoAzUd/rwQb0dDyzfBVcwpOj6ailmHloR3u+wNwzIhU7A7L8ZE8owMYonKJt1EsxKj8sOw0tHlOHUbizNbfQEsLjZhdt+3I6NTp/iccL9d0yJwWY1Y/Y9NxzyNrIMNNodWLShDo99+A2aHcr3TLW7WAAmNJPJiKn33YsLr/oz7A7l+0UcyEf/fQ9+fwBHHTc5Itej/e1bBJpNZi4NjpCLBhezACTahxwMdi3rDez+Q0RRpZFlZNV+C2NrQ8zGtFosuOOm/8ORY8fEbMxkpwFQYtXj4t6Z6G8z4djPNyi+htMf6nYB6AooK7QAYEyOFfePKurWoRBFFj1mTCjFyA/WollBGdYZUFZohPM4AODZ8aU4oejgp1hrNUB5igHX9c9BsVWPP/ygbGJEpz+8XJG0weHFu3Xtiu9XZNHj/Aoxs//SDBIyjcmzqinXpMOU4jSMyrZg1IdrYVdY6HWE+fVPyUOjAfJsaTh55CD0LcrDuQ8+j5DCKYEur/JyOpISZ9G+iuXmZOPx++6G0RC506s+/+AjzP4itq9cJyOP14M2exvsTjt8fs7I6akUowG/G1IsOgaRUHIggJDHg5CzA7KzA/B4WP4RxYCpowUF82bFtPyrqqzE689OZ/kn0MhsC8bnWkXH2M9pZemKToRNN2hxdIG4WSMHU5ZiOGT592tnldlQYI6/F9YfXtkY1jLm6wfkQp+Im/+pWI5Jh/PLE3PJNalHn4JcjK7qJTqGYiwAY6RfVRXuu/XmiF7z8w8+wpcffxbRa9KBeX0+tDva0e5oh88ntrWPd2f2K4BBy289lFzkgB+y242QwwG5oxPweIEgl5oQxYaMjPVzkbXsE2hCsSvbzzxpCl6dPg35ubkxG5MOrE+6UXSE/ZRZlU8MKE9V3+PoHUamPummKCSJni0dPry1pU3x/fJMOlxYmRmFRHQ4avw3T4mnNCf+/n3zWXgMTRgzGn+56sqIXvObTz/H5x98FNFr0sH5/H60O+1otbfB7VF2Qhx10Wu1uGF0uegYRNEVCkH2+RByuRC0OyB3uCB7fT3foZqIFNF7nChY8BYsuzbGbEyTyYj7br0ZN113TczGpEOzGdQ348wQxt5papxJZtUrfzqZGmcnxz6yshHBMH58XzsgF6YY7JFH+0vRJc/SZxLHYoy/oll9Pw0T3HlnnI66hq1456OPI3bN2V98Db8/gJPPOj1i16RDCwQCcAac6HR3wmw0wWQyQSvxB013TSjLQtayBrS4OJuSEkfXfn5+IBD8xZJe/upPJEZ6/TKk1K+I6Zi9Skrw0F23o6SoKKbjElF0NHT68camVsX3yzJqcUmf+JsdRESJLb5efkkQN117NWqGD4voNef871v897VZEb0mHV4oFEKn24WWtlY4Ojvg5z5e3SJJEv4+rkJ0DKIek/1+yG4PQg7n7v38vNzPj0gwXcCNvEX/jXn5d/zRR+GVp55g+UeUQB5f3YhAGLP/ru6XAwu3vCEileF3JUEeuOM29C6P7DLIxfMW4NVnZ0T0mtR9Ho8bbfY2tDna4fZ4EJJ5ktShDMizoTpbfZtZEx2KHApB9vogd3Yi1O6A3OmC7PUCIf57J1KD1J1rkTf/bei8rpiNaTQYcPNfrsNd/7gJxjhcDkREB7bDHcCrG5TP/ks3aHFZVXYUEhER9QwLQEHMJhOm/ute5GZH9ofD6uUr8MIT0+HnibXC+P1+ODudaG5tgaPDCa/PKzqSanEWIKmdHApB9vkRcrsRcnRAdjghu92Q/QEgrPMAiSgatAEP8ha/i7QNC2M6bklRIV6c9jhOO/GEmI5LRNE3dVUjfGHs3XtVdTZSw9gbkYgo2vidSaCszAxM/fe9MJki+2rxhrXr8PzUJ+F2uyN6XVLO4/XA7nSgpa0FHa5OBIJcGriv3FQLTurD0xFJPeSQvHtZrxtBh7Or8HO5AK8PCPHUXiI1Stu2Avnz34LO0xHTcU867ljMnP4UKnv1ium4RBR9TZ4AXtrQovh+qXoJf+zL2X9EpE4sAAUrLy3FA7ffFvHr1m+uw9OPTIXTGdtfhunAgqEQXG4XWtvb0GpvQ6fbhUCQZQIA/GFYiegIlMRkeXfh5/Eg5OyA7NizrNcHDZf1EqmaweNA/oK3kLp5WUzHtVosuPeWf+C2v94Q8RdxiUgdnqhtgieMo3+v6JuNdAMPBiQidWIBqAKjRwzHrTf+JeLXbdyxE08/9BjaWtsifm0KXyAQQKerE63trWizt8PldiGYxGWgUa/nUmCKHVmG7A9A9ni7Cj/77sLP4wWS+N8hUTzRQEbGxvnIWfw+tH5PTMceWF2NN557GsdMPDKm4xIlEotO2VNQa4yX07Z6g5ixTvnsP4tWwp+qc6KQiIgoMlgAqsQpxx+Hi889J+LXbW1pwfSHH8X2bdsifm3qOX/Ajw5XJ1raW9HusMPlcSOYhLOOjijLRu8Mi+gYlKDkQKBrhl9HJ0J2B+TOTsgeDws/ojhk6mhC/rz/wLJjfczHvvSC8/HC1EeRl8Mn+EQ9cX5FJoos+m7d1qqTcG3/2G4X89SaJnQGlP8+/vuqLGQaOfuPiNRLJzoA/ezPl10Ku8OB9z/9LKLXddqdeObhqbjwysvQp29VRK9NkePz++Dz+9DR2QGdTgej3gC9Xg+D3iA6WtRpJAl3TOyDC9/7SXQUSgByIAAEgpCDXW8h87AOongnySFk1s6GsTX2L2hmZWbgvltvwdCBA2I+NlEiOrogBSvP6IfurLCVNIAm+pH2svuCeHZts+L7mbQaXNOfLw4QkbpxBqDK3PyX63Di5EkRv67P58OMJ6Zj6aIlEb82RV4gEECn24V2hx3Nrc1wdDjh9noQSuDZgZlWMy4fViw6BsWZrlN6fbtn+HUg1G6H3LF7hp8/wPKPKAGYW+tRMOc1IeXfxHFjMeu5Z1n+EUWBVnP4P7Es/wDg6bXNcPqV/779u95ZyDVxbg0RqRu/S6nQHTf9H/yBAL769ruIX/vNl2eiZVcjjjn5xIhfm6IjJMvweD3weD1wAtDpdNDr9NDrdDDo9JC0ibPU4NTqQny0sQU7HDzBmvYnyzIQDEIOBIFgCAgGgAQuxYmSnTboR9bKL6F3Kt+Lq6eMRiOu/+MVOPOkKTEfm4jEcPpDmL5G+ew/vcTZf0TJKB637mIBqFL33vIP+P1+fDt3XsSv/fVnX6CluQXnXnJhxK9N0RcIBBAIBLCnItNqtTDoDdDpdDDo9dBK8VsIaiUJdx3ZG5d/tEJ0FFIBORDo2qcvJP/8PhElhdQda5G2caGQscvLSnH/bf9EWQlnpRMlk+fWNcPuU/67xm8rM7q9pyERJY7tre2iIyjGJcAq9sAdt2FczaioXHvZ4iV4Ydp0eLyBqFyfYicYDMLtccPZ4URLWyta21vh6HDC5XEjEIi/v9+idCvOHVAgOgbFmBwIQPZ6EXJ7EHLus5TX7YHs5Qm9RMlC53cjf9E7wsq/c04/DbOee4blH1GS6QyE8GRtk+L7aTXAXwbE9pASIhLP6fZgycZ60TEUYwGoco/ecxeGDhoYlWtvWLMOzzz8COwdXG6ZSALBIDxeDzo6O9Bqb0NTazPsDjs63S54fd642EfwwsElyLEm/uEnyUiWZcj+rrJPdrn3K/vAso8oKWlkGRkb5iNvwdvQejtjPn56Whoe/9c9uPFPf4z52EQk3oz1LWj1Kv/949zyDJTyd1aipNLi7MTNM99HW4dL8X01mljvbPpLXAIcBx6/9x78+W9/x8o1ayJ+7Z3bd+Cpf9+P3117DQpzsyJ+fRJPlmV4/T54/b69H9NpdTAajV37CWp1kCR1vRaglSTcO7EKV3yyUnQU6gE5GIQc3LNfXwgIBblnHxHtx9q8GbY1Pwgbf8KY0bjlL9chMyNDWAYiEmtxs/In8pIGuGFgXhTSRMbtP+7AY8bGHl/HKEk4vzIDZ5XZIpCK9jXz2wX48qfabt++obktimmSW4fHi5teefeQtwmFZOxos2PDjkZ4/OGttCvKEvvviAVgHDCZjHji/vtw1V//hjXrN0T8+o52O5759wM4789/Qr/Ksohfn9QnEAwg4Pr5m5ZWq4VOq4Nuz1u9HlrBpWBxRgouGlSIV1dsF5qDDk8OBYFAV8Enh7oO6uAsPiI6HL3XiayfvoDWp/yJdySkp6Xhr3/+E447eqKQ8Ykovp1ZZkNlqnpn/61q90TsWvMaOzGlOB1mrdjZS4lm2eatoiPQboFgCJ8vXR3VMXLTU5FhtUR1jMNR17QfOiiL2YwnH/g3epeXR+X6Pp8Przz6GL77YUFUrk/qFgwG4fV50el2wd7hQEtbC5rbWtDutKPD1Qm3xw2/z4dQjEudcwYWozTdHNMx6cBkWYYcCEL2+iB7vAi5XD8v33V0QHa5IHu8gM/H8o+IDkmSQ8hc+x1yF70nrPw79qiJePvFF1j+EVHYblTx7L9IcwVDaPbEz97iMmTREYj2M3FgH9EROAMwnqRYrZj+0P24/PobsaWhISpjfDprFpq2bcVZ554VletT/AiFQvD5fPDB94uPSxoNtDodtFottFLXjEGtJEGni/y3E60k4d6jq3DRez9F/Nq0P1mWu5bqyiHIu98iFOqa3Sdz6S4R9VzKrg1IXz9P2PgZtnT888YbMH50jbAMRBT/Ti1NR3W6UXQMOoid7vgpKyk5ZKRYcM2Uo0XHYAEYb9JSU/HUg/fjihtuxNbtO6IyxuLvf4CjpRkXXH4ZjHp+idAvhWQZIb8ffr9/v/+3pxTUarVdRaFWC0mSoN1dEoYjy2rGjWMq8PD8TT2NTgDk0O5SLyR37c8n734/FIKG+/MRUZQY3O3IXP4ltP7ILUlT6uTjjsVfrroSKVarsAxElBhyTXyOpGZLwtjTkSha0iwm3H/xGUizmERHYQEYj7IyM/DcY4/gmptuxobNm6MyxrrVa/DUAw/j0uuvg80q/guV4kMwGEQwGAT27wYBADpd14EjWkmCpOl6q5H2fas94P0mV+Zidn0rlmxvj2L6+CeHZEAO7i73QoAsQxOSIe/+2KEO4OCOLkQUDVIoiMw138LYuk1YhtzsbNz+t79i5NAhwjIQUWJ5fWMbbhmSD5vhwL+7kjhfbXfiwwa74vtxe0OKhmEVJbj3t6ehMDNddBQALADjVqbNhmcffQjX/v2WqJwODACNO3biyXv/hQuvvQZl+dlRGYOSSyBw+On4WkmC9Is/XbMJrxpaiD8kaQEoh4JACF0Fnrx7th7krsJv98cQkoED7HfCHVCISJTU7bVI27RYaIazTjkZ11x+GcwmvphJRJHjCoYwY30LbhiQKzpKwlvYjdl8MoCdbj8WN7vw9pbwni/kmvRh3Y/oQE4ZNRhXHn8EigWf+vtrLADjmNViwVMP/hs33XUP5i2Kzi/YHQ4Hnr7nXpx5xZUYNbg6KmMQ7SsYCiF4gJlqOgDnlafi9WXbIGs00EgSIGkATdcfDQBo9vkYNIBGBqCBBhrIu1/V02g0kHe/jQZZDkEj7958OCTv+WBXcSejq7iTuz62933I0Mg/f1yW5a7Hc5BSDwf9KBGReMbOFmSu+BpSwCssQ2F+Pu7+x00Y2I+/uxBRdDy7phlX98uBQeLUsWh6srYJT8ZgnHwzqxGKnA8XLcfmXc04tWYwfjNuBKL01FMxfpXHOaPRiMfuvRs333Mfvv7u+6iN886zz6D+mGNw1uknRW0MosM5oW8u1rd0YlF9237LWQ9ViMkHeH/vxw5YCGq61sRq9vlv+Vcj7C30dl9tn/+vNMuv31fJzwciIkV0AQ8yVs+GwdEkNMcFZ5+J6664XGgGIkp8uzwB/HdLO86vyBAdhSIg38IZgBRZK+u3Y2X9dny3aj3uu/B0VewBGN6u/KQ69916M045/riojrH4q68w/eHH4PQcZIM3ohi4oqYUeakR/OYpd82+w97DMUJAKAgEg0Bgz59A13/v+ycUgkbefTrur8tBIqIkIoUCyFg3B3nz3xJa/pUUFeLV6dNY/hFRzDxZK/YFD4qcfDMLQIqOH2o34trn31TFU0YWgAnk1hv/gkvOPzeqY9RvrsO0u+9BfWNy7sVG4hl1Wlx/RDmMOm66TEQkkgYy0hqWo2DuG7A0ijup3aDX48rfXYy3X3wBVZWVwnIQUfJZ1e7B7J0domNQD5m1GozIsoiOQQls2eYGvLtgmegYLAATzVWXXoLr/3hFVMdw2B2YftedWLRibVTHITqYojQzLq8pFR2DiChpWZs2IX/uG0it+0lojqGDBuI/LzyH3//2fKE5iCh5TVud+LMAJQ2Qqk/c6uCU0vSEfnykDjNnLxAdgXsAJqLzzzwDVosF9z7yWFTHeeeZp7kvIAlTU5qBY5o68NX6xP+li4hILUzORmSsng3JL+6ADwDIsKXj+iuvwAmTJwnNQUT09Q4nau0e9EsXv79XNBgkDX7fJws2Q+Kuvjm/IlN0BEoCWxpb4PUHYNSLq+FYACaoU084HulpafjbHXdFdZzFX32FXevX49w//RFZ1sT8oUfqdfGIEmxpc2FDc6foKERECc3gdSJj5dfQuZ2io+C0E0/AdVdeDquFy7WISB2eqm3GE2OKRcf4hbcnlWNyQaroGKpXlWbEkXkpQsZ+6JKzcMyQ7p9W//bcH3HPW59GMVHyslnNmH3PDYe8TUiWsbPNgUUb6jD1o2/Q4lT2HDQky9jc2ILqoryeRO0RznNNYBPHjcW0+/8Fo8EQ1XEa6uow7Y67sHzT9qiOQ3Qg1x9RCRs37SUiigpt0IesFV8iZ9F7wsu/0uJizJj6GG7+y3Us/4hIVd7c3IZGT0B0DFIoRSfh1Ym9IGlEJ6F4IGk0KMxMx2k1gzH9jxdA0ij/wvEHxH6fYAGY4EYNG4pnHnkQtvT0qI7jcbvxxiMP4t1PvonqOES/lmbU4cYjK2HQ8tsZEVGkaOQgbBsXIn/ef2Cy7xSaxWgw4E+/vxRvzXgOA6r7Cs1CRInv+KJUZChc7uoLyXh+bXOUElG0PD2uFFVpRtExKA5VFeaipk8v0TEU4zPmJNCvqgozn34yJifjLfzkQzz+wKNo6vBEfSyiPcoyLPjT2F6iYxARxT0NZKRuW4XCOa/DukP8YV8jhw7BWy8+j9+dd47oKESUBCQNcOewQlzUW/mecC+sb4E7KEchFUVaukGL6eNKcFJJmugoFMfKcuNv70gWgEkiJysLzz/+CI4cOybqY+2sr8eTt9+BH9fVR30soj2GF9tw9qAC0TGIiOKSRpaRsmMN8ue+gbTNP4qOg8yMDNxz89/x5AP/Rl5Ojug4RJQkzivPQN90I/5QlQ2li/tavUHM2tQalVwUOWeUpWPhKX1xXnmG6CgU5yzG+Js9ygIwiRgNBjx45+34w4W/jfpYXq8Xb019FO988EXUxyLa49QBBagp4Q9zIqLu0kBG2rZVKJwzE+kbF0EKBUVHwpknn4S3X3wexx41UXQUIkoiOg1w0+CuzflLrHqcWKx8dtiTtU3gHED1GpJpxowJZcg18SxUSk78yk9Cl198Iap6V+LWe/8Fn98f1bEWffEptq1egbOvugoF6dywm6Lv6vHluP0LHza38mRgIqKD0cghpGxdhbS6ZaKj7NWnohx/v/5aDKzu/omIRBR/trr8eKq2CfUdvsPeNlWvxaVVWajJjv7ziEv6ZKHU+vPhiVf0zcYnWx2KrrHR6cNnWx1hlYd0YNf2z8HoHOt+Hw/JMn7/Qz38oe5Xrivb3HD6Q0jVcx4UJScWgElq4rixeP7xR3HDrbehuTW6U9W3b92KqbfcguMuvRxHj+gf1bGIAODGiZW4/fM1aHEd/hdLIqJkIslBpDasREr9ctFR9srNycZVl16CKcdMFh2FiGJg2uomPKPgwIwfW1xYcEp0DwAyaTW4cWDeLz42MT8FVWlGrHN4FV3rydomFoARNCLLgikH+XzWZFswp7H7L/oHZWBOYwdOKOLfDyUnVt9JrG/vSrwao8NBAOCLF5/D9OkvoI2lDEXZnpOBLQa+xkFEBACaUBDpW35EwZzXVVP+mU0mXPm7i/H2iy+w/CNKIls7lT0XqOvGTMGeurxvNvLN+//eeHnfbMXXmtPYiWWt7kjEosOYWJCq+D7f7eyIQhKi+MACMMll2mx4/vFHMPnII2IyXv2qlZh62+1YuGZzTMaj5FVsM+NvR1XCqNOKjkJEJIwUCsC2aTEK576OlK2rRMfZ69QTj8e7r7yE3//2fBgNhsPfgYgoikZmHXiJ8XkVGWEtF32ytqmnkagbjspPUXyfb1kAUhJjAUgwGgy479ab8cdLfxeT8TweD96dNhUvv/omXL5ATMak5FSRacUNR1SIjkFEFHNdxd9CFMx9A9bttaLj7DVs8CDMev4Z3PKX65FhSxcdh4jokFJ0Ei6oyFR8v3fr2rHVFd291gkYnmVRXNCubveg0cPnoJScWADSXpeefx4euecuGGN0nPWaBfPw2J13YdWWHTEZj5JTv7xUXDO+XHQMIqKYkEJ+ZKyft7v4Wys6zl7lpaV45O478fRDD6C8tFR0HCKibvtDVZbi+wRl4Jk13d/nkMKj1QAT8pTPAuQyYEpWLADpF8bXjMLLT05FSVFhTMZz2p2Y+dADeOu/H8Hj5ysxFB2jSjJweU2Z6BhERFGj93Ugc/X/UDB3Fiy7NoiOs5ctPR3/d/WfMev5ZzB+dI3oOEREivVOM2JSGHvNvbKhBU5/KAqJaF9HhrEMePZOZxSSEKkfC0DaT3lpKV6d/iQmHTEhZmP++L+v8egdd2PFZs4GpOg4oiILFw4rFh2DiChyZBmmjmbkLn4PuQvfhbl1q+hEv3DROWfjnZdn4OxTTxYdhYioRy7vq3wWoMMfwsyNrVFIQ/s6Kp8HgRB1FwtAOiCzyYR//fMW3HTt1TEb02F34PWHH8CrL78Bu5snBVPkHdc3Fyf3zxcdg4ioh2RYW+pQsPAtZC37FHqPumYyHDPxSHzw2iu4+g+XwWo58Mb6RETx5LjCNJSlKD+waPqaJgTlKASivarTjcgz7X+C86E0dPqxOQanSxOpDQtAOqQzTz4Jrzw1DYX5eTEbc/WihXjstjswf9mamI1JyeOcwYWY1CdHdAwiIsU0chCpDStQ9MNM2Gq/g+T3io70C2NGjMCMqY/h3lv+gbwcfp8l9fCH1NfAyGFEUt+jAAJhfG7V+PdxOJIGuDyMvQAbOv34oN4ehUS0r4kFYSwD3qGuF8/iWSAYjOrt1SoeHwcLQDqsvr0rMfPpp3DEmDExG9PjduP955/B048/hRanO2bjUnK4ZEQJjq3ik1Miig+6gBcZ6+eicM7rSKtbJjrOfgZWV+OZRx7C4/+6BwOq+4qOQ7SfOhXO9AnnFNKdKjxVtqFT+ee2Loz7qMFvKzNh1moU329abWMU0tC+JoaxDPhbLgOOmB1tykruba3tUUoSW/H4OFgAUrdYLRY8dNftuO6Ky2M6bt369Xj89tsx+4eFMR2XEt9Fw0swpV/sZrYSESml99iRu+xj5M1/E5ZdG0XH2U/f3pV45J678MLURzF04ADRcYgOyOEPYX5jp+gY+/mxxaX4Pktbld8n2tbYvYoK1k1OHzY41DV7ubtsBi3OKc9QfL8fW9yY36S+r8FEEs5BIN/t7FDlrNp49N0qZYePKb29GnV4vFi6qUF0DMVYAJIiF5x9JmZMfQw5WcqnwIfL7/Pj81lv4Il/P4y6XW0xG5cS33lDinDmoNiceE1E1F1mx07kL/wvchd/AH2H+jaQLy8txb/+eQteeWoaxteMEh2H6KBavEH8aW49mr3KZ9vppO7P9FJy2z1eXt+Cxc3dL/ReWt+KpS3KVsUozRXO4/CHZFw+p75bJeCWDh+umFOveE88fRi5ouXyvtlh3W9abVOEk9C+ii16VKYq26OxzRfEijauNPs1nVar+D4vfTMPny9bfdjbBYIhPPP595i3dpPyXJJ6qqu2Thf++foHaOtQ/qJMOJ/fSFK2WyYRgAHVffH6s9Nx8z33YdHS2C1F2r51K56++y6MnjwZx598Asx6fvlSz50+IB8GSYNZP20THYWIkpgUCsKyayNSt/wIKai+ZX4AUFxYgD9cdCFOnDxJdBRKYttcPlz2Q/0hbxOUZexw+bGq3YPOQCiscTIM3X+SZlNw2z0CMnD8Fxtwdi8bhmRakGXUQoNfFl0hyNju8mPOrk58E8Z+ZZlGZb8rK3nM+1rU7ELNh2sxIMOEYothv8LOH5LR0OnD6nYPfGHs/5dpFPuEeV8DbCaMz7VijsJZpZ80OLDJ6UOFwpKqJx5d2YjXN0Zv8oRJq8GV1dkYnGGO2hhKHFWQio3OFkX3+XZHh2ryq0WaxQSnnutcjAAAHxRJREFU26PoPv5gEDe9/C6mfvQ/9MrNQorJ+MsbyF2l2YYdTWjtCG82rM0a3UPFOjxe3PTKu4e8TSgko9HuxLrtu+D2hfe7WrpV7NcbGxQKS1pqKqbd/y/MeO0NPPPyKzEde8HXX6N28SJMOf8CDBnIvYao56b0y4PFoMWMRYd+QkFEFGl6bwdSN/8Ic3Od6CgHlZuTjct+ewFOn3Ki6ChEcPhDeKcuuvsumbUamBTs9ZZhCO8pVUgG3tzcjjc3R+fxKC30MhQWhvvyhWQsbXErnqXYHT3JFQ2X981WXADK6DoR+MFRRdEJdQBKM4ajMxDCS0eURX2c7piYn4IX1ikrAGfv7MA1/bkv+L7SLWZsawnve9K2lvaw73s4aRZTVK67RyAYwudLDz+LsadsFhaAFMd+/9vzMWzQQNz27wfQ2Nwcs3EddgdmPf00lvTri9MvvBCZ6cr3fSDa11GV2dBJEp5dsEV0FCJKcBpZhqmtAekbFkHrU9+eXntk2my45PzzcO4Zp4mOQhRT+Wa9otsXWNT5lErp4yhUePtYKVBZrpNK0lFo0WO7wkNZXtvYipuH5Ic901KNtqnoYJoj8lKggbLTsuc1dsAXkmFQ0TJz0XLS1Pm8Ojdd+UEvamM1GmAxxm4W8IGoZyE1xa1hgwfhzRnP4YyTpsR87PW1a/HYnXdh9hdfx3xsSjwTyjPxxzG9RMcgogSlC3iQsWkRCufMRObqb1Vb/qWlpuDPl12K9159ieUfJaUxuVZFtx9gM8OqU9/TKqWPo5/NhFR9/D+OaNNpgEv7KN8P3R2U8eJ6ZTPUqPtsBi2GZCqbXeUOylikYC/OZDC0vFh0hP3k29ISogAcWlEiOgILQIoMs8mEv193DZ74933IzsyM6dh+nx+ff/ARHr/vAWzZwiWc1DPjemXib0f1hlGXOK/OEpFAsgyTsxF5S95H3vy3YNm+RnSig7JaLLjswgvw/sxXcPG558BoNB7+TkQJaKzCwkmrAWpyors/VTjCeRyjc9RVtgHAOJUVgABwSZ/MsGaNPbumOax9EKl7jipQXhJ9G8b+molseGWp6Aj7GaHCTOEYUSH+cbAApIiqGT4Mb854Dicdd2zMx965fQeeeehRvPrsi2iM0t4DlBwG5qfh1sl9kKKiTaeJKL5oQwGkbl2JwvmzkPXT59C5HaIjHVRWZgauufwyfDzrNVxx8UWwmLkhOiUvvaTBsYVpiu93ckl6FNKEb4DNhPIU5UvNTi1V1+MotugxLEt95Wq2UYczymyK77fLE8B/t/B5SrQcla98+eq3OzuikCR+DSgtVN1su0mDE2PffzU8DhaAFHFWiwW3/fUGPHrPXci0Kf/B2FOrly/Ho7ffiff/8zacLh7tTuEpy7DgjmOrkW0Vu08DEcUXg7sd2au+RP7cN5C2ZSk0wYDoSAdVmJ+Hm669Gp/Meh0X/uZsmE3R3WCbKB6cX5GBfLPyPf0uqMhEtooOq7huQG5Y9zu3PLzHHy1X98+BTqXbs13RNzus+z1Z2xThJLTH6BwrjApnZi5pccHpD++08ESkkyRcdNRo0TH2KsvJxNGDxBdnPTVpcF/0ylW+dUCksQCkqBlXMwpvzngOxx09Ucj487+fg4f+eSe+/vRzeP3qfQJG6pWbYsQdx1WjLEN9rzwTkXpIoQBSdq1HwYK3kLPkQxjbdoqOdEjlZaW446b/w7uvvIQzTz5JdBwi1TBpNbiuf3jFmUmrwfUD1HGaaFWaMazZaQBgkDS4cWBehBOFp8iix0W9Y7u1kBLDs8wYnqV8xvSqdg9mc9ZZVJi0GoxWuGQ8KANzGvn3sa+zxg5TzWEgVx5/BCSNSl8F6CadJOGKYyeIjgGABSBFWWpKCu7+x9/x4J23Iy019t9EfF4vvvr4Mzx0+91Y+MO8mI9P8S/NqMOtk/ugOlcdPwSJSB00sgyTswk5yz5Bwdw3kL5+PiS/R3SsQ+rftwoP3P5PzHruGZw4eZLoOESq8+joYlSkhj/z/0/9cnBCkfLlw5Fk1Ul4+chePZo194eqLJwmeCmwQdLglSN7waJV99PVcGcBTlvNWYDRMjGMZcDfsZD9BYvRgAcvOQs6Sey/v9NHD8GUEQOFZoiEv55xLKqL80XHAMACkGLkyLFj8OYLz+OIMWOEjN/hcODdWW/i4bvvQ+3K1UIyUPwy6rS4eVIVakoyREchIsH0/k5kbFqIwjkzkfXTZzB0qP9ExxFDBuOJf9+HF594HBPHjxMdh0iVbhyYi/PKe/ZzXgPgmfGlGBbGrLBIMGk1eHZ8KarTe36Az5NjSzBW0IEgekmDJ8eWhDW7LtbOKLOFtfT76x1O1NrV/aJRvDoqX/n+dbN3sAD8taHlxbjtvJOElYCjq3rhH2edIGTsSLrgyFE4b8JI0TH2YgFIMZNhS8dDd92OO276PyGzAQGgeVcTXnn6OUx/+DGsX7dRSAaKX1ePL8cJ1epYFkNEsSOFgrA2bUL+wreRu+AdWLavFR2pWyaMGY2Xpj2Opx68HzXDh4mOQ6RKFq2EFyaU4tYhkZmdkaaX8OlxvXFhZWyXrvZKMeDL4/tgSnFkZiBadRI+OLYSV1WHN8MtXIUWPT45thJn94r9PuLhMEgaXNInvL/rp2qbI5yGAGBophnpemU1R63dg10ebhn1a6eOGozn/nwhslJj+2LAJZPG4qkrL4BRr579SJUy6nW4+4JT8LczjhMd5Rfi9zNKcevEyZMwbtRIPP7s8/j4iy+FZKjfXIcZU6ehtLwMx5x6Cvr0qRSSg+LPBUOL0MtmxguL6uEPcsNgokRm6mhG6sZFMDjj60nacUdPxO8vuADlZaWioxAdkkUnbi5Cik7CJX2y8Kd+OSiI8KEXRkmDJ8YU4/yKDDy+qhFfbHdG9Pr7KrHq8ad+Obi4d2bEl8vqNMB9Iwpxdq8MPL66ER/W2yFHdISfFZh1uKo6B5f0yUKqwvLm1ypSjQCUfc4r0sKfNXlpnyxMX9OMzoCy3ws/bLDjiTHF3bqtVeC/lUNR+m/YqtMqHiNF4deDpAGOKkjF+/V2Rff7sdmFE3tQoJsNyrcPsJqU3cdiVD6GJYxc+xpWUYL3br4Kb/6wGK99uwitHZ09ut7BSBoNjhlSjUsnj0O/Hi6XDefzFClmgx5njR2GC48ajXyb2C0hDkQjy3K0vo8THdbyVatx98OPon7rVqE5SsvLcOypJ6N3n95Cc1D82NLmwiPfbUS72y86ChFFkM7vgnXbaqRsrRUdRRGL2YzTTjwB55x+Kgrz1bHPDFF3nDd7M77a7kQwSs9IJA1gM2iRYdAi16THyBwLxuZYMT4vBWk9LJq6q67Dh+93dWBeYydWtnnQ7gugzRdUdPKoQdJ0PQ6jFsUWA8bkWjEu14qaHGvMTsnd5vLvfRzLW91o9QZh9wVgV/A4dBogw6hDhkGLQot+7+MYnWOFQeHprQez1u7FDQu3Ym7j4YuKNL2Es3pl4JGaoh6N+VGDHff8tBNr7d5u3d6s1eDcigw8WtO9AnCnO4DffLMJK9vVs2zYrNXgoZpiXFDR/aXz3+3swNXzG9DQ2b3fn4/IS8Hbk8oVf22saPPg0u+3YKPT163bD8k0Y8aEsh7tATpv7Wbc+9Yn2NrS3q3bj+pThqeuPB96bfdLUafbgz8/OwvLt2zr1u3L87Jw9wWnYmBpYbfHOBRfIIilmxrw46Z6LNvcgEa7E/ZODxwuNwKh7n8fSDUbkWo2wWa1oLooDyMqSzGqTy/kpitfvn0wN73yLr76qRbBUHR+uEgaDdIsJqRbzMhMtWJQWRFGVJZiRGUpUkw934YhWlgAkiq8POtNvDDzNXh93fsmHS29KitwzMlTUMkZgdQNdo8fU+dsxvom7htCFM+kUBDm1jqkbloKrc8lOo4iFb3K8JtTT8FJxx4Do1G9v3ASERERkVgsAEk1djU14b5HHsf8JUtER2ERSIo8v7AO321S/0EARPQzKRSAuW0brHUroHe1iY6j2NETxuM3p52KEUMGi45CRERERHGABSCpzv9+mIOHn5yOphbxhUpxaQmOPuFY9B88SHQUUrmv1jfhlSUNomMQ0SFIoQDMrfVIqVsOnTt6e3JFS4YtHaefeCLOOvVk5GRliY5DRERERHGEBSCpksvtxrMvv4o33nlXdBQAQFZODiYeOwmjxo0RHYVUbH1TBx79fhM6fDxFjEgttEEfTK1bkbLlJ+i88blcf0B1X/zmtFNx4uRJoqMQERERUZxiAUiqtn7TZtz90MNYu2Gj6CgAgJSUFIyfdBRGHzkeZpNJdBxSoVaXD9PmbsaG5uickEVEh6cN+mBuqkNK/fK429NvX1OOPQbnn3k6qiq5HQURERER9QwLQIoL73z8CabPeBEOpzpmbxhMRtSMG4sJk49Cenq66DikQm+t2I4PV+0UHYMoaWgDXliaNsPasBJan1t0nLDl5eTgzJNPwpknT0FaauROwyMiIiKi5MYCkOJGp8uFmW+9jTf++y7cHo/oOHsNqxmJI4+ZhPzCAtFRSGXWNnVg2pzNsHv8oqMQJSSd3w1L42ZYtq6C1q+enwvhGDNyBM48aQomjh8nOgoRERERJSAWgBR32u12vPj6LMx69z3RUX6huKwUNePHYvDI4TAaDKLjkEo4vQE8PX8LVuxwiI5CFPc0cgiGzjZYt6+BqbkemlB877eZnZmJU044HmeePAW52dmi4xARERFRAmMBSHGrsbkZz70yEx989rnoKL9gMBkxdMRwjBo/DsWlxaLjkEp8umYX3li2TXQMorijDfpgatsKa0Mt9J2touNExLiaUTh9yomYOG6s6ChERERElCRYAFLca9i2HdNffAlff/e96Cj7yS8swOgJ4zF09CiYjJwVmOzq212Y+sNmNHZ4RUchUi2NLEPndcC8cwOsOzdCCiTGv5ecrCyccsJxOOMkzvYjIiIiothjAUgJY8PmzZj2/AzMW7RYdJT96A16DB4+DKPGj0NZeZnoOCSQxx/ES0saMHdLYsxkIooEKRSAwdGIlIaVMNp3iY4TUeNrRuH0k6bgyLFjREchIiIioiTGApASzsraNXh0+jNYuWaN6CgHlJObi5HjxmDYmBqkplhFxyFBlu+w47kF9TwghJKWzu+CubkOlq1roPOq44T3SMnNzsYpJxyH06ecyNl+RERERKQKLAApYc1ZuAhPv/gy1m3cKDrKQfUfNBAjxtag/+BBoqOQAJ2+AGb+uBVzOBuQkoA24IXBsQvWbWsSbpbfHuNH1+CMk07EEWM424+IiIiI1IUFICW8H+YvwPOvvoba9etFRzkoa4oVw0fXYMSYGuQV5IuOQzG2cqcDzy6oQ7ubswEpcWhDARg6mmHesQ6m1m3QBOP7xN6D6V1ejhOPmYQTJ09GVmaG6DhERERERAfEApCSxtyFi/DCzNdVuzR4j5KyMowYW4PBI4fDbDKJjkMx4vIH8cbSbfh2U7PoKERh0cghGDrbYG7cCHPTFkj+xDi840CyMzNx/KSjccoJx6G8tFR0HCIiIiKiw2IBSElnwZIf8fzM17B81WrRUQ5r8IhhGDhkMKoG9ofRwFOEk0HtLieeXVCHFpdPdBSiQ5Nl6D1OmJrrYN25Hlpvp+hEUWUyGXH0+PE44ZhJGDNihOg4RERERESKsACkpLV42TI89+prWLZipego3dJ/0EAMGDoY/QYPgtnMmYGJzO0PYtZP2/G/DU2ioxD9TJah93XC2LYD5h1rYehsE50oJkaPGI4TJk/C5CMmwGg0io5DRERERBQWFoCU9JYuX4HnZ76Gxct+Eh2l26r6V2PAkMHoP3QwUqw8SThRrW/qwPML67HD6REdhZKQFApC726HqWUrTE1boHM7REeKmT4V5Thh8iRMOfYYZNpsouMQEREREfUYC0Ci3VbWrsGzr7yKBUt+FB1FkYo+lRgwZAgGDBuC9PQ00XEoCj5cvRPvrdoJfzAkOgolMG3AC31HC8y7NsHUth1SIHH38DuQnKwsHD/paJx8/LHc14+IiIiIEg4LQKJfqV23Dq+++Ta+/u570VEUyy8qRO++VejdtwrlVb1h0OtFR6IIaXH58NyCOqze5RQdhRKARpah9bthbN8B884NMDoaRUcSIiszA0eNH4+jJ4zHqGFDRcchIiIiIooaFoBEB7GrqQlvvvcB3v/0Mzg7OkTHCUtFn0r07tsXlf36orSMM1oSwYL6Vsxcug12t190FIobGkiSDJ2nE6bGLTA1bYK+s110KGF6lZTgqAnjMHHcOPTvWyU6DhERERFRTLAAJDoMr8+HT7/6Gm++9wE2btkiOk7YTGYzKqt6o7K6Cr379UNOdpboSBQmlz+I//CQEDoQjQZajQytpxMGZxPMTXUwNNeLTiXcwOpqTBw/FkdPGI+SoiLRcYiIiIiIYo4FIJECS35ajv+89z6+nTNXdJQey8jMREVVb5T36Y2K6r7I4P6BcWdLqwvPLaxDQ7tbdBQSQSNB0gSh93TC4GiCoWkLTC1bRadSjTEjRmDi+LGYOG4csjIzRMchIiIiIhKKBSBRGHY1NeGt97uWBzuc8bk8+Ncys7NQ0ac3KvpUory6H2xpKaIjUTd9ua4J76/aAYc3IDoKRYskQZJD0Hs7YHA0wthcD2Nzg+hUqmI2mTCuZhQmjhuLCWNGw2qxiI5ERERERKQaLACJesDr8+Gzr7/Bf959P66XBx9IVk4OyntXoKKqN0r6VCHbxhmCauYNBPHJmkZ8tqYR7kBQdBwKl0aCFiFo/W7o3Xbo23fC1FgHrdshOpkqpael4cixY3D0hPEYP7pGdBwiIiIiItViAUgUIYuX/YQPPvscn3/zP9FRosJkMqG4rBSFJcUoKi9HYa8yZKenio5Fv+LwBvD+qh34ch33B1Q1jQYSAG3ADb3LDoN9F4yNW6Bz2UUnU73hgwdj7KgRGDtyJPpUVoiOQ0REREQUF1gAEkWYy+3GV99+h0+++hpLl68QHSeqTGYzistKUFxagvyKPiguLUZWmlV0LALQ2OHFf1fswLy6VtFRkptGgqQJQef3Que2w9DeCENrA/SOZtHJ4kZBXh7GjhyBMaNGomb4MJhNJtGRiIiIiIjiDgtAoija1dSEj7/4Cp989RUatm0XHScmzBYListKUFRSjLzKKhQVFSLHxv0ERalrc+Gt5TuwfAdnlkWTRtJAGwpA63NB32mH3tEIQ1MddJ7E2CM0lowGA4YNHoSxo0Zi7MiRKCspFh2JiIiIiCjusQAkipGVtWvw8Zdf4atvv02Yg0O6y2g0oqCkGEXFxcivrERBSQmKsm2iYyWVNY0deG3pVtS1uURHiV+SBlpZhjbghc7jhNbZDGP7Th7GEQFlJcUYO3Ikxo4aiTEjR4iOQ0RERESUcFgAEgkwe85cfPzFl/hu3nzRUYQqKStDYWkxCsrKkFdahsyMdKSZjaJjJbQlW9vwzsqdaGh3i46iQhpoJA00cghS0A+d3wWdyw59eyNMTVsg+fg5ixSzyYSa4cMwZuQIjB01CgV5uaIjERERERElNBaARAI5nB34cvZsfPzlV1i1Zq3oOKqgN+iRmZWFjOwsZOTkIr24FBnZuci0pSEn1QyjXis6YkJY1NBVBG6zJ0mppdFAowEkOQQp4IPW74XW64Su0w5dRyt0jiYu142ykUOHYOSwoRg1bCgGVleLjkNERERElFRYABKpRFNLC7757gd88/33WLZyleg4qmVNTUVmVhZsBQVIK6lAemYW0tNSkZ5iQobViDSjXnTEuLKgvhXvrdoVv0WgpIEEDSAHIYVCkIK7yz1PB3RuO3TOVujtOyD5vKKTJp1+VVUYtbvwGzJwAIwGg+hIRERERERJiwUgkQq1trdj9g9z8M33P2DR0mWi48SdjMxMpOTkILWgFKk5eUi12WBLS0F6igUZFgOyrFxm/Gvz61vx7oqd2OH0iAuhATQaCRrIkEIhQPZDCvi7Cj2fG1qfC5LbAa3bCW1HG2fsqUxpcTFGDRuKmuHDMHLoEKRYeSI4EREREZFasAAkUjmHswOz58zB/36Yg7kLF4mOkzAsVitSUlNgyi+BJTMHloxMWNNSYbVakWoxIdVsRKpJjzSTHpYkWnY8r64V763sYRGokaDRABqEoAnJkOQANMEApKAPkt8Ljd8Lnc8FyeOC5OuA1t0BvaM5cg+CYiI7M3P3DL9hqBkxDDlZWaIjERERERHRQbAAJIojnS4Xvp83H998/wPmL14Cr88nOlLSsGVmwpybD70tB8a0dOhNZhiNRphMRhgMBpgMehgNehj0epgMOhh0Wpj1Opj0Whj1WqQadaIfwkF5A0H4gjL8wRB8wRB8gRDmbG7GV7XboJFD0ISCkEIBaAJBaEJ+aIK7/wS8kPxeSF4XtB4ndC4HJJ/AGYQUVfm5uRjYrxpDBw3EyKFDUF5aKjoSERERERF1EwtAojjl9ngwZ8FCzFmwED8sWAiH0yk6EnWTwWCAJEmQtBIkrQ6SpIGklaCVtNDo9NDo9ZCkrrcanR6SpING31UgagDIkLuKORkAQoAsQwMAkAE5BIS63tdABmQZciCIgN8Pn9+LoNeLgN8Pvz8At8sl6DNAamcyGdGvqgoDq6sxqF81Bg3oj0ybTXQsIiIiIiIKEwtAogRRu24d5i5cjLmLFmFl7RrRcYgojpQUFWFQv2oM7FeNgf36oW/vStGRiIiIiIgoglgAEiUgh7MDC5YswdxFizF/8RK0trWJjkREKmG1WDCguu/esm9Qv2qkpaaKjkVERERERFHEApAoCazbuBFzFy7GvEWLsGzlKtFxiCiGLGYz+vbpjf5VVTj5uGNR0atMdCQiIiIiIooxFoBESaajsxMLf1yK+YuXYNHSpdi+c5foSEQUIVaLBVW9K9G/qgr9+1ahqrICpcXFomMREREREZFgLACJklxLaxsWLl2KH5cvx9LlK9CwbbvoSETUDVaLBdV9eqO6Tx9U9+mDflW9UVJUJDoWERERERGpEAtAIvqF1vZ2LF2+Agt/XIrlq1dj05Y60ZGIkl5WZgbKS8vQt3clBlT3RVVlBcs+IiIiIiLqNhaARHRIdocDi5Yuw4rVtVi5Zg3WbdgIn98vOhZRQiovK0WvkhKUl5WipKgIvUpKUFFWBpPJKDoaERERERHFMRaARKTY+o2bsHrdOtSuW4/Va9di7YaNoiMRxY1Mmw1lpSUoKy5Gr5ISlJYUo1dJMYoKCkRHIyIiIiKiBMUCkIgiYmXtmq5ScO06rF67DlsaGkRHIhLGarGgqKAAJUWFKC0qQnFRYddsvl5lsJjNouMREREREVGSYQFIRFHh9niwZt16bNxSh7qGBqzfvBmb6+rRbreLjkYUEbb0dBQXFKC4qBAlhYUoKizoeltQgAxbuuh4REREREREe7EAJKKYcjid2Lh5CzbV1WFTXR0219VjU10d2tpZDJL65OZko7igEMVFP5d7JUWFKCkqgtlkEh2PiIiIiIioW1gAEpEqOJxObNi8BZu21KFh2zZsaWhA/dZt2L5zp+holMBys7ORn5eLgrw8FBXkIy8nBwV5eSjIy0VpcbHoeERERERERBHBApCIVK+uYSsatm1D/dZtXW93/2lsahYdjVQuPzcXBfl5e0u9rrdd7/PQDSIiIiIiShYsAIkorq3dsBHbduzA1u3b0djUjNb2drS0taG1rR0tra3odLlER6QIy8zIQEZ6OjJs6bClpyMjPR02WzpsaV0fy8rIQG5ODgrz80RHJSIiIiIiUgUWgESU8HY2NqK1rR2te4rBttbdb9vQbrejubXrv50dHaKjJhWL2QyrxdL1x2pBakrKz4Xerwq+DFs60tPSkZaaIjo2ERERERFR3GEBSES0j8amZrS0t8HucKCpueXn4rC9DW3tP5eFdodDdNSYM5tMMJmMMBl/fmsxm2DeU+SZzbBaLXtLPcvut6kpVphNZlgs+xR+Fovoh0NERERERJQ0WAASEYXJ4/HC6/PC6/XB6/PC4/XB6/XC4/XC6+t6f+/b3bfx+fzwB/wIBoMIBIK73wYQCP3qv4M/vx8MBhEMhqDRAFqtFpIkQStJP7+v1UKrlSBJ2q73Jennj+/zviRJ0Gm7bmMwGGAyGmE2mWA0GWEy7v5j6vpY1393FX1GoxFGg0H0p5uIiIiIiIjCxAKQiIiIiIiIiIgogUmiAxAREREREREREVH0sAAkIiIiIiIiIiJKYCwAiYiIiIiIiIiIEhgLQCIiIiIiIiIiogTGApCIiIiIiIiIiCiBsQAkIiIiIiIiIiJKYCwAiYiIiIiIiIiIEhgLQCIiIiIiIiIiogTGApCIiIiIiIiIiCiBsQAkIiIiIiIiIiJKYCwAiYiIiIiIiIiIEhgLQCIiIiIiIiIiogTGApCIiIiIiIiIiCiBsQAkIiIiIiIiIiJKYCwAiYiIiIiIiIiIEhgLQCIiIiIiIiIiogTGApCIiIiIiIiIiCiBsQAkIiIiIiIiIiJKYCwAiYiIiIiIiIiIEhgLQCIiIiIiIiIiogTGApCIiIiIiIiIiCiBsQAkIiIiIiIiIiJKYCwAiYiIiIiIiIiIEhgLQCIiIiIiIiIiogTGApCIiIiIiIiIiCiB/T+R6H/CTQpLNgAAAABJRU5ErkJggg==;" parent="1" vertex="1">
          <mxGeometry x="440" y="138.6" width="77.97" height="43.85" as="geometry" />
        </mxCell>
        <mxCell id="Wg8RFO9psuNznAwOXjFQ-62" value="&lt;span style=&quot;color: rgb(0, 0, 0); font-family: Helvetica; font-size: 12px; font-style: normal; font-variant-ligatures: normal; font-variant-caps: normal; font-weight: 400; letter-spacing: normal; orphans: 2; text-indent: 0px; text-transform: none; widows: 2; word-spacing: 0px; -webkit-text-stroke-width: 0px; white-space: normal; background-color: rgb(251, 251, 251); text-decoration-thickness: initial; text-decoration-style: initial; text-decoration-color: initial; float: none; display: inline !important;&quot;&gt;4. Develop and Experiment Federated Learning&lt;/span&gt;" style="text;whiteSpace=wrap;html=1;align=center;" parent="1" vertex="1">
          <mxGeometry x="65" y="47.5" width="200" height="40" as="geometry" />
        </mxCell>
        <mxCell id="Wg8RFO9psuNznAwOXjFQ-64" value="" style="shape=image;verticalLabelPosition=bottom;labelBackgroundColor=default;verticalAlign=top;aspect=fixed;imageAspect=0;image=data:image/png,iVBORw0KGgoAAAANSUhEUgAABAAAAAIACAIAAACTr4nuAABoHUlEQVR42u3dd3xc5YHv/znTm3rvxbZkFduSbVmWe29gYzAQIJTAJuRuQrJJ7m93c7PLLi+ye7O5aYRNllATQggtwRgwtnHvarZsq9iS1Xtv0+ecmfP7Y264WcDGGhVL48/7D16vODqjo+eUeb5PFWRZVgAAAAC4NSgpAgAAAIAAAAAAAIAAAAAAAIAAAAAAAIAAAAAAAIAAAAAAAIAAAAAAAIAAAAAAAIAAAAAAAIAAAAAAAIAAAAAAAIAAAAAAABAAAAAAABAAAAAAABAAAAAAABAAAAAAABAAAAAAABAAAAAAABAAAAAAABAAAAAAABAAAAAAABAAAAAAABAAAAAAAAIAAAAAAAIAAAAAAAIAAAAAAAIAAAAAAAIAAAAAAAIAAAAAAAIAAAAAAAIAAAAAAAIAAAAAAAIAAAAAAAIAAAAAQAAAAAAAQAAAAAAAQAAAAAAAQAAAAAAAQAAAAAAAQAAAAAAAQAAAAAAAQAAAAAAAQAAAAAAAQAAAAAAAQAAAAAAACAAAAAAACAAAAAAACAAAAAAACAAAAAAACAAAAAAACAAAAAAACAAAAAAACAAAAAAACAAAAAAACAAAAAAACAAAAAAACAAAAAAAAQAAAAAAAQAAAAAAAQAAAAAAAQAAAAAAAQAAAAAAAQAAAAAAAQAAAAAAAQAAAAAAAQAAAAAAAQAAAAAAAQAAAAAgAAAAAAAgAAAAAAAgAAAAAAAgAAAAAAAgAAAAAAAIqADQ1SH19Xi8XgoWAAAAmI7UE/tx9bXuw/vsuXm6tZuMoWFKlVqgiAEAAICADQCSpOjrlT74k/tCmXPLDlPWfF1omEqlopwBAACAaWFS5gB4vYqWJvHVF0Zef3m0otRpGfXKMkUNAAAA3Hzqyftop0MuP+tornfnFeiXLDdkzNUq6QoAAAAAAjUAKBQKWVb09XqO7LfX17qXrjQUrTKGhbPuEAAAABCgAcDH45GbG8S+Hk/1RdfqDaYFi3Q6PZODAQAAgAANAAqFQpYVVou36oKr8aqYNU+7YZs5bZbGYCQGAAAAAIEYAHy8XoXV4i0746y64F69wbBynTE2Xq3VEQMAAACAQAwAn3DYvR9/aKutdq9cb5yXr4uOUTM/GAAAAAjYAKBQKLxeRVOD2NNtqb7oWlykX7BIHxTM/GAAAAAgQAOAj93mPV/qbG4QKytcazYas+bpuCQAAABAwAYAhUIhy4qBfk/JKUdTg7h8tXHlekNomEpJZwAAAAAQkAHAx+NRdLVL779jKTvjWLvZmF+gDwlTqlTMDwYAAAAm0vRqaXe75ZYm8Q8vjT7/y+Hys86RYS9XCAAAAJhA6ml4TpIk11xytTaJRasMhSsMabM0LBUKAAAABGwA8LFavEf2265ecS9eaigo0scmqJkYAAAAAARsAFAoFB6PorlB7O32XK50FSw3LF2hN5kJAQAAAECABgAfu81bU+lqbRYvnXfedqc5fbZGpRYExgQBAAAAARkAFAqFLCsso94LZc76WvfSFYbVG4wxcWqdnhAAAAAABGIA8PF6FaPD3oN7bZUVrpXrjXmLdXEJarWaGAAAAAAEYgDwkWVFV4f03puW6guuotWGvEW6kDAVFxIAAAAIzADg43bL1Zdc7a1S3WX3stWGjCytRkNXAAAAABCgAcBnZNhz5pij6ap7wSL9yvXGuAQ1k4MBAACAgA0ACoVCkuS2Fqm321Z1wbV8raFolTEoWMmOAQAAAEBgBgAfl0tuaRLb26TzJa5td5pnZWjMQUp6AwAAAIDADAAKhUKWFZIoX65ytTS5lyw3FK00pM7SGk2EAAAAACAQA8An7Db5xCH71cvuxUWGRYX65DSNilWCAAAAgEANAAqFwutVdLRJfb3Wy5WuolWGolUGk5lpAQAAAECABgAft0uuu+zu6ZKuVLtXbzRm5+pUaq44AAAACAABbWTYW37WUX/FvWCRfu1mY3ySWqtlYgAAAAAIAIHL41EM9HuOHbRdPO9cvcFYuMIQE6dmYgAAAAAIAIHM61UM9Hl2v2mpuuhav8U0N0cbFqFiqVAAAAAQAAKZLCvqatxdHVLeIv3iIv3cHK3RxPxgAAAAEAACmmXEe+a4/eoV94JF+lXrDYkpGjYPBgAAAAEgkHk8iu5OaWjAdqXatWKdYe1Gk07PeCAAAAAQAAKayyW3NIq93dKFMteGraaseVqDUUlvAAAAAAgAgcxhl6svuhrq3HmL9Ks2GNPnaEwmpYL+AAAAABAAApjTIRefctRdcS9bbViyzJCcplapCAEAAAAgAAS0wX7Pvvds9bXupSsM8xfpo6LZLwAAAAAEgIDm8ci11e6ONqn6knv5GkPOAp2e+cEAAAAgAAQwWVZYRrznS5yNV93Z83Rb7zAnJKuZHAwAAAACQCDzeOSBPs+ZE47LVa41m4wr1hhDQpVqDb0BAAAAIAAEcAyQ5P5ez7tvWM4VO9dtNuUs0IVHqlRMDQAAAAABIIB5PYqmevGPnSO5ebqlKww5C3QmM0OCAAAAQAAIaA67XHbG2VQvLirUL11pSJ+jZWIAAAAACAABrr/Xc3i/vaFOXLJMX7jCEB7JeCAAAAAQAAKaJMoNde6uDuniedfaTcZ5+TqDUSkwPRgAAAAEgEAlywqb1Xu50tV41Z2Vq9u205ycrjEYCAEAAAAgAAQur1fhsMvnS51Xr7jXbjYVFOnjEtU6HTEAAAAABICAZhn1frTbWnXBVbTKkLdYFx3LxmEAAAAgAAQ0SZIbr7p7uqSaS67FRfqCIoPBSFcAAAAACAABzWb1Xih3tjSKtdXudVtM6XM0TA4GAAAAASCQybJicMBz5rijoc5duMKwfI0xIorNgwEAAEAACGiSJHe2S+//yVp6xrl+i3HBIn1ElIqJAQAAALiJqI1OLllWSKLc3iL+4aWRV/5r+Hypc3TES7EAAADgZqEHYIp4PIqqC672VqlwuX5xkSFtlkanZ2YAAAAApho9AFNqeNBzeL/99ZdHjh+yWy10BQAAAIAAEOgkUW5uECtKnSPDBAAAAAAQAG6RGCDJXo9MOQAAAIAAAAAAAIAAAAAAAIAAAAAAAIAAAAAAAIAAMHP0dns62iRJYqIwpoIkeVtaLF1ddooCAICAx0Zg01R7q/jhn60JyeotO8zRsSqNhl3DMClE0dvb63j//ebq6qH7758dF2ekTAAAIADgJvB4FMNDnvpad9UF1+btpvwCQ0SkUk0MwMSRJHlgwFlS0vvWWw1dXfaoKD09TgAAEABwM8myQpYV/b2et39vuVjuWr7WkD1fFxamEhi3hXHfWkNDrosXBw4daj93rt/l8lAmAAAQADCNiKJcddHV1irOy9MvXqqfl6/T6ugKgJ/cbs+lS4PHj3eVlPT09TkpEAAACACYpkaGvGeO2+tr3fV1+lXrjXEJXDuMWXe3/aOPWk+f7m5psXrYixoAAAIApjmvV9HdKR3aa7t62b1inbGgSG8yMx4IN8Rmk86e7dm3r/XKlWG7XaJAAAAgAGDGcDrlusvu1max+KRjw1ZTZo7WHKQUGBOEzyPLCqtVrK4e3LOnpapq0G6XvF4a/gEAIABgBtbqHHa5+qLr6mX3okL9uq2mlDSNwUgIwH/jcEgNDaN797YeO9bpdDLTFwAAEABmPrdbPnvS0XBVXLXBmF+gi09Uq9XEACgkSW5vtxYX9+7d29LebqNAAAAAASCg9HZLH7xjuXzJtWipfuESfXikihFBtyxZVgwOOs+e7Tl1qruycpDh/gAAgAAQmFwuufqSq61FrLnkXrHOkLdIr+La3nokST5/vm/fvrbKysHBQafMaH8AAEAACGyjI97zZY7mRnf1Rdem203RsWolqwTdGrxeuafH8e67TadPd/f2OljiEwAAEABumYqgR9Hf6zn6sb36omvFOuOSZfqISJVaw5CggCVJ3r4+5+nT3R991NbebhVFL2UCAAAIALdepVCUO9ulP/1h9Fyxc80mY84CXWQUEwMCjSwr+vocFy70793bWl09RKs/AAAgANzqvF5FQ527vVXML9CvXGeck6U1GAgBAcLp9FRVDR482H7qVDczfQEAAAEA/4/LKZeccrQ2iQsL9QVFhpQ0DfODZzSPR25qspw82XXiRFdLi1Vmqi8AACAA4FNkWdHZLg302a5UuwuW6petNoSGqyiWmWh42HX0aOexY11Xr444HDT8AwAAAgCuzeWSG2rdXe1SRZlz8w7z/HydRiswMWCmRDi323P+fP+f/tRYXz9qsYg0/AMAAAIAbqgeabN6a2vcrc3D+QX6DVuNCckavYEYMK0vmdMptbRY9+5tPX6802aTvF6q/gAAgACAMdYp7Tbv6WP2K1Wu5WsMi5YaEpPVWh0hYNpxuz0tLdazZ3v272/r7rbT6A8AAAgAGJeBfs/e3baqi+6ilYbFRfrIaCYGTCO9vY5Tp7qPHeu8cmWY1f0BAAABABPD45Ebr7q7O6WrV9xFqw3z8nQ6PV0BN5nT6blwof/gwfaysj6LRaRAAAAAAQATzG7zlhc7WprEygW6VeuNabM1SiWlchN4vXJzs2X//raSkt72dhvD/QEAAAEAk1f1VPR0SYP9nsuVriXLDKs2GCOiVCrGBE0Vj0ceGHAePtxx8GB7Z6fd5fJQJgAAgACASSeKcleH9OFu67lSx7ad5nl5uuBQFb0Bkxy95NFRd3l535tvNrS2WiXJy2RfAABAAMCU8khye4v02+dG8hbrV64zzMrQBgUrWSp0MoyOumtrh48c6Tx2rNPppNUfAAAQAHDziG65/Kyjqd69cIl+0VL97EytVksImDBut7e2dvj06e6TJ7u6uhxs7AUAAAgAuPlkWdHf6zmy315b7S5Ypl+x1hgRxbSACdDf7/z447YTJ7qbmkbdbpb4BAAABABMJ5IktzSJ/b2eK9XuNRuNC5foNXQF+EsUvWVlve+/31JTM8QSnwAAgACA6ctm81ZfcrU1i2Vnneu3GNPmaHU6gYkBN0iWFS6Xp75+5IMPWs6d6x8acrHEJwAAIABg2tdivYqRYW/pacflStfSlYYVa40JSWqtjhDwBVwuT2ur9eDB9sOHO4aH3VT9AQAAAQAzKgbIitER78cf2qouutZvMc1fqIuOVbNU6OfyeuXeXkdxce9HH7VevTpCgQAAAAIAZrDONumd10YvV+oKlhlyFuhCQgkB/83IiLuiov/kya6Skl6bTaJAAAAAAQAzntMpnyt1NtWLuXm65WuNc+Zq1GpGBCkkyXv58vDBg+3l5X09PQ7G/AAAAAIAAofsVQz0e84cd9RdcS9eqt+y3Rx8a3cFDA+733+/+ciRjq4uh9vN3l4AAIAAgEAkinJXu3TgA1vVBdf6raa8xXpzkFJ1K+0Z4PHIFotYXt737rtNTU2jbOsLAAAIAAh8bpfcVC+++vxI8UnH2s3GzCxdcKgy4JcKlWV5eNhdUzP04YetFRX9LhdVfwAAQADArUR0y1UXXC2N4qJCfdFqw5xMbQBvHCaK3suXhw8daj91qntoyMXVBwAABADcoiyj3mMH7Y314tKVhoVL9PGJ6gDrCpBluaPDfvp097FjnbW1wzITfQEAAAEAaG0S+3qky5WuwhWGhUv0QcEBMj/YYhGLi3uOHu2srBy0WkUuNAAAIAAA/5fDLldfdLU2ixfPuTbeZprpS4VKkremZui995orKweHhlweDy3/AACAAAD8d16vYmTIe77EcaXKtXSlYdNtpvAolXamTQxwu719fY4PPmg5cKDNYhGp+gMAAAIAcD0ej8Iy6j30ka3yvGvtFmPeYn10jEqtmQExQBS93d328vK+PXtaWlutMuP9AQAAAQC4QbKs6O6S/vxHS+V5V9Eqw7yF+tCw6btUqCwrhoZc5eV9hw61V1YOsro/AAAgAAD+cLvkqouuthbxcpV76UpD7gKdavrdjB6PfPHiwMGD7efO9fX1OblqAACAAACMy8iw98xxe3ODe/FSw7LVhrjEaXRDdnXZDx5sP3Giq6nJ4vUy5gcAABAAgIng9Sra26T+PmvVRdeKtYaCIkNQsFJQ3sTzkUdHxVOnug4caG9sHHU4JAb8AwAAAgAwoWSF0yE31LnbWsTiU87N202Z2Vpz0FRPDJBlhcXirqoa/POfm2pqhlwuL5N9AQAAAQCYxPq3yylfqXI1XnUXrTKsWm9MTFYbTVPUF2C3S01NlgMH2g4ebGemLwAAIADcKI1GoVIJFCvGw+2STx6219W4i1YZFhXq45PUk7pxmCh6W1osxcW9R450tLRYGe4PAAAIAGMwO1O7dpPx5BFHfy8jp+E/r1fR1SF99J71SpV7YaGucIUxNGxSugKGhlzHj3cdP95ZWzvicEiUPAAAIACMTWy8evN205ws7YlD9rKzDkmkhOE/p0OuqXS1tYhXqsV1m405C3TKiUsBXq9cUdG/Z09LdfXg4KCL0gYAAAQAPxlNypz5usRkdX6B/sh+W8NVURKZSwn/WUa950sdLY3u/AL9mk3GuAS1WiUoxjEmSJK8HR22Dz9sPX26u7fX4fFwdwIAAALA+AiCIjRMVbjCkJmtLT7lOHvC0dkuuV1Us+Anr0fR1+M5vN9+8Zxr5TpjwTJ9dKzKj4kBoujt7rafPNm9f39bV5ddkryULQAAIABMGKVSER6p2rbTvKhQf2if7WK5q6dL8lLjgr88ktzTJf35j6MVZc71W43Z83URkaobP7y/33nuXN8HH7RevjzETF8AAEAAmEQxcep7HwzOynGdOeG4XOUaHSYEwH+yrGioc3e1S4uW6otWGWZnag3GL+gKsNnE6uqhkye7jx3rtFqZmAIAAAgAk0+jFfIL9MnpmsoKZ/FJZ/0Vt9tNEyz8Z7d7zxy3N151F602rlpnCIu4ZldAb69j3762o0c72tttDPcHgCkmy7LVau3s7Ozo6Ojv7x8YGLBYLE6n0+PxuN1uQRB0Op1KpdJqtXq9PiQkJCIiIiwsLDw8PCYmJjQ0VKlUUobATA0ACoVCUCoio1Qr1hozsnQVZc6De22D/Wy3BP95PIqONul8iSNnvvY6AaCnx3H6dHdLi5USA4Ap4/V6r1y5cubMmfLy8ubm5uHh4dHRUbvd7nA4XC6XJEler9fj8QiCoFKplEqlSqVSq9V6vd7wF2azOTY2dtasWRkZGVlZWZmZmWazmYIFZlgA8NFohIQkdWS0KTdPd+gjW/lZp8PuZWIA/CZJCo/n+j/gZbIvAEwBWZbdbndXV9fRo0d3795dVVU1PDxss9ncbrd/H6hSqfR6vS8VRERE5OTkLF68eNu2bRkZGYLArqPAzAkAPjqdkJKmefCrIQVFhiMHbFcvu21WYgAAADOV2+2uq6vbu3fva6+9dvXqVV8b/zg/0+Px2Gw2m82mUCg6OjqqqqreeecdSZK+973vqVQqyhyYYQFAoVAIgkKvFxYs0qXN1pQXO8rOOK9ecbucDNEGAGCG6e/v379//y9+8Yvz589P0q+QZdnj8Xg8nvj4eJr/gZkaAD4RHKJcu8k0N0d35rij9LSju1Ni1zAAAGaK1tbWl1566YUXXujp6ZmCX5ecnEwAAGZ8AFAoFIKgiE9U377LPDtTU3bGWVHutIwwHggAgOnuypUrv/zlL99+++3BwcEp+HUGgyE6OpoAAARCAPDR64X5C/Up6Zp5+brD+231V0RJoi8AmJFeeuml9957TxRvuV0X1Gr1li1bvvWtb3EP4FbQ2tr6zDPPvP7661brFK20FhsbazAYKHkgcAKAQqFQKhVh4aqCIv3cXO2FMtdHe6z9PR5RJAYAM0xdXd3hw4edTuet9odrNJqUlBRuANwKBgYGnn322d///vcOh2PKfmlKSopWq6XwgYAKAD4qtRAaplq90Zg9X3twr+18qWuw30NvAAAA04QkSfv37//Nb34zlbV/XwDQ6XSUPxCAAcBHEBTRsep7Hgqev9B95rijptI1NOiRmRoAAMDN1tbW9pOf/MS3QOdUSkpK0mg0lD8QsAHAR6sV5uXrktM0VRecxSed1ZdcopuuAAAAbqa33377ypUrU/97ExMTGQIEBH4A8AkJVS5bZUydpT1f6jx1xN7ZLnHlAAC4Kdrb2999912/9/f1v8qiVsfFxdEDANwqAUChUAhKRUKSOiLKlJGlPXnEXn7WabMyHggAgKl26NChpqYmecp37QkLCwsJCWENUOAWCgA+er2QkaVNTtUsW2X4eK+tttpts3rZOAwAgKlhtVr37ds3Nav+f0pcXFxQUBCXALjlAoBCoRAEhcEoZM/XzZmrLSt2Hv7I1tYsOhyEAAAAJl1VVdXVq1c9Hs/U/+r4+Hiz2cwlAG7FAPAJjVYoWmlIn605ecRxsdzZ0S5J7BgAAMBkqq6u7urqmqhPUyqVJpNJq9VqtVqv1ytJksvlcjqdkvQ5k/1iYmJMJhOXALilA4BCoRAERWy8esc95pwF2rIzzvMlzqFBDyOCAACYDJIkXb16dWBgYJyfo9FoMjIyFixYMGfOnKioKL1er9PpPB6PKIpOp9NqtVqt1pGRkYGBgd7e3u7u7o6OjpGREQIAQAD4f3Q6IXueLiFJk7tAd+KI/WK582b0TAIAEOCGh4c7OztFURzPhyQmJj7wwANbt26dNWtWTEzMZ5f1lGVZFEW73W6xWIaHh4eHh/v7+zs6OhYsWEAAAAgA/01IqDJ/iT45TZOVqz28z97bLXlZJQgAgInT29vb09Mznk9ISkr6p3/6p3vvvTc0NPRa6/kIguAbFBQaGpqUlPRJJBAEgTVAAQLApymViqgY1YatpgWL9CcO28vOOAf6PUwMAABgQgwODo5n/I9er//Sl770la98RafTjelAXySg/AECwLX/JI0Ql6C+58HggiLD0Y9tlRWuwX4mBgAAMF4Wi2V0dNTvwyMjI7/+9a+PtfYPgABwo5RKRfocTUJSSHmx48wxx9Va0WFnSBAAAP7zTc/1+/C0tLT09HSKESAATC6dXihaZUyfrS0vcZaedrQ1i8wPBgDAPy6Xy+Vy+XesIAg5OTlKpZJiBAgAk06pVMQlqjdFmubmaM8VO08fdwwPEgIAABgzj8fzuSv036DExETKECAATB2dXpidqU1IUuct1u3/wHbpnEuSZCYGAJP1xOl0ZrN5ktbr8Hg8DodjPA+w0WhUqVSTcW4ajYbxzQhgkiSNJwCEhIRQhgABYEoJgsJoUmbm6JJSNeeKnUc/tne0iU4HMQCYeP/rf/2v733ve5P0dJWWln75y18eHBz0+xM++OCDvLy8yQs/3AAIVLIse8exxrZer6cMAQLAzYkBJrNy5XpjTp7uzDFHebGjrUUS3YQAYCIZjUaj0ThJHx4UFHSt5cNvUHBwcFhY2Dg/BLg1A8B4Dp+knjcABIAbjQERkaptO01Z87TFJx3nS519PUwMAAAAAAEgoKnUwuxMbXyiOiNLe/qYo/qSy+WkKwAAAAAEgIBmNCkXFxmS0zRVF10nDtlbGkUvGwYAAACAABDAlEpFbLw6IlKVPU9Xctpx4pB9aMDDjgEAAAAgAAQyjVaIT1Rv32VeuET/0XvWmouu0REvvQEAAAAIJGzI95lIpBZS0jSPfSP0wa+GLFikDwpWslIIAAAAAqe6SxF8Lp1OWLLckD5He67Eea7E0VAriiLzgwEAAEAACFyCoIiKUW3YZpybqy0/6zh11DHQx7QAAOMiy7LVah0YGLDb7W632+Vyud1uURS1f+HbRDkyMtJgMNwKBTIyMtLd3Z2enj5J+0b7x+l0dnV1BQcHR0RETPbv8nq9vjtBkiRBELRarVKp1Gg0arWarSqmniiKQ0NDg4ODDofD93i63W7faGCdTqfRaPR6vVarDQsLCw8P1+v1t8I1crvd9fX1er0+PT19+p+tw+EYHh62Wq1Wq9VisbhcLlEUFQpFZGRkXFxcTEyMVqudyvPxeDxWq3V0dNT3X5vNJgiCwWAIDg6OiYkJDw+/WbcQAeCLCkgtpKZromNUGVm6Yx/bLp5zudk1DMBY6hMtLS3V1dV1dXVtbW2dnZ1DQ0MOh0MURc9feL1epVKpUqnUarVKpdJqtSaTKSIiIi4uLikpKTc3d/78+dHR0YFULF6vt729/eDBgwcOHNDr9c8880x4ePh0ODGbzXb8+PH333+/t7f3W9/61tq1a8f5gZIkDQ0N9fb2dnd39/7FwMCA0+m02+2+KuYnd4IgCCqVShAEpVKp1WpDQ0NDQ0PDwsIiIyMTEhKSk5NTUlKioqIIBhMYyIeGhurq6mpqaq5evdrZ2dnX12ez2RwOhyRJvosiSZLvh1UqlS+bKZVKvV5vNBrDw8Pj4+NTU1OzsrKys7NjYmLU6oCqVtnt9qNHj+7evbu2tvahhx56/PHHp9sZWq3W+vr6hoYG39u1o6Ojr6/P4XD4GlbcbrckSb78ZjQazWZzUlLS6tWrt27dmpKSMklvtv7+/qtXrzY1NbW2tra3t3d1dY2MjPiS5CdpRKPRaLVas9kcFxdXWFi4bNmyefPmTfE+2QSAG2I0KXPzdCnpmtpq16F99qZ6t8s5zv0QAQQmSZIcDsfQ0FBZWdn+/fvPnTvX39/vdDqdTqfvO+kG1xZQqVS+LwmDwWA2m9PS0oqKijZu3JiZmRkUFDQZTY+7d+8+e/bsmJY+iImJ+eY3v3njuz6Lomi1WktLS994441Tp04NDg5aLJaUlBSXy3WtQyoqKvbu3Ts8PHzjZxUUFHTXXXfNmzfvBn/e4/HY7faGhoa9e/fu2bOnpaVlZGQkJCTknnvuufFvfd8XvCiKNputubm5pqbGV6dsbW212+2SJImi+Ml/JUmSZdnj8ciyfK3vEl8Y8NFoNL6bQafTxcbG5uXlLVy4MD8/PyUlxWQyjf9m8Hg8ly9frqqq+sKfLCsr83uNPFmWn3/++YMHD/p3eHBw8Fe+8pWlS5eOs37mdDodDsfly5cPHDhw9uzZlpYWm83me0J9sfzGv93/+iHV6/WxsbELFy7cvHlzQUFBUFCQwWCY8DzQ0NDw+9///urVqzd+iFKpvOuuu+68884bvEm8Xq/NZmtsbPzwww/37t3b0NAwPDzs8XhWrlwpy/Lnfojb7T5+/PiZM2du/Kwefvjh1NTUMd23oii6XC6n09nT01NRUXHhwoXq6urGxkabzfZJV6rv+bperVet3r9//7PPPrtz5877778/IyNDp9P5fT/7fq/D4Whubi4pKamoqLhy5UpPT4/T6fyk++iTBHKtW2jv3r1BQUE5OTn33Xffli1boqOjp2bDbALAjT9CipBQZcEyw9xcXelpx/GD9o52SaQ3AMBfOJ3O9vb2srKy999//+TJk319fb56nn+tBb7WR6fTOTo62tPT09jYePTo0Z/85CdZWVnbt2/fvn17WlpaWFiYUjlhazkcO3bsN7/5zZiqd5GRkQ899NAXBgBZlh0OR3t7++nTp1977bWSkhKn0/nJl2JXV5fb7b7WsbW1tS+//HJbW9uNn5XBYEhNTc3Nzf3C6oXH4+nu7r5w4cKbb7554MCBoaGhT+p/IyMjw8PD16rx+OpJdrvd92Pt7e0lJSUXL16sra1ta2vz/XWyLPv+63f1whcVPvXvzc3NpaWlgiBoNJrs7Oxt27atX79+1qxZ0dHRfo9tcLvd77333tNPP30jtcPxLJJdWlpaVlbm37FJSUnbtm3z+1eLotjd3V1TU3Pw4MGPP/64vr7eN7ZnPI15f/2QKhSK1tbW8vLyl19+OTY2dtWqVVu3bl20aFFSUtKNJ+QvNDAwcOjQoeLi4jEdFR0dvXnzZpPJ9IV/Tl9fX1VV1WuvvbZv376/fhwUCsXw8LDdbv/cDxFF8eDBgz//+c9v/JRCQ0O/8Y1vfOHAP1mWbTbb4OBgf39/dXX18ePHi4uLm5qafC0pflw+SZKGh4eHh4fr6up27979zW9+c9euXbGxsTceRTwej8ViGRgYaG9vP3v2rK/e39PT46voj/WF7/F4RkdHR0dHOzs7jx49unz58u9///srVqz4wotFAJhqgqAIDlFu2GbKzNYeOWCruuDu7ZG8TA0Abm1ut7uuru7YsWO7d+8+ffr0ddqz/eZrMPZ4PL6mr9/+9rd33nnn9u3bFy1aFBYWNiG/wveFOqbqnW9wS2xs7HV+xm63V1ZWnjx58r333jt37pzT6fzsDwwPD1+rR95XjR7TWVmt1u7ubrfbfZ22PVEUW1tbz507t3v37r1791oslk/9gMvlGh4e9k3P+Ox3dm1t7aVLl+rq6iorK6uqqurr66/f7jjhd4KvKnPu3Llz587953/+57p162677baioqLZs2f7N5vC6/X6BidM9sn7XeH2tbL796c1NDScPn36vffeO3HixNDQ0KReGo/H09ra+oc//OGdd97Jz8+/66671qxZM4EDPHxPxJgO6e3tHR4evk6dUpKk9vb28+fPv//++++///7nFtHIyMjo6Oi1PuST2/IGHTly5Gtf+9p17lVRFJubm69cuXLx4sXS0tJz5851d3dP4NLsHo/nypUr//iP/1hVVfUP//APXzi9QZZli8XS0NBQV1dXUVFx9uzZc+fO2Wy2Cbx5RFE8fvx4Y2PjP/7jP957772RkZEEgOkoKVVz78PBuQvcJWcc1RdcoyPsFwDcimRZ7u7u3rdv31tvvXXixInP1m4n6Ze2tbX9+te//vjjj++888777rsvJydnanqNP3smzc3N8+fPv9ZXbE1NzZ49ez744IOKiorr1C+7u7sXLFgwgSfW1dVltVo/NwB4vd7Ozs6PP/74o48+Onbs2ODg4LWqpL6ZoJ8NAG63++233/7Zz35mtVqnw004PDz87rvvHj58eNmyZffdd9+OHTtCQ0MD71kzGAx+zIzv6+s7cuTI22+/ffDgwc/GvEnlcrmKi4vLy8uXLFlyzz333HbbbbNmzZrALrsxFcLw8HBCQsK13mC+x+H48eO9vb3XehxGRkYsFktcXNyEnJJvbGRycvJnz6e3t/fChQsVFRXFxcWlpaXd3d2TN+Tabre/8sorXq/36aefvlZDhtfrbW5uLisrKykpKS8vr6ysHNOIxLG+UVtbW//t3/5tdHT0b/7mb6KioggA0/NlpMxfok+ZpalZ4Dp9zFFb4/ZIjAgCbiGiKJaWlj7//PNHjhzp6uqa4o0DfS1Yzz77bHFx8be//e077rhj6ueG+gLA5/57e3v77t27P/jgg7Nnz35hO1lXV9fEnpgvAHx2DR+73b5379533nnn9OnTXV1d169YDA4O2u32kJCQT/27Uqk0GAzTpPb/1/Wzffv2VVVVlZeXf+tb35ozZ06APW5Go3FMAcDXQ/LKK68cOHCgvb19PCOXxkOSpLNnz165cuXw4cMPP/zw1q1bzWbzTQkAn/13t9u9f//+119//cyZMx0dHdd/HHzr2EzUKQ0NDZWXl/91APB6vY2NjQcOHDh58mRlZWVTU5PD4Zia1/gf//jH6Ojo73//+5+6NC6Xq6am5sCBA6dOnaqsrGxvb5+al3xXV9evf/3r0NDQhx56aPLGAhEAxkWpVERGqZatNsyZqy0+5Tj4oc0ySlcAcEuQJGnfvn1PPfVUdXX1dYawTzabzXbs2LGurq6hoaGHHnpoihchkWW5qanpU/9otVrffffd11577eLFiwMDAzfylelr5JvAANPZ2fmp1CHL8sWLF5955pljx451dHTcyIgdXwD4nC9OtXrWrFnT87Zsa2t7+eWXW1tbv//97xcWFgbSekFjCgAul+v999//yU9+UllZOTX9ctd/TAYHB33xrKam5jvf+c5nU+UUBwBZli9duuSbk93U1HQj6Wh0dHQCu1BEUTx27Nhdd93l+5+XL19+/fXXfSdzgy+NCWS321999dW0tLTHHnvM98i43e4TJ0688847JSUlvlUBpnjhl46Ojl/+8peZmZmrV6+epF4jAsBEFKJaiEtQb9tpzlukO7Lffr7MabN4PUwMAAKX3W7/r//6r5/97Gc9PT03fUUwWZZra2v/+Z//ua2t7YknnpjK9TS9Xu8nC5L4ZvoWFxf/6Ec/Kisrs1gsN/4t3t7ePrEn1t7e/kllxeVy1dfXv/jii3v27Ono6Ljxke6+FSE/++8qlSo5OdlsNk+3ToBPbs6PPvqoo6PjySef3Lp167TaYGE8TCbTDQYAi8Xy85///Nlnnx0eHp7iquR1eDye5uZmXyb56U9/mpKSMmXxrLe3t7+/35exRVFsamp69dVX33rrrfb29hufsDQ0NDQyMjKBDSinTp1qbW1taWn5wx/+cOjQoa6urqlp8v/cV2hnZ+err76anZ2dmZlZWlr63HPPnT592mKx3KzGHVmW6+rqfvnLX2ZkZHzu2C0CwDSi0wlps7UPP64pXGE4esBWW+MeHfGyVCgQeAYGBp5//vmf/vSnkzeb0L8vsGeeeUYUxb/7u7+b7Nljf/17m5ubfYsn1tfXv/nmm88//3x/f/9YP6ejo2NiT6yrq8u3dmFHR8eHH3743HPPVVdXjzWqDQwMXGvwUlBQUEpKSnV19fS8RUVRLC8vf/LJJ9Vq9caNGwMjA5hMphtZTqenp+dnP/vZr371q5tVm7w+m822Z8+e0dHRn/70p1M2dcftdnd2djocjtHR0f379//nf/5nRUXFWB+H4eFh32JHE/XqqK+vv/feey9fvmyxWG56M4rX6y0pKXnqqadkWT59+vTndv1N/Sl98MEHO3fufPDBByeja5cAMME0WsG3Y0DZGWfxSXt9nchSoUAgGRoaevnll5999tnpU/v/1LlFR0c/+uijUzbOeHR09MKFC1VVVb/97W9LSkr8azCb8DkALperqanp0KFDv//97/fs2ePfYh2+DZs/9/8yGo3JycnTNgD4XLp06Uc/+pFvm6oAGAt0I0OAurq6fvnLX7744ovTs/bvI0nS8ePHf/CDHzz99NN5eXlTMy24qanp2LFjH3744WuvveZfz5XNZhsZGfHtWjghp2SxWEpKSqbPdXG73R9//PG0ulW8Xu+rr756xx13TNRSbwSASRcUrFy72Tg7U3PmhKOi1NnVIdEVAAQAp9P50UcfvfDCCz09PdPzDLu6un71q1/NnTt33bp1U9O4ODQ09OSTT168eLG7u9vvD+nr6/vcBTfH449//OPg4GBNTY3fjYsjIyNWq/VzJyf4AsD0v2PPnDnz4osv/vu///sELkV/s3zhKkAjIyOvv/76q6++OnmLtExgXfPw4cMhISFPPfXU1EzXPnbsmG8ust/r1Xo8nqGhIZfL5cdaTPBbRUVFRUXFunXrJvyTlRTuJBEERXKaZsfd5i//TcjqjcagYIoamNm8Xu+FCxeeffbZxsbG6XyedXV1v/jFL/wYh+Mfq9V64MCB8dT+FQqFb+/kiT2xkydP+jHs51O1tMHBwc+dHzlTAoDX633zzTdPnz49058+lUplMpmuM5bJ7XYfPHjwhRdeGOetOJWtCR9++OHvfve7gYGBKfh1V69eraqqGuduFb6FcfkumEoOh+ODDz6YjE+mVjq5jCZlbp7u7i8Hf+VvQzKytCq1QJkAM9Tg4OBvfvOb8+fPy9O+R+/o0aN/+tOfZlDZSpI0Pettvb29nzuoyWAwJCUlTfGaS/7p7+9/6aWXbuJCVRNCq9WazebrDGS6evXqL3/5y4aGhhn0R42Ojr700kvHjh2bsl3kxmlgYIAAMMVEUTxz5swETr8mAEwdpVIREqpcVGj4u/8V/uXHguMS1FotMQCYYTwez6FDh95+++0Z8VXtdDqfe+65tra2GRQAJnwe8ITo6ur63KqzUqmMjIyMjo6eEWV75syZffv2zegHUK/XX2day+jo6IsvvlhcXDx91vy58YT5v//3/54pj2pfX990mB17S5Fluaen5/z58wSAmUqlUgSHKDdsM33vn8M33GaKiVPTGwD456ZMZ+zv7/8//+f/zKDWr6amppdeeskzQxYkliSps7NzGp5Yd3f3tdrOw8PD4+PjZ0Tx9vT07NmzZ0a33er1+qCgoGv9v6WlpS+++OJMaUf/lPPnz7/00kszIrr09/cTAKbeyMgIASAAKi6K2Hj1XfcH3XanOSSMwgf8cVNG4Ozdu7eurm4GlZLD4Th48GBLS8uMOFuPxzM951X39vZea9+AsLCw2NjYGVG8oihWV1dfvnx55j71Op3uWj0Aoii+/PLLM7pi+s4778yIR5U5ADeF3W6/evXqhEdEVgG6KS8yIS6Rkgf8DtJT3QMwNDT09ttvT9R+ooIgmEymxMTEmJiYsLAwg8EgCIIsy06nc2hoqLOzs7W1dfy/y7dH79GjR9PT06f/NZ3OcwCuFQBCQ0PHEwD0er1ardbpdEqlUpZlt9stiqLb7Z6kTpvm5uby8vKFCxfO3ABgMpk+9/86f/78iRMnJu9Xq1QqjUbj2+xikn5FR0fHm2+++f3vf3+ar9bKHICbwreNg9VqDQ4OJgAAIANMneLi4suXL4//618QhPz8/G3bts2fPz8mJiYkJMRsNms0Gl8AEEXRZrMNDQ21tbWdPHny4MGDzc3N4+nu6O/vP3369K5du0JDQ6f5BfV4PBO+FcBEBYBrDQEKDQ2Ni4vzXbvP/r9KpTIsLCwuLi46OjosLCwsLCw8PDwsLMx30bVarVqt9tUsfZ/g8XgkSRJF0WKxdHZ2dnZ2tre3X7p0aaJGhw8MDFy5csXhcHzuGo5KpTItLW39+vVf+DldXV11dXX+DbYRBGHXrl2ZmZl+HBsdHf25B8qy/Oabb07gQjoGgyEjIyMnJ2fWrFlRUVFBQUEmk0mlUkmSZLfbLRbL4OBga2vrlStXqqurR0dHJ6RD0uFw7N+//+GHH56kPV8nisVi8W3aFQDbSswso6OjfX19BAAAmDper/fw4cN9fX3j+RCVSjV79uyvf/3rW7ZsSUhIMJvN19lMx+PxbN68+bHHHnvttdfeeuutgYEB/yoZkiRdvny5rq5uyZIl0zzO6XS6oKCgaVWxEARBpVIFBwdf60pptdrY2NjQ0FCbzaZUKoOCgubMmZORkZGampqcnJyamhoeHq7X63U6nUaj0Wq1n/xXpVJd5+pLkuR0Op1Op29p1PPnz7/11lunTp2y2WzjqWt6PJ6GhobOzs5Zs2Z97t+yffv2lStXfuHn7N69+6mnnvJ7R9idO3du377djwOVSuXnRpempqbi4uLxr3GkUqkiIyPvu+++rVu3pqWlBQcHm0ymT3LaJ2XoC2l2u91qtfb09Bw7duwPf/jD1atXr9VNdINkWW5sbDxx4sT9998/bR9StVodHx+v0+mmWwAQBMGXouXA3XHJarX29/d/7sNLAACASdHQ0HD+/PnxdHwbjcbbb7/9H/7hH3Jzc3U63Y3URaKioiIjI3NzcxcuXPjDH/6wpaXFv++2hoaGqqqqgoKC6dlip1arQ0JCcnJyHnvssZ07d06Tk/TV5tPS0m6//fb7778/LS3tWj+5cOHCv/u7v4uKipo/f/6cOXN8o3pUKpVKpVKr1f79OWq12mw2+8a7JyUlZWVlbd++/eOPP37mmWcqKirGU9Fsampqa2v73DqEIAihoaE30lMUGRk5no1gjUbjxLZiHjt2zO+n46//9ttuu+1//s//mZGRodfrr/UH+q6sbzZCdHR0WlrawoULv/zlL7/yyiuvvvpqW1vbeDoJfXFi586d022bLUEQgoKC0tPTd+7cee+9986aNWtqti6+/htSr9cbDAbff8PCwiIiIkRR7O3tHRwcvCnjlJRK5SenpNVqff/1xfjR0VGLxTLODmS73T7h29sRAADgei5dutTc3Oz34QaD4e67737qqaeuU4+81veuyWR67LHHnE7nD37wA//Wge7v7798+bLVar3OCio3q+qfmJi4cOFCX5Pw9BmkFBYWtmDBgh07dtx1110pKSnX/+GlS5cuXbp0Us9Ho9FERETcf//96enpf//3f3/mzBm/axLd3d29vb2B9Gw6nc7i4uLx/FGCIKSkpHznO9955JFHxnoT+nqukpOT/+mf/qmwsPCHP/xheXm53wlNFMWampra2tq8vLzpU8IhISHZ2dk7d+687777bvrOd0FBQbGxsTExMYmJiZmZmZmZmRkZGWlpaeHh4Z/cD5WVla+99tq77747BcsK+1oKoqOjIyMj4+PjMzIysrKyZs2alZCQEBMTo9frRVGsra09duzY7t27S0tLrVar37/L5XKN53ACwEyi0So0GsbYYepotUqtlpWpPs3r9dbV1fldw1AqlXl5ed/97nfHWvv/aw888MCRI0f+/Oc/+3GsLMvNzc39/f3TKgBERkauX79+165da9eujYyMnCZnZTQac3Nz77zzzrvvvnv27NnT7VYsLCz83ve+d/nyZb/3eB4eHu7v7/d4PJ+MaZnp2trampubx9O2Ghsb++1vf/vRRx8dT7+ERqPZtGmTIAg/+MEPLl686PdqLe3t7fX19dMkAJhMpvnz52/dunXXrl1z5869Wa3+vv6H2bNnZ2RkZGdn5+fn5+bmJiQkfO6e0Hq9vqCgICsrKzk5+Sc/+cnkxd2QkJA5c+ZkZWXl5ubm5OTMnTs3KSlJq9V+9sbw/cDatWt/+MMfvv/++353Tbjd7gnv1iAATFPJKZq1m42njjraW8SZtrEJZhilUkhJMW/alDRrVjCl8dk6U0NDg81m87tO+eCDDy5YsGA85xAUFPTII4/s3bvXv6WBWlpa+vv7x5NAJraSXVhYeN99923evPkL29enrsFFo5k7d+7OnTu3bt26cOHCGxmmdVNs2bJlyZIlH330kX+Hi6LY09PjdDqvtZzOjFNfX9/e3u734QaDYfv27Q8++OD4RyWpVKp169Z97Wtf+5d/+Re/E1pPT099fb0kSTd3h2m1Wp2Tk3PnnXdu3bp1/vz5er3+Zp3J7NmzV65cWVBQkJubm5GRERUVdSM5xGw233fffZcuXXrttdcm9ny0Wu3s2bOXLl26ePHi+fPnz507NyIi4kYyTE5Ozre+9a1Lly75vRSvx+MZ5zwTAsCMER6pWrvZlJGlO3vCfvyQ3emQKRNMBoNBtXZtwtatSenpwUYjL4RP6+3tHc8GVcnJyXffffc4h7arVKrs7Ox58+aVlZX5cXhbW9sErpEynkr2vHnzHnroofXr18+dO/dzG/BuitjY2Iceemjnzp05OTkhISHT+W7U6XQ7duzwOwAo/rKOe8AEgLa2tvGsHhsfH/+1r30tKipqomqH99577549ew4ePOhfJ4DD4WhtbR0dHf1kTMvUi4qKeuSRR3bt2pWdnT2xszXG+q7Yvn37mjVrMjIyYmJixtpnFRcXt3Llyg8++GCixs2r1eply5bdddddS5YsSU1NjYqKGmtIW7x48aJFi+rr6/2rx3u93gnf547v++lLrxdmZWhi4oJyF+gO7bNfqXa5XQE8xx1TShAUWq0qOzvszjvT5s0LCwnRzaxV3absSejr6xtPDWPjxo030kT0hSIiItasWeNfAOjv7x8aGrqJC3doNJqUlJS//du/3b59e0JCgtFonA63kG/87h133PHNb34zIyMjJCRk+q9sKAjCkiVLrrXw6I0YGRlxuVyB8RITRbGrq8u/uTG+Kt26desmdrxNRETEAw884Fuyyb9P6OjoGBgYmPoA4HscNm/e/M1vfnP+/Pk3ZU6O7xwWLVr0yCOPLFu2LDY21mQy+fdUqlSq1NTU+Pj4cQYAlUplNpuXLl362GOPFRYWRkdH+z1FW6fTLVy48L333vM7ALAR2C3HHKScv0g/K0NbUe48ccje2iw6HcQAjKvqbzCoU1ODtmxJWr48NjRUq1TOsNkmU/kA9Pf3jycALF++fELGzprNZt8wXD++AyRJ6urqcrlcU9+Vr1aro6KifOurzJo1a5q0+iuVypCQkIKCgm984xtr1qwJDg6eQYuaR0dHx8XF+d0rNTIyMlH72d10w8PDHR0dfteK9Hr9XXfdNeGDbbZs2RIdHd3U1DSeADBnzpypTJWhoaGLFy/++te/vn79+uusezupj2RYWFh+fv4TTzyxdu1ao9E4/usSHBw8nh4MlUoVExNTVFT01a9+tbCwMDg4ePwzZxISEqbV9BsCwAygVCqCQpSr1htzF+hOHbOXnnK2MTEAft5LQkqKefXq+A0bEhISZuowAN+qz1Pzu0ZHR4eGhvw7VqfTZWdnT8ipqtXqmJiY4OBg/xq0uru7nU7nVAYApVIZFRVVVFT0yCOPbNmy5SYOI/4Uo9FYUFCwa9eue+65Zzz7+N4sWq02JSXF7wBgs9kmfCTxzeLbGsnvw8PCwhYtWjThZxUcHFxQUOB3AOjv7/e7T8O/2yk/P//++++/7777YmJibtaljI2N/c53vvO1r31tAnsefNtu+P0Vk5mZ+fTTT2/ZsmUCx8uZTKabvoIqAWCmCo9Ubd8VNCdTd+qovfqSa6DPQ5ngxkVG6hcujNywIWHRoqgZ1+r/KVPTCeDxeCwWi99DJiIjIydwTLnJZAoLC/MvAAwPD09ltU+r1S5evPj+++/fuXNnQkLC9Glfj4+P/9KXvvToo4/m5ubO0K1MlUqlb4sA/0iS5A2U1iO73e73fmQKhSIjI2MyRqOpVKrc3Ny3337b71Rjt9unpgATEhJuu+22xx57zDeu7CZeyrS0tC1btkzsuKNx/kXLli3btWvXxP6Z0+2dQwCYYQRBMTdXm5CsrrrgKj7puFzlYn4wvpBer5o/P2Lt2vglS6LDwnRs4n6DXC7X8PCw32FjYjvTNRqN3+3oo6OjEz6B7FpCQ0MfeOCBhx56KD8/f/osp6PT6VasWPHQQw/t2LEjLCxsJn8FCOOpthIAPpGYmDgZzbFKpTIpKcnvw61Wq2/L50mtLOp0uqVLlz788MO33357VFSUwFfCLYkAMCMzQHCIcsly/awMTfVF16GPbO2tErMCcK3qQlKSafv2lMLC6NhYo0ajDJi/awp+iyiK42mNM5vNE1jDUKvVftenrVbr1ASA3Nzc73znO9u2bYuLi5s+d0tCQsKjjz567733ZmZm+j0qYJpQKpXjiVWiKAZMAHC5XON5PENDQyfjNeIbUj/Od47X6528weLR0dGPPvro/fffn5mZOX3G5oEAgBuvDQgxcerwSFX2fN3xg/YTR+w2i9fDmCD8hUolmM2a9esT7rgjNSbGoNOpAuZPk2V5aoYAeb1et9vt9+E6nW4CaxhKpdLvOoHT6fRM8ttBr9c//PDDTzzxREZGxvRp+FcqlUuWLPnxj3+cn59vNpsDo6VzPKnS6/UGzCIS41wZfZLWfRIEYZwD/1wu1+Rt1pacnPy73/1u0aJFQUFBNPwTADCDaTRCbLz6rgeC8gv1hz6yXal0j4x4vMSAW77qHxKizckJv/PO1OzssECq+k99DWM8AWD6EEVxsqt9wcHBy5cvn25j630DsleuXBlIdR3qbRMSACYvEI5nkoZCoXC73ZPXSxMZGbl69eppNRUVBACMKwZkzNUmJWsunneePe6orXHbrCwSdIsymTS5uWEbNiQsXRpjNmsC8m+cslWAZFn2BES32tQM/FAqldOtbioIwjQ8q5srYHoAvF7veB7PSborBEEYZ+O9JEmTeo2o/YMAEGgMRmHpCsOsOZqys87S086mejdLhd5SBEGYPTt4zZr4lStjExPN1HkmpKo0nm/ikZGRM2fOTNSU0ytXrlgsFr+rSlxNkGT40wACwHQ3POTxehSh4aqxZvWoGPWm202zM7XFJx3lxc6hAcYD3RLCw3UrVsSuXRufkxMeMDN9Z/oXZGNj47/8y79M1E5Ddru9vb2dWx3ULAEQAAJWa7N04pB9TqZ21XqDwTS2+pxaLcyZq42NV+fm6Y4fslddcLldvPQDlk6nysuLuO225Nzc8NBQ7a0w2mGmVGJsNltVVRW3KACAAIAb4nLKjVfdl845K8qct91lnj1Xq9cJwg0HAd9SoXmL9HPmamurXXt329paRJeTGBBoVf/UVPOdd6YtWRIdHKxVqRj0AwAACAAzmSwrHA65ptLV1CAuKtSvWm9MTlMbjMobb+FVqhRBwcpFSw2ZObpjB+2njzr6eiS3mxgw42m1qpgYw6pVcbt2pYWG3nIbe03ZJGBgnLxer2+5epfL5Xa7fQu8yLLs93KcFovFv92g//K1wvsfAAFghsQAu8176qi97rK7aKUhr0CXmq5VjeW6CYIiKFi5bac5e57u9FF75QVXX4/EjgEzlFIpREUZCgqitmxJzMwMVatZzwGYdkZHR9vb2zs6Onp6erq6ujo6OgYGBgYHB0dGRkRR9C0v69/MbI/H09XVRQkDIADcKjGgp0v68F1r9SXXirXGRUv1IaFjq/mpVIpZGZq4hKCcPF3ZGUdFmdNuoylohjEa1QUF0atWxS1cGBkaqqVAgGnF7XY3NDScO3euoqKiurq6rq6us7PT5XJNs28T3vwACAAziiTJV6+4e7ul2suuohWG7Pk6rW5sAyGMJuXCJfqUdE1mtvbEYUdDnZvvgpkiPT349tuTCwuj4+JMjH8BphWPx1NbW/unP/3pxIkTly9f7unpmZ47SFD7B0AAmKlGhr0lJ50NteL8hbp1W0zxieoxLRUqCIrIKNWKdca0OdriE47Tx+zDQ6wRPq2FhenWr49fvz4xLS2IbX2B6UYUxddff/1Xv/pVfX396OgolWwABABMCo9H7umSjn3suXjOtXyNYfUGY2i4ckyLwGg0QkqaJi5evWS54ch+26XzrpFhD5sFTStKpRASos3Pj9yxIyUjI0SvV9PwD0wrXq+3vb39xz/+8VtvvTU4OEjVHwABAJNOFOXebum9tywXypxb7jBn5mjDxrJxmCAodHohfY4mJT30SpVr//u2+lq31UIImBbMZs3cuaE7dqQWFUUz0xeYhjweT3V19ZNPPrlv3z5RFGfEORNRABAAAoQsK5oaxFefH1mwSFe4wpCZrTUHjXl+cM4CXWKK+tRRx7liZ2szOwbcTDqdKj09qKgoZuvW5MhIPQUCTM+adGNj449//OMDBw7MlNo/ABAAAo3d5i0+5Wi8KuYt0i1Zbpg9V6scY6txSKhq83ZT1jxd+VlH2Rlnb7fEiKApplQKMTGGlStjV6+OnzMnRKOh4R+YpoaHh3/3u9/t2bNnui3ycyPRhcsHgAAQOGSvoqdLOnLAU3fFvWy1cfkaQ1Dw2GqQarWQPlsTE6vKnqcrOeU4e9JBV8CU0etVK1fGrV+fMHduaEgIS3wC05fH4yktLf3d735ns9mo/QMgAODmE0W5qV7s67FUVjjXbDLOz9drdWPbNdVkVuYs0CWlarLm6Q58YGtudHvZNWwyqVRCcnLQl740a/HiyLAwnVLJVF9gWrNarS+++GJnZydFAYAAgOn0/WTxVl1wNdWL2fOd67caU9M1BuMYegMEQRESqixcYcjI0hafdJw+bu/t9rhdNB1NMK1WFRdnWL8+YcOGxKgoPZN9gRmhtLR03759M/HM6QEAQAAIcF6vwjLqLTnlqL7oWr3RWLTSEJ+o1mjH0LqsUikio1W33WVeWKg/fsh+oczZ3cnEgImhVArx8cbCwuitW5PT04MEFvgM1DesWj0dLq5azat+Al+t3jfeeMPpdFIUAAgAmL6sFu++96xXqtwr1xly83VR0WPeOCw+UX33l4Oy52lPHXVUX3JZRggB4xIcrM3Pj9y4MaGgIEqrZWOvgKVSqR599NHg4OCbfibJycmhoaFckQnR19d35swZL20hAAgAmOa8XkVDnbunU6q+6FpcZJi/UDfWpUI1GmHBQn1yquZcibP0tKO+ThTddCWPmUajzMgIXbs2fuXK2OhoAwUS8AHgBz/4QWpqKkURSMrLywcHBykHAAQAzAxWq/dcibOpXqy+pNuwzZSarhnb2ARBERahWr3RmJGlvVDuPHnE0dMlMaD0RgtPUMTEGDdvTly2LDYlxazT0fAPzEilpaV2u32cHxIUFJSZmZmenh4REaHT6ZQ33C0rimJJSUlpaal/v1eWZaYBACAA3HK8XkV/n+fMccfVK+5lqwxrNhqDQ1TKsdRFNRohOU0THauet1B37GP72RMOp4MvlOtX/QWjUbViRdwdd6QkJweZTDx0M+zyUQj4q1eot6amxuFw+H07RUdH33vvvXfffXdCQoLJZNJoNEql8sZvM7vd/vOf/9zvABBIlEqlSqUaz6WcjLOSZXmcnzym+wEgAGAMJFHuapc++JO1osy5botpXr4uJHRsL1K9QUhN197/qGZhgWH/B9bmetFm8xIDPvtlbzKpZ88OueeetPz8SL1ezVv9lqph0NoaeHp7e3t7e/2r4QmCkJKS8uSTT37pS18yGAxKpT+rfmm1WoOB0YMKhUKhUqnGM7vdZrNN0uNptVrHc7hOpxvPawcgAOALuN1y41WxvWUke75u5XpjVq52TBuHCYJCrxcWLNbNytCUnnGcPelobhCdDqo7/5fBoJ41K3jNmvh16+LDwnQUyAwNABqNxv+kLUmSJFGMgaSzs3N0dNTvit327du//OUv63S6cd6W4wmlgVN9UavH83iOjo5ORmnIsuz3HfLJfTKeSwwQAHCjMeBCubPpqnvpKsPSlYbUWRq1emzN1OZg5ZpNpowsXekZx7kSZ1uzeIs3egqCIjk5aOXK2FWr4mbNCmZjr5lLpVKNp4Yhy/L4B4tjWhkaGvJ7AdCQkJCtW7eOs/Y/zgAQSMbZGTIyMjJJAWBoaGg87xyDwUAPAAgAmCIjI95DH9karoqLlugXF+lj4sY2WEWpVCSmqKPjzBnZ2tNH7RVlLpv1Fl0jz2zWFBXFbNiQMH9+hF7PS3zGBwC9Xj+eT/ANM2BEbwC9KkdcLpd/x5pMpry8vHG3Lwjj7AEImE4Ag8EQFBTk9+FtbW2TMQ3A6/W2tbX5fbjJZDKZTLwxQADA1PF4FA217q526XKla9lqw8JCg8E4tneQVivkzNfFJ6hz89wnDtvratySdAv1BajVQlZW2LZtSQsXRkVFGXiBBwCdTjfOVfz7+/spxkBis9lEUfTv2KCgoKioqPGfAz0APkajMSQkxO/D6+rqHA6HyWSa6G9ST1VVld+HBwcHG41GLi4IAJhSsqywWb1VF11NDWJZsfP2O80p6Rq1ZgyNEYKgCI9UFa7QZ2RrL5Q5jxywd3dKkhjgMUCjUcbFGbdtS165MjYqyqDR8PUcMKFOHRISotFo/K7z1dfX0wMQSNxut8fj8eNAQRCCgoImZEtmAsAngSoyMtLvwwcHB8+fP79p06aJPSuLxTKeNZoiIiKmw9aBIADgVuT1Kiyj3opSZ/0V98p1xmVrDNGxap1uDDUYtVqIilat22LKL9Af+NBWfsYxNOTxBOJkSJVKiIjQr1wZd9ddadHRhrFOn8A056u0BQcHDwwM+PcJpaWlLAQUSCRJ8i8AKBSK8Y/+/+S29PvYQLobw8LC4uPjlUqlfyN5XC7Xu+++u27duglJZZ84cOBAb2+v34fHx8dHRETwoIEAgJsZA0aGvR+9Z7143rVynXHBQl1MvHpME5NUKkVktOq+R4LzFumOHbTXVruHhzwB8+0jCEJYmHbevPDNm5MKCqLUatrkAlNYWFhUVJTfAaC8vLy/vz8mJoaSDAzjqUD73Y/0qTcPPQCfBKq4uDiz2ezfqjuiKB45cqSysjI/P3+iTmlwcPD111/3e5q4QqFISEggAGBq8B7BF8SAtmbxz38cff2VkTPH7VbLmBtaVCpFzgLdg18N3vVA0IJFeoMhENrIDQb14sWRjzyS8cQTuUuXxlD7D2CRkZHjqb739va+//77FGPA8O3b5d+xdrt9QhrgCQCfSEpKGs/j2d7e/tJLL/kd7z+bKN5+++3y8nK/+4i0Wm1SUtJ4JjYABABMJJdTvnTe9ac/WN7+veVKtduPl1tIqGrlOuP9jwbfeV9QQtLM7ndKSjI/9NCcv/3bnNtuS4mM1DO6mwBwHTab7c0332xsbKQkA4NWq/VviUZZli0Wy8jIyM0NAAG2OV16enpiYqLfhzscjj179rzxxhvj3LpLoVB4PJ7Dhw+/8MILg4ODfn9IVFTUrFmztFotDxoIAJhGBgc8J4/YX3txZM/blr6eMYcApUoRn6het9X02DdD12wyjnWJoenAYFBv3Jj4//1/C3buTE1LC1KpqPsHvqioqKSkJL+X5fZ6vWVlZc8999xEtTLeCLvdfu7cufFURHAtZrPZ7/qZzWZraGgY5wlIkjSeIeYBJjU1NSkpaTyJqLOz8+c///nvfve78WQzt9t94MCBp59+uqqqajxLiyYkJMyePZvLiqnBHACM6btHbmsWe7qkC2XONZuMiwoNQSFje/fqdMKcudr4RPXipfrD++y1NW6H3TvNG6QEQTAa1bm5YXfckZqdHRYcrKXV/9ah1+uzs7OjoqK6u7v9+wSLxfLyyy+7XK4nnngiLS1tPDuLfZYsy5IkiaLocrl6enpKSkpOnz597ty5vr6+n/3sZ/fccw9XcGKFhYX5vfnUyMjI/v378/Ly/MiToijabLaSkpL/+q//OnHiBBfCx2QyFRQU7Nu3r6+vz+8nqLm5+cknnywuLv7e976XkZFx4/twybLsdDq7u7tfeeWVV199tbOz0+/BPwqFQqlUzpkzZ+7cuVxWEAAwHcmywuWUmxvF378wUnLaue0OU3qG1hykHNNSoeYg5fyF+jlztRVlzmMf21uaRId9moYAo1E9e3bw1q3Jy5fHms0aqv63oPnz5yclJfkdABQKxdDQ0HPPPVdcXPz444+vXLkyNjY2KCjIv2ZLWZZFUbRarRaLxWKxDAwMNDQ01NTUlJSUXLhwweVyeTwe38KjpaWlBIAJFx0d7fcy7Vardffu3WvWrCksLLzBlWc8Hs/Q0FBPT8/58+ffeOONU6dO2Wy28bQxB96aVGvXrv3tb3/rdwDwlcnw8PAbb7xx4MCBe+65Z9u2benp6cHBwSaTSa/Xq9VqlUqlVCplWfZ4PJIkud1uu90+Ojra3d199OjR119/vbGxcTxVf5+oqKhVq1YxAQAEAEz3GODxKGouuVqbxWWrDAXLDClpaoNxDBUaQVAYTcrla4xzc3XHPraXn3V0dUrTaqlQtVqZkGBauTL29ttTYmIMXPRbVkZGRkZGRkVFhST5f4NKklRWVnb+/PmCgoJ169ZlZ2dHRkaGhYWFhobq9XqdTqdSqXQ6ndFo9NUz3G63JEmSJLlcLpvN5qvu22y20dHRgYGBxsbG2traq1evtre3X2vJkYsXL7IFwYSLj4/3u4omy3JlZeXTTz/9xBNPLFmyJCoq6nNDoNfrtdlsfX19PT09jY2NZ8+ePX78eG1t7YQsIhR4MjMz8/PzKysrx1k+Xq+3v7//ueee++1vf5uenp6dnZ2amhoVFRUUFGQymbRarcfjsdvtFotlcHCwtbW1trb2ypUr/i1A9HlfiEJSUtLq1au5oCAAYGawjnoP77NdrnQXLNMXLDPEJ6rH2qwZEanacY85I0tbdtZx6bxrsP/mLxUqCIqICP2SJdGrV8fl5UVqtUyVuaUFBwevWrXq448/Hk8ro4/H4ykuLi4uLtbpdNHR0bGxsTExMUFBQQaDQaPR+HY2lWXZ7XY7nU7fwB673T48PNzf3z84ODg8PDw8PHwjFR1ZlpuamkZGRkJDQ7mCEygkJCQuLk6tVvuXBt1u96FDh5qbm1euXDlv3ryEhISgoCDf/gBut9tms/mudVdXV2tra0NDw9WrV202G8V+3ZYa9T333LNnz56J2nXb6XTW1NTU1NT8de1cpVJ5vd7x9L1cn06nW7Vq1axZs7igIABgxvB4FG0tYn+f50qVu3CFvmjVmCf4ajRCbp4uOU2TPd9VfNJRWeFyu25aCNDpVIsWRa5bl5CXFxEeziI/UCgUig0bNvz6178efwD4hMvlamtra2trm8RwbrXW1tYWFhZy+Sa0dUCYN2/enj17LBaLf5/g9Xrr6urq6urMZnNERISvdVmhUIii6HA4LBbL6Oioy+WapPMPsFWAfFauXLl48eL9+/dPXqGNp/fvRoSHhz/44IMTuyUZQADAVHDYvTWVrs52sbbGvX6LafZc7Zi6AgRBERKqLFiqnzVHe/Gcc//7tp6umzAeKC7OePfd6UVFMVFRelb3xydSUlI2bdpUW1s7eTWzCed0OqurqwkAE27hwoVGo9HvAPDXCW38q09CoVAYjcbHHnvs0KFDk11NnzwbN27Mzc3lUmIqUcXBRBoe8paccj7386HXXx5pbRLd7rE1NanUQlSMavVG4/f+OXzrHebwSJVaPRUt8Gq1MjJSf9ddaf/xH4W3354SF2ek9o//dmeqVF//+tfj4+NnUiZ3OCoqKrh2E27p0qVxcXGUw7Sybt26e++9d4ZukZaYmPid73xnYtcHAwgAmGoej9zf5/n4Q9sv/vfgvvdsne3SWIdNajRCfKL6S48EfesfwopW6SOiVJP3Vlcqhehow9q18f/6r4v+9m+zk5PNjPjH50pNTf36178+g/bocbvdV65cYQT5hDObzZs2bfJ7awhMhvDw8O9+97vZ2dkz8Xb6x3/8R1b/BAEAgaO/1/PnP46+9sJI6RnH0MCYl0hTqYTZmdqHHg+9/9HgBYv0esPEdwWYTOolS6K+/vWsb387Nzc3nFZ/XIdarb7//vtXrVo1U9bVkWV5YGCgqamJazfhtm/fHhQUNBPPPPAmAPgIgpCVlfXEE0/MrG46nU63c+fOHTt26PV6HisQABA4ZFlRfcn1hxdH3n3DUnXB5XSO+bvHYBAKlxu+/DfB2+8OSpulUU5Qo5tSKaSnB99//+xvfCNn3boEs5m+V3yxuLi4b33rW+np6TPlhIeHh+vr67lwE27evHkrVqygHKYVk8m0c+fOBx98cKasfKVUKouKip544onExEQuHwgACMAMMDLsPXXM8foro+++YWlvleSxL6QWE6fessP05a+GbNlujogabwiIiNDv3Jn6xBM5u3alJyWZuUa4QRqNZvXq1f/jf/yPmJgYAsAtXtd8+OGHg4ODZ+ALWQ7UTgCFQhETE/P444/fcccdfm/WNmUEQcjNzf3e976Xn58/Q6cuYKZjFSBMBUmU21vEvh7p8iXXmk3GFeuMWu3YRlJotUJGljYhSZ2bpzu83+bfUqE6nWrhwsgdO1KzskKDgzXskYSxCgkJ+cpXvtLf3//8888PDw9P87MdHR1taGgQRZH5hRP8xalWL1++fMeOHa+//noA16dnovT09H/913+VJOlPf/rTtF2zSxCEzMzMf//3f1+/fv0MmlYEAgDgJ5dTbm4U3/q95Xypc+NtpjlztQbjGNo+BEFhDlLmLNDNytBUXnDtfdfa1S7dYB1er1clJZnvvjt92bIYo1GtVFL1h58iIyP//u//XqPRvPjii729vdO5/ufxeNrb2zs6OlJTU7lwEys2Nvbxxx+vra09d+7c5O0PdS1KpVKlUnk8nrH+6oCPK4IgpKam/uIXv9Dr9W+//fb4V2udjPSYk5Pz7LPPLlu2jIX/QQDALcRh914676q/4l5YqF+x1pg+RzumjcOUSoXRpCxcbpibrTt+yN7ZIWo01ztcq1WlpwevXBm3fXtKRAQbe2ECREREPPXUU3FxcT//+c8bGxunc6Wqo6OjpaWFADAZVfCioqLvfOc7Tz75ZFNT01TeA2azOT8/PzIy8uzZs93d3VyLz2aAqKioZ555Jisr64UXXmhsbJw++wOEhoauXbv23/7t37KysuiCBgEAtyK7XT511FFfKxatNCws1KekaYQxDoMMCVNu22kaHPAYjNc7MiHB9Nhjc6Oi9BoN4ywxYVQq1de+9rXw8PDnn3++tLTUbrdPz/McHBycwA2M8d++PtXqHTt29PX1/eQnP+ns7JyCDKBUKrOysnbs2HH//fdLkvTEE08QAK4Tk77xjW9kZGT89re/PXHixODg4M0N6hqNZs6cObt27frqV7+alJRE7R8EANzSujulD/5sra1xL1ttmL9IFxY+tgm+ao0QHfsF93BoqDY0lEGWmJRv9LvvvjszM/OPf/zje++919TU5PF4ps/pxcbGLlmyZOnSpTk5OVysyatlPvzww4Ig/Md//EdXV9fk/SJBEHzbUe/cuXPNmjUGg8FqtaamppaUlEyru25aMRgMt912W3Z29kcfffTWW2+VlJTclK4AQRAiIiJ27ty5a9euZcuWzcS54yAAABNPkuTLVa7OdqnqomvFWkNWrk6ro2kEM+QFqlbn5eUlJSVt3Ljxgw8+eOutt25uc7uvqpGfn19UVLRkyZKMjIzExESDwcCVmjxhYWGPPfaYyWT60Y9+1NDQMOGfr1Kp0tLSbrvtto0bNy5evDg6OtrXeGw2m+fNm7d3796RkZEb/7TAXgXos5RK5axZsx5//PFly5YdPHjwz3/+88WLF0VRnLITCA4O3rRp0z333LN8+fL4+Hga/kEAAP76O0kxPOQpP+u8esWdM1+39Q5TXIJapeZFiRlAEITIyMgNGzYsWrToS1/60u7duz/88MOWlhZJkrxe76RWtgRB8E0GVSqVycnJRUVFy5cvX7BgQUxMTHh4uNlsHmttQ6lU+j7Tv5rWpP6Zfp/VFFS5zGbzAw88kJGR8etf/3r//v0Wi2Wc04IFQVCpVBqNJj8//9577127dm1iYmJISMinth8uLCyMioqyWq1TWSBKpVKr1fq3do3fd9c46XS6RYsWzZ07d+fOnWVlZXv27Dl9+vTQ0JAkSRPef+K7dmq1Oi4ubsuWLTt37szJyYmJiZnA+b6+p97vPDmpb6TpFv8+db9d64U8NalY+ItpUrYEAEwXkiQP9HlOH7fXVLrWbjItX2MICVOqiQH4DIPBMGfOnMjISL8/Qa/XT+z7VKlURkRELFu2bNGiRd/97ndLS0sPHTpUVlbW3d1ttVqdTqfL5Rr/d4xKpdJqtTqdTq/XG43GmJiYnJycBQsWFBQUzJo1y2AwaLVatVrt95+Wm5t7++23+1d5DQkJmaT9jOLj49evX9/f3+9fic2fP39q7snly5fPmzevpKTklVdeKS8v7+vrs9lsN16YgiDo9XqTyRQUFJScnLx69eotW7ZkZmaazeZr1bZ9mbOlpeXGzzM6OjoiImI8f2lhYeHPfvYzt9vt3+F5eXk3671hMpnmzp07e/bsnTt3Dg0NnT59et++fRUVFaOjo3a73eFwuFwu/8YIKZVKvV5vMBgMBkNERMTq1as3b96cl5cXGhqq1+snNvNERERs3LgxLS3Nv8MnaT0ApVKZmJi4ePFi/w6fO3fuhHdUhoWFrVu3Ljw83JfxZFl2uVy+zh9ZliVJcjqdvp/0er12u933fv6ki2wyNnsJDw9fsWLFmBL7X79gJ3yXa4E1jKensrPOP74y0t97iw7uVKkU6XO0azcZs+brwsNVShV3BGYel8t18eLFsrKyurq6lpaWgYEBi8Xiq2r4IoGvAdLr9fqqHb6GPUEQNBqN9i98dX2j0WgymSIiIpKTk1NSUmbPnp2dnZ2QkMAWQtOQ1+utqanZu3dvcXFxV1fX8PCwxWKx2WyiKEqSJMuySqXyNfAbDAbfxQ0ODo6MjJw9e/bixYsLCgpSUlJYIHJq2O32hoaGy5cv19TUNDY2+mKbw+FwOByiKHo8Hl9Xnt1ud7vdSqVSrVb7+kB0Op3v8pnN5oiIiIyMjKysrOzs7MzMTJPJRMHOUL6cIEmSRqPR6XSB/ccSAAgA05fJrJyXr1uy3JCzQGc00hWAmR0Genp6urq6BgYGBgcHh4eHR0dHXS6X2+32eDwOh0OhUKjVao1Go1QqfbUKk8lkNptDQkIi/yI4OJga/wzidDqbm5ubm5t7enp6e3ttNpvT6ZRl2Ve3MBqNYWFhkZGRERERCQkJ8fHx7Ak1HS7ZwMDAwMDA8PCwL7M5nU5RFAcHBy0Wi1qt1uv1Go3GaDQGBQVFRERERkZGRUWFh4cT2EAAAAFgQm9QQREVo164RF+0ypA2W8MEKgAAgHEis2Jak2VFb7d0eL+toc5dtNpQuNwQHEILKAAAAAEAAU10y/W17s526dxZ57otxpwFOqNJSW8AAAAAAQABS5YVNqu3ptLVWO/OWaDbssOcnKoxMDEAAACAAIDAjgEOu1x+1ll/RVyzybh4qT4uUa3VEgMAAABuFMOpMSMND3k+fNf6+xdGzh53WEa9FAgAAMANogcAM5UkynWX3V5ZkZSqCQomygIAANwQqk2Y2dwuWRRZyhYAAIAAAAAAAIAAAAAAABAAAAAAABAAAAAAABAAAAAAABAAAAAAABAAAAAAABAAAAAAABAAAAAAABAAAAAAABAAAAAAABAAAAAAABAAAAAAAAIARQAAAAAQAAAAAAAQAAAAAAAQAAAAAAAQAAAAAAAQAAAAAAAQAAAAAAAQAAAAAAAQAAAAAAAQAAAAAAAQAAAAAAAQAAAAAAACAAAAAAACAAAAAAACAAAAAAACAAAAAAACAAAAAAACAAAAAAACAAAAAAACAAAAAAACAAAAAAACAAAAAAACAAAAAEAAAAAAAEAAAAAAAEAAAAAAAEAAAAAAAEAAAAAAAEAAAAAAAEAAAAAAAEAAAAAAAEAAAAAAAEAAAAAAAEAAAAAAAAgAAAAAAAgAAAAAAAgAAAAAAAgAAAAAAAgAAAAAAAgAAAAAAAgAAAAAAAgAtxi1WqFWC5QDAAAACAC3hPhEdUGRPiZereQSAQAAYOKoKYLpKSZOfdtd5jlZ2uKTjnPFTpdLpkwAAABAAAhkJrMyv0CflKLJyNKeOGxvahBlL6UCAAAAAkBAi4xWrdpgnJurKz3tOHXUMdAneTyUCgAAAAgAgUujEeIT1dvvNi9eqj+831ZR5hoa8MiMCQIAAMDYMcN0ZhAEhVotJKVqHn485JHHQ+bn64NDuHYAAAAYM3oAZlpiUwr5S/SpszRlZxylZ5zNjaKb+cEAAAAgAAQwQVCER6rWbTFlZOsulDvPHHf0dEmMCAIAAAABIJBptELabE1svGpurvbYx/bSM05JJAQAAACAABDQDEbl3BxdQqImv0B/6CNbc4Podsv0BgAAAIAAELAEQREcqlyy3OBbKvT0cXt7i8TEAAAAABAAAplSqQgNU2663ZSzQHf8kO1iuaurg4kBAAAAIAAEuoQk9T1fDs7KdZ094bhc6RoeYvdgAAAAEAACmkYr5C3Wp6RpKi+4Th9z1Ne6RTd9AQAAACAABC7fUqHLVhvmzNVeOuc88KGtv8+jIAUAAAAQACiCAKbRCPGJ6qhoU06e7vBH9tIzDrvN6/FQMAAAAAQABHAM0ApJKZov/03w4iL9kf32ussuy6jXy9QAAAAAAgACOwbk5ulS0jXnS50lpxx1l90uJ0OCAAAACAAIaEHBylXrjXPmaktOOUrPODpaWSoUAACAAICAJgiK+ET1tjvNc+Zqz55wVJQ5LaOMBwIAACAAIKDpdEL2fF1isjpvse7wfntdjVsU6QsAAAAgACBwKZWK0HDVwkJDZrbuwjnn/j3W7i4POwYAAAAQABDIVCpFcKhy1XpjzgLdxx9aK0pd/b0eegMAAAAIAAhwEZGqux8Inr/Qfea4o+qCa2jAw/xgAAAAAgACmUYr5MzXJSZrcua7ys44LlW43C5CAAAAAAEAAS0kVLl0pSF9jmb2XOfxQ/audokyAQAAIAAgkCmVith49Yatpsxs7amj9rIzTsuolxFBAAAABAAEMp1emJWhTUzWFC43Ht5nu1zlIgYAAAAQABDIBEGhNwhZ87SzMjXnSpxHD9iaG0SHnRAAAABAAEBA02qFpSsMs+ZoTh5xVJQ5O1olSSIGAAAAEAAQuARBER2rvn2XOXuetrzEea7YOdjPUqEAAAAEAAQ0nU6Ym6tLSNbkzNedOGy/UOb0eCgVAAAAAgAClyAogkOUeYv1qemaeXm6g3tt3V0eDyOCAAAACAAIYEqlIjxStWajMTdPd/KIvfS0s7/XI4rEAAAAAAIAApdKLcTEqe+6P3jhEsOxg/aqC87+XiYGAAAAEAAQ0JRKRfocTXxS8MVy7ckj9roat8NBCAAAACAAIKDp9cKSZYakVM2FMmfJaUdLo8j8YAAAAAIAApmgVMQnqiOiTJk52vKzzlPHHMODhAAAAAACAAKaTiekz9HGJ6oXFur37bFVnne6XDITAwAAAKYDJUWAySAICoNROTtT+7Vvhz72zdCMbK3RpBQECgYAAOAmowcAkxwDDELRKkNGtvbMccf5Emdrs+h20RcAAABAAEBAi4hUbdtpypmvKznlKDvr6OthYgAAAAABAAFNpRLS52hi41Vz5mrPHLdXVricTroCAAAACAAIaEaTcmGhPjlNnZPnOn7Q3tIoer2UCgAAAAEAgUupVETHqletV+XO1xWfdpw8bB/o80oSvQEAAAAEAAQujUaIiVdv3xVUUGT46D3rpfOukSEPvQEAAACTjWVAcVPvP6UiPlH98OMhDzwWnFegDw5hqVAAAIDJRQ8Abj6tVihcbpidqT1f4iw/66yvc4tuRgQBAAAQABC4BEERGaVau9mYma0tL3aePGIf6GOpUAAAAAIAAppGI6Ska6JiVJnZ2iMH7BfKnXQFAAAAEAAQ4IwmZfZ8XUqapqZKf/gjW3Oj6HTIMkEAAACAAIBApVQqgkKUhcsNuQt0xaccJw/b25olN70BAAAABAAENpNZuX6LKWOu9uhBe2WFq7dLYqlQAAAAAgACXFKq5t6HgnPmu8rPOiorXCPDhAAAAAACAAKaXi/kF+jTZmmy57tOHnHUXXZ72DwYAACAAIAAplQqwiNVRSsNGVna8mLn/vetI0N0BQAAABAAENi3rEaIiVNvus2Uu0B3ZL+tv8+jZD9rAACAGyawvCJmLtEt9/Z4TGYhNExFaQAAABAAAAAAAPw3DJ4AAAAACAAAAAAACAAAAAAACAAAAAAACAAAAAAACAAAAAAACAAAAAAACAAAAAAACAAAAAAACAAAAAAACAAAAAAACAAAAAAAAQAAAAAAAQAAAAAAAQAAAAAAAQAAAAAAAQAAAAAAAQAAAAAAAQAAAAAAAQAAAAAAAQAAAAAAAQAAAAAAAQAAAAAgAAAAAAAgAAAAAAAgAAAAAAAgAAAAAAAgAAAAAAAgAAAAAAAgAAAAAAAgAAAAAAAgAAAAAAAgAAAAAAAgAAAAAAAEAAAAAAAEAAAAAAAEAAAAAAAEAAAAAAAEAAAAAAAEAAAAAAAEAAAAAAAEAAAAAAAEAAAAAAAEAAAAAAAEAAAAAIAAAAAAAIAAAAAAAIAAAAAAAIAAAAAAAIAAAAAAAIAAAAAAAIAAAAAAAIAAAAAAAIAAAAAAAIAAAAAAAIAAAAAAAIAAAAAAABAAAAAAABAAAAAAABAAAAAAABAAAAAAABAAAAAAABAAAAAAABAAAAAAABAAAAAAABAAAAAAABAAAAAAABAAAAAAAAIAAAAAAAIAAAAAAAIAAAAAAAIAAAAAAAIAAAAAgJvs/wcXfIRmWjuHtAAAAABJRU5ErkJggg==;" parent="1" vertex="1">
          <mxGeometry x="30" y="143.4" width="71.2" height="35.6" as="geometry" />
        </mxCell>
        <mxCell id="Wg8RFO9psuNznAwOXjFQ-70" value="3. Provision FL Training and Watch Tower Docker Instances to registered Data Providers" style="text;html=1;align=center;verticalAlign=middle;whiteSpace=wrap;rounded=0;" parent="1" vertex="1">
          <mxGeometry x="115" y="114" width="170" height="42.6" as="geometry" />
        </mxCell>
        <mxCell id="Wg8RFO9psuNznAwOXjFQ-80" value="5. Update Training Docker" style="text;html=1;align=center;verticalAlign=middle;whiteSpace=wrap;rounded=0;" parent="1" vertex="1">
          <mxGeometry x="335" y="128" width="90" height="30" as="geometry" />
        </mxCell>
        <mxCell id="Wg8RFO9psuNznAwOXjFQ-82" value="6. Watch Tower detects new FL training docker and updates Data Provider Instances" style="text;html=1;align=center;verticalAlign=middle;whiteSpace=wrap;rounded=0;" parent="1" vertex="1">
          <mxGeometry x="147" y="430" width="250" height="20" as="geometry" />
        </mxCell>
        <mxCell id="Wg8RFO9psuNznAwOXjFQ-84" style="edgeStyle=orthogonalEdgeStyle;rounded=0;orthogonalLoop=1;jettySize=auto;html=1;exitX=0.5;exitY=1;exitDx=0;exitDy=0;entryX=0.12;entryY=-0.006;entryDx=0;entryDy=0;entryPerimeter=0;" parent="1" source="Wg8RFO9psuNznAwOXjFQ-64" target="Wg8RFO9psuNznAwOXjFQ-83" edge="1">
          <mxGeometry relative="1" as="geometry" />
        </mxCell>
        <mxCell id="Wg8RFO9psuNznAwOXjFQ-85" value="Communication Server" style="text;html=1;align=center;verticalAlign=middle;whiteSpace=wrap;rounded=0;" parent="1" vertex="1">
          <mxGeometry x="221" y="174" width="60" height="30" as="geometry" />
        </mxCell>
        <mxCell id="Wg8RFO9psuNznAwOXjFQ-86" style="edgeStyle=orthogonalEdgeStyle;rounded=0;orthogonalLoop=1;jettySize=auto;html=1;entryX=0.944;entryY=-0.3;entryDx=0;entryDy=0;entryPerimeter=0;startArrow=classic;startFill=1;" parent="1" source="Wg8RFO9psuNznAwOXjFQ-31" target="Wg8RFO9psuNznAwOXjFQ-81" edge="1">
          <mxGeometry relative="1" as="geometry" />
        </mxCell>
        <mxCell id="Wg8RFO9psuNznAwOXjFQ-87" value="7. FL training starts" style="text;html=1;align=center;verticalAlign=middle;whiteSpace=wrap;rounded=0;" parent="1" vertex="1">
          <mxGeometry x="195.5" y="216" width="120" height="20" as="geometry" />
        </mxCell>
        <mxCell id="Wg8RFO9psuNznAwOXjFQ-88" value="" style="group" parent="1" vertex="1" connectable="0">
          <mxGeometry y="253" width="550" height="210" as="geometry" />
        </mxCell>
        <mxCell id="Wg8RFO9psuNznAwOXjFQ-37" value="Data Provider instance" style="points=[[0,0],[0.25,0],[0.5,0],[0.75,0],[1,0],[1,0.25],[1,0.5],[1,0.75],[1,1],[0.75,1],[0.5,1],[0.25,1],[0,1],[0,0.75],[0,0.5],[0,0.25]];outlineConnect=0;gradientColor=none;html=1;whiteSpace=wrap;fontSize=12;fontStyle=0;container=1;pointerEvents=0;collapsible=0;recursiveResize=0;shape=mxgraph.aws4.group;grIcon=mxgraph.aws4.group_ec2_instance_contents;strokeColor=#D86613;fillColor=none;verticalAlign=top;align=left;spacingLeft=30;fontColor=#D86613;dashed=0;" parent="Wg8RFO9psuNznAwOXjFQ-88" vertex="1">
          <mxGeometry x="7" y="31" width="117" height="129" as="geometry" />
        </mxCell>
        <mxCell id="Wg8RFO9psuNznAwOXjFQ-36" value="FL Training" style="image;sketch=0;aspect=fixed;html=1;points=[];align=center;fontSize=12;image=img/lib/mscae/Docker.svg;" parent="Wg8RFO9psuNznAwOXjFQ-37" vertex="1">
          <mxGeometry x="63" y="38" width="24.39" height="20" as="geometry" />
        </mxCell>
        <mxCell id="Wg8RFO9psuNznAwOXjFQ-34" value="Data" style="verticalLabelPosition=bottom;aspect=fixed;html=1;shape=mxgraph.salesforce.data;" parent="Wg8RFO9psuNznAwOXjFQ-37" vertex="1">
          <mxGeometry x="11" y="52.5" width="20.65" height="25.5" as="geometry" />
        </mxCell>
        <mxCell id="Wg8RFO9psuNznAwOXjFQ-38" value="Watch Tower" style="image;sketch=0;aspect=fixed;html=1;points=[];align=center;fontSize=12;image=img/lib/mscae/Docker.svg;" parent="Wg8RFO9psuNznAwOXjFQ-37" vertex="1">
          <mxGeometry x="62" y="84.5" width="26.22" height="21.5" as="geometry" />
        </mxCell>
        <mxCell id="Wg8RFO9psuNznAwOXjFQ-46" value="Data Provider instance" style="points=[[0,0],[0.25,0],[0.5,0],[0.75,0],[1,0],[1,0.25],[1,0.5],[1,0.75],[1,1],[0.75,1],[0.5,1],[0.25,1],[0,1],[0,0.75],[0,0.5],[0,0.25]];outlineConnect=0;gradientColor=none;html=1;whiteSpace=wrap;fontSize=12;fontStyle=0;container=1;pointerEvents=0;collapsible=0;recursiveResize=0;shape=mxgraph.aws4.group;grIcon=mxgraph.aws4.group_ec2_instance_contents;strokeColor=#D86613;fillColor=none;verticalAlign=top;align=left;spacingLeft=30;fontColor=#D86613;dashed=0;" parent="Wg8RFO9psuNznAwOXjFQ-88" vertex="1">
          <mxGeometry x="143" y="31" width="117" height="129" as="geometry" />
        </mxCell>
        <mxCell id="Wg8RFO9psuNznAwOXjFQ-47" value="FL Training" style="image;sketch=0;aspect=fixed;html=1;points=[];align=center;fontSize=12;image=img/lib/mscae/Docker.svg;" parent="Wg8RFO9psuNznAwOXjFQ-46" vertex="1">
          <mxGeometry x="63" y="38" width="24.39" height="20" as="geometry" />
        </mxCell>
        <mxCell id="Wg8RFO9psuNznAwOXjFQ-48" value="Data" style="verticalLabelPosition=bottom;aspect=fixed;html=1;shape=mxgraph.salesforce.data;" parent="Wg8RFO9psuNznAwOXjFQ-46" vertex="1">
          <mxGeometry x="11" y="52.5" width="20.65" height="25.5" as="geometry" />
        </mxCell>
        <mxCell id="Wg8RFO9psuNznAwOXjFQ-49" value="Watch Tower" style="image;sketch=0;aspect=fixed;html=1;points=[];align=center;fontSize=12;image=img/lib/mscae/Docker.svg;" parent="Wg8RFO9psuNznAwOXjFQ-46" vertex="1">
          <mxGeometry x="62" y="84.5" width="26.22" height="21.5" as="geometry" />
        </mxCell>
        <mxCell id="Wg8RFO9psuNznAwOXjFQ-50" value="Data Provider instance" style="points=[[0,0],[0.25,0],[0.5,0],[0.75,0],[1,0],[1,0.25],[1,0.5],[1,0.75],[1,1],[0.75,1],[0.5,1],[0.25,1],[0,1],[0,0.75],[0,0.5],[0,0.25]];outlineConnect=0;gradientColor=none;html=1;whiteSpace=wrap;fontSize=12;fontStyle=0;container=1;pointerEvents=0;collapsible=0;recursiveResize=0;shape=mxgraph.aws4.group;grIcon=mxgraph.aws4.group_ec2_instance_contents;strokeColor=#D86613;fillColor=none;verticalAlign=top;align=left;spacingLeft=30;fontColor=#D86613;dashed=0;" parent="Wg8RFO9psuNznAwOXjFQ-88" vertex="1">
          <mxGeometry x="420" y="31" width="117" height="129" as="geometry" />
        </mxCell>
        <mxCell id="Wg8RFO9psuNznAwOXjFQ-51" value="FL Training" style="image;sketch=0;aspect=fixed;html=1;points=[];align=center;fontSize=12;image=img/lib/mscae/Docker.svg;" parent="Wg8RFO9psuNznAwOXjFQ-50" vertex="1">
          <mxGeometry x="63" y="38" width="24.39" height="20" as="geometry" />
        </mxCell>
        <mxCell id="Wg8RFO9psuNznAwOXjFQ-52" value="Data" style="verticalLabelPosition=bottom;aspect=fixed;html=1;shape=mxgraph.salesforce.data;" parent="Wg8RFO9psuNznAwOXjFQ-50" vertex="1">
          <mxGeometry x="11" y="52.5" width="20.65" height="25.5" as="geometry" />
        </mxCell>
        <mxCell id="Wg8RFO9psuNznAwOXjFQ-53" value="Watch Tower" style="image;sketch=0;aspect=fixed;html=1;points=[];align=center;fontSize=12;image=img/lib/mscae/Docker.svg;" parent="Wg8RFO9psuNznAwOXjFQ-50" vertex="1">
          <mxGeometry x="62" y="84.5" width="26.22" height="21.5" as="geometry" />
        </mxCell>
        <mxCell id="Wg8RFO9psuNznAwOXjFQ-54" value="Data Provider instance" style="points=[[0,0],[0.25,0],[0.5,0],[0.75,0],[1,0],[1,0.25],[1,0.5],[1,0.75],[1,1],[0.75,1],[0.5,1],[0.25,1],[0,1],[0,0.75],[0,0.5],[0,0.25]];outlineConnect=0;gradientColor=none;html=1;whiteSpace=wrap;fontSize=12;fontStyle=0;container=1;pointerEvents=0;collapsible=0;recursiveResize=0;shape=mxgraph.aws4.group;grIcon=mxgraph.aws4.group_ec2_instance_contents;strokeColor=#D86613;fillColor=none;verticalAlign=top;align=left;spacingLeft=30;fontColor=#D86613;dashed=0;" parent="Wg8RFO9psuNznAwOXjFQ-88" vertex="1">
          <mxGeometry x="280" y="31" width="117" height="129" as="geometry" />
        </mxCell>
        <mxCell id="Wg8RFO9psuNznAwOXjFQ-55" value="FL Training" style="image;sketch=0;aspect=fixed;html=1;points=[];align=center;fontSize=12;image=img/lib/mscae/Docker.svg;" parent="Wg8RFO9psuNznAwOXjFQ-54" vertex="1">
          <mxGeometry x="63" y="38" width="24.39" height="20" as="geometry" />
        </mxCell>
        <mxCell id="Wg8RFO9psuNznAwOXjFQ-56" value="Data" style="verticalLabelPosition=bottom;aspect=fixed;html=1;shape=mxgraph.salesforce.data;" parent="Wg8RFO9psuNznAwOXjFQ-54" vertex="1">
          <mxGeometry x="11" y="52.5" width="20.65" height="25.5" as="geometry" />
        </mxCell>
        <mxCell id="Wg8RFO9psuNznAwOXjFQ-57" value="Watch Tower" style="image;sketch=0;aspect=fixed;html=1;points=[];align=center;fontSize=12;image=img/lib/mscae/Docker.svg;" parent="Wg8RFO9psuNznAwOXjFQ-54" vertex="1">
          <mxGeometry x="62" y="84.5" width="26.22" height="21.5" as="geometry" />
        </mxCell>
        <mxCell id="Wg8RFO9psuNznAwOXjFQ-83" value="" style="swimlane;startSize=0;" parent="Wg8RFO9psuNznAwOXjFQ-88" vertex="1">
          <mxGeometry width="550" height="210" as="geometry" />
        </mxCell>
        <mxCell id="Wg8RFO9psuNznAwOXjFQ-81" value="Data Providers" style="text;html=1;align=center;verticalAlign=middle;whiteSpace=wrap;rounded=0;" parent="Wg8RFO9psuNznAwOXjFQ-83" vertex="1">
          <mxGeometry x="227" y="7" width="90" height="20" as="geometry" />
        </mxCell>
        <mxCell id="Wg8RFO9psuNznAwOXjFQ-89" value="8. FL Experiment Metrics back to scientists" style="text;html=1;align=center;verticalAlign=middle;whiteSpace=wrap;rounded=0;" parent="1" vertex="1">
          <mxGeometry x="320" y="216" width="140" height="20" as="geometry" />
        </mxCell>
      </root>
    </mxGraphModel>
  </diagram>
</mxfile>
